{"glyphs":{"0":{"ha":696,"x_min":52,"x_max":643,"o":"m 347 910 q 476 880 421 910 q 569 789 532 849 q 624 643 606 730 q 643 442 643 555 q 569 101 643 217 q 347 -16 494 -16 q 126 101 199 -16 q 52 442 52 217 q 71 643 52 555 q 126 789 89 730 q 218 880 163 849 q 347 910 273 910 m 347 119 q 404 136 380 119 q 445 192 429 153 q 470 291 462 230 q 479 442 479 353 q 470 595 479 532 q 445 698 462 658 q 404 756 429 738 q 347 775 380 775 q 291 757 315 775 q 250 699 267 739 q 224 595 233 659 q 216 442 216 532 q 224 291 216 353 q 250 191 233 229 q 291 136 267 153 q 347 119 315 119 z "},"1":{"ha":696,"x_min":136,"x_max":494,"o":"m 494 0 l 333 0 l 333 637 q 136 611 262 611 l 136 746 q 362 895 334 746 l 494 895 l 494 0 z "},"2":{"ha":696,"x_min":47,"x_max":647,"o":"m 647 0 l 47 0 q 96 189 47 116 q 166 273 122 227 q 275 372 210 319 q 373 456 333 419 q 436 525 412 492 q 471 588 460 557 q 481 655 481 619 q 450 744 481 712 q 359 775 418 775 q 312 765 334 775 q 272 736 290 755 q 243 687 255 716 q 229 620 232 659 l 65 620 q 94 740 71 686 q 155 831 117 793 q 245 889 193 869 q 361 910 298 910 q 482 890 429 910 q 571 836 535 871 q 626 755 607 802 q 645 653 645 708 q 631 559 645 602 q 591 478 618 517 q 514 390 565 443 q 389 275 463 337 q 334 226 368 257 q 267 150 300 195 l 647 150 l 647 0 z "},"3":{"ha":696,"x_min":50,"x_max":646,"o":"m 604 671 q 598 622 604 647 q 583 574 593 597 q 558 530 573 551 q 522 494 543 509 q 575 454 552 478 q 614 400 598 430 q 637 336 629 370 q 646 267 646 302 q 623 153 646 205 q 559 63 600 100 q 465 5 519 26 q 347 -16 410 -16 q 230 5 283 -16 q 138 62 177 25 q 76 152 99 99 q 50 269 53 204 l 216 269 q 224 211 216 238 q 249 163 233 184 q 290 131 266 143 q 347 119 315 119 q 402 130 377 119 q 445 160 427 141 q 472 207 463 180 q 481 265 481 233 q 472 325 481 298 q 443 371 462 352 q 395 401 423 391 q 330 412 367 412 l 262 412 l 262 547 l 313 547 q 409 581 377 547 q 440 672 440 614 q 414 749 440 723 q 338 775 387 775 q 223 645 237 775 l 59 645 q 90 760 66 710 q 151 843 114 809 q 235 893 187 876 q 336 910 282 910 q 447 892 397 910 q 531 843 496 875 q 585 767 566 811 q 604 671 604 724 z "},"4":{"ha":696,"x_min":36,"x_max":659,"o":"m 659 197 l 548 197 l 548 0 l 388 0 l 388 197 l 36 197 l 36 323 l 422 902 l 548 902 l 548 342 l 659 342 l 659 197 m 388 342 l 388 620 l 212 342 l 388 342 z "},"5":{"ha":696,"x_min":47,"x_max":649,"o":"m 245 595 q 366 618 296 618 q 473 598 422 618 q 564 538 524 578 q 626 440 603 498 q 649 304 649 381 q 627 178 649 237 q 565 76 605 119 q 468 9 525 33 q 340 -16 410 -16 q 233 2 283 -16 q 144 54 183 19 q 79 142 105 90 q 47 267 54 195 l 211 267 q 227 201 215 229 q 255 155 238 174 q 294 128 273 137 q 340 119 316 119 q 399 133 373 119 q 445 171 426 146 q 474 227 464 195 q 485 295 485 258 q 474 374 485 340 q 444 430 463 408 q 398 465 425 453 q 338 477 371 477 q 202 408 263 477 l 77 408 l 116 895 l 610 895 l 610 746 l 257 746 l 245 595 z "},"6":{"ha":696,"x_min":51,"x_max":645,"o":"m 363 775 q 312 759 336 775 q 271 713 289 743 q 239 640 252 683 q 218 545 225 597 q 292 585 254 570 q 373 601 330 601 q 486 576 435 601 q 571 510 536 552 q 626 411 607 467 q 645 292 645 355 q 625 173 645 229 q 567 75 604 117 q 477 9 530 33 q 360 -16 425 -16 q 229 14 286 -16 q 132 100 171 44 q 72 237 92 156 q 51 420 51 317 q 71 631 51 539 q 131 784 91 722 q 230 878 170 846 q 369 910 290 910 q 465 894 420 910 q 544 846 509 878 q 603 765 579 814 q 635 653 626 717 l 470 653 q 363 775 456 775 m 354 460 q 211 387 283 460 q 224 275 213 325 q 254 191 235 226 q 299 138 273 157 q 358 119 326 119 q 409 132 387 119 q 448 168 432 145 q 472 221 464 191 q 481 286 481 251 q 472 352 481 321 q 447 408 463 384 q 407 446 430 432 q 354 460 383 460 z "},"7":{"ha":696,"x_min":54,"x_max":642,"o":"m 642 791 l 333 0 l 157 0 l 463 746 l 54 746 l 54 895 l 642 895 l 642 791 z "},"8":{"ha":696,"x_min":49,"x_max":646,"o":"m 614 680 q 586 569 614 622 q 500 475 557 516 q 564 429 536 455 q 610 372 591 402 q 637 309 628 342 q 646 243 646 277 q 625 138 646 185 q 564 56 603 90 q 469 3 524 22 q 347 -16 414 -16 q 226 3 281 -16 q 132 56 171 22 q 71 137 92 90 q 49 243 49 185 q 58 309 49 277 q 85 372 66 342 q 130 429 103 402 q 194 475 157 455 q 110 569 139 516 q 81 680 81 623 q 100 773 81 730 q 154 846 119 815 q 238 893 189 876 q 347 910 288 910 q 456 893 407 910 q 540 845 505 876 q 594 772 575 814 q 614 680 614 730 m 482 243 q 449 327 482 288 q 347 397 416 366 q 302 373 326 387 q 259 339 279 358 q 225 295 239 319 q 212 243 212 271 q 249 152 212 184 q 347 119 286 119 q 402 128 377 119 q 445 152 427 136 q 472 191 463 168 q 482 243 482 214 m 245 680 q 347 552 245 602 q 450 680 450 602 q 423 750 450 726 q 347 775 396 775 q 272 750 299 775 q 245 680 245 726 z "},"9":{"ha":696,"x_min":51,"x_max":645,"o":"m 333 119 q 384 136 361 119 q 425 184 407 153 q 456 259 443 216 q 476 357 469 303 q 323 307 406 307 q 216 328 266 307 q 130 389 167 350 q 72 481 94 428 q 51 599 51 535 q 71 718 51 662 q 129 817 92 774 q 219 885 166 860 q 336 910 271 910 q 466 882 408 910 q 563 799 524 853 q 624 664 603 744 q 645 481 645 584 q 625 269 645 361 q 565 113 605 176 q 466 17 526 50 q 326 -16 406 -16 q 230 1 275 -16 q 151 49 185 17 q 93 129 116 81 q 61 241 70 177 l 226 241 q 333 119 239 119 m 341 441 q 484 514 413 441 q 471 625 481 576 q 441 707 460 673 q 396 758 422 741 q 338 775 370 775 q 288 762 311 775 q 249 726 265 749 q 224 671 233 703 q 215 605 215 640 q 224 539 215 569 q 249 488 233 509 q 289 454 266 466 q 341 441 313 441 z "},"​":{"ha":0,"x_min":0,"x_max":0,"o":""},"ஂ":{"ha":949,"x_min":326,"x_max":624,"o":"m 624 745 q 612 687 624 714 q 579 640 600 660 q 531 608 558 620 q 474 597 504 597 q 416 609 443 597 q 369 642 389 621 q 337 689 349 662 q 326 745 326 715 q 338 805 326 777 q 370 852 350 832 q 417 884 391 872 q 474 895 444 895 q 533 883 505 895 q 581 851 560 871 q 612 803 601 830 q 624 745 624 776 m 534 747 q 529 770 534 760 q 516 788 524 781 q 497 801 508 796 q 474 806 486 806 q 451 801 462 806 q 433 788 441 796 q 420 770 425 781 q 416 747 416 760 q 420 724 416 735 q 433 705 425 713 q 451 692 441 696 q 474 687 462 687 q 497 692 486 687 q 516 705 508 696 q 529 724 524 713 q 534 747 534 735 z "},"ஃ":{"ha":947,"x_min":54,"x_max":892,"o":"m 624 745 q 612 687 624 714 q 579 640 600 660 q 531 608 558 620 q 474 597 504 597 q 416 609 443 597 q 369 642 389 621 q 337 689 349 662 q 326 745 326 715 q 338 805 326 777 q 370 852 350 832 q 417 884 391 872 q 474 895 444 895 q 533 883 505 895 q 581 851 560 871 q 612 803 601 830 q 624 745 624 776 m 534 747 q 529 770 534 760 q 516 788 524 781 q 497 801 508 796 q 474 806 486 806 q 451 801 462 806 q 433 788 441 796 q 420 770 425 781 q 416 747 416 760 q 420 724 416 735 q 433 705 425 713 q 451 692 441 696 q 474 687 462 687 q 497 692 486 687 q 516 705 508 696 q 529 724 524 713 q 534 747 534 735 m 353 189 q 340 131 353 158 q 308 84 328 104 q 260 52 287 64 q 203 41 233 41 q 144 53 172 41 q 97 85 117 65 q 66 133 77 106 q 54 189 54 159 q 66 249 54 221 q 99 296 79 276 q 146 328 119 316 q 203 339 173 339 q 261 327 234 339 q 309 295 289 315 q 341 247 330 274 q 353 189 353 220 m 262 191 q 258 214 262 203 q 245 232 253 224 q 226 245 237 240 q 203 250 215 250 q 180 245 191 250 q 162 232 170 240 q 149 214 154 224 q 144 191 144 203 q 149 168 144 179 q 162 149 154 157 q 180 136 170 140 q 203 131 191 131 q 226 136 215 131 q 245 149 237 140 q 258 168 253 157 q 262 191 262 179 m 892 189 q 880 131 892 158 q 847 84 868 104 q 800 52 827 64 q 743 41 772 41 q 684 53 711 41 q 637 85 657 65 q 606 133 617 106 q 594 189 594 159 q 606 249 594 221 q 639 296 618 276 q 686 328 659 316 q 743 339 713 339 q 801 327 774 339 q 849 295 829 315 q 881 247 869 274 q 892 189 892 220 m 802 191 q 798 214 802 203 q 785 232 793 224 q 766 245 777 240 q 743 250 755 250 q 720 245 730 250 q 702 232 709 240 q 689 214 694 224 q 684 191 684 203 q 689 168 684 179 q 702 149 694 157 q 720 136 709 140 q 743 131 730 131 q 766 136 755 131 q 785 149 777 140 q 798 168 793 157 q 802 191 802 179 z "},"அ":{"ha":1649,"x_min":68,"x_max":1541,"o":"m 1541 895 l 1541 -149 l 1345 -149 l 1345 134 l 1153 134 q 1068 -7 1122 53 q 937 -105 1013 -66 q 763 -164 861 -144 q 550 -183 666 -183 q 452 -177 505 -183 q 345 -157 399 -171 q 242 -122 292 -144 q 153 -69 192 -100 q 91 5 115 -37 q 68 101 68 47 q 86 180 68 145 q 138 239 105 215 q 217 276 171 263 q 317 288 262 288 l 981 288 q 984 310 982 298 q 986 334 985 322 q 988 357 987 347 q 989 372 989 367 q 986 446 989 407 q 976 520 983 485 q 958 585 969 556 q 930 629 946 614 q 931 618 930 625 q 931 606 931 612 q 932 589 932 600 q 915 504 932 547 q 866 426 899 460 q 786 369 834 391 q 675 347 738 347 q 590 360 627 347 q 526 394 553 373 q 479 441 498 414 q 448 497 460 469 q 431 553 436 525 q 425 603 425 581 q 443 697 425 648 q 500 785 460 745 q 604 849 540 824 q 764 875 669 875 q 931 846 853 875 q 1067 757 1009 818 q 1159 600 1125 696 q 1192 368 1192 504 q 1191 324 1192 343 q 1188 288 1190 305 l 1345 288 l 1345 895 l 1541 895 m 924 134 l 326 134 q 293 130 305 134 q 275 120 281 126 q 266 105 268 114 q 264 88 264 97 q 287 42 264 62 q 350 6 309 21 q 447 -17 391 -9 q 572 -24 504 -24 q 792 14 705 -24 q 924 134 879 52 m 752 612 q 748 646 752 629 q 734 677 743 663 q 712 699 726 690 q 682 708 699 708 q 647 700 661 708 q 623 677 632 691 q 609 647 614 664 q 605 612 605 629 q 611 563 605 583 q 626 530 616 543 q 650 512 636 517 q 679 506 663 506 q 704 511 691 506 q 728 527 717 515 q 745 559 739 539 q 752 612 752 580 z "},"ஆ":{"ha":1954,"x_min":68,"x_max":1887,"o":"m 1541 895 l 1541 224 q 1587 232 1572 231 q 1615 234 1603 234 q 1635 235 1628 235 q 1748 211 1701 235 q 1827 148 1796 188 q 1872 56 1858 109 q 1887 -56 1887 3 q 1877 -145 1887 -98 q 1844 -239 1867 -192 q 1784 -331 1822 -287 q 1689 -408 1746 -374 q 1556 -461 1633 -441 q 1379 -481 1480 -481 q 1237 -466 1301 -481 q 1127 -421 1173 -450 q 1056 -351 1081 -393 q 1031 -256 1031 -309 q 1044 -199 1031 -227 q 1078 -147 1056 -171 q 1132 -103 1101 -123 q 1201 -69 1163 -83 l 1266 -217 q 1235 -260 1235 -231 q 1247 -286 1235 -274 q 1281 -306 1259 -298 q 1332 -319 1302 -315 q 1398 -323 1362 -323 q 1521 -302 1466 -323 q 1614 -243 1576 -280 q 1673 -157 1653 -206 q 1694 -54 1694 -109 q 1689 -9 1694 -33 q 1673 34 1684 14 q 1646 65 1662 53 q 1607 78 1629 78 q 1584 77 1594 78 q 1565 75 1574 77 q 1541 69 1555 73 l 1541 -149 l 1345 -149 l 1345 134 l 1153 134 q 1068 -7 1122 53 q 937 -105 1013 -66 q 763 -164 861 -144 q 550 -183 666 -183 q 452 -177 505 -183 q 345 -157 399 -171 q 242 -122 292 -144 q 153 -69 192 -100 q 91 5 115 -37 q 68 101 68 47 q 86 180 68 145 q 138 239 105 215 q 217 276 171 263 q 317 288 262 288 l 981 288 q 984 310 982 298 q 986 334 985 322 q 988 357 987 347 q 989 372 989 367 q 986 446 989 407 q 976 520 983 485 q 958 585 969 556 q 930 629 946 614 q 931 612 930 625 q 932 589 932 600 q 915 504 932 547 q 866 426 899 460 q 786 369 834 391 q 675 347 738 347 q 590 360 627 347 q 526 394 553 373 q 479 441 498 414 q 448 497 460 469 q 431 553 436 525 q 425 603 425 581 q 443 697 425 648 q 500 785 460 745 q 604 849 540 824 q 764 875 669 875 q 931 846 853 875 q 1067 757 1009 818 q 1159 600 1125 696 q 1192 368 1192 504 q 1191 324 1192 343 q 1188 288 1190 305 l 1345 288 l 1345 895 l 1541 895 m 924 134 l 326 134 q 293 130 305 134 q 275 120 281 126 q 266 105 268 114 q 264 88 264 97 q 287 42 264 62 q 350 6 309 21 q 447 -17 391 -9 q 572 -24 504 -24 q 792 14 705 -24 q 924 134 879 52 m 752 612 q 748 646 752 629 q 734 677 743 663 q 712 699 726 690 q 682 708 699 708 q 647 700 661 708 q 623 677 632 691 q 609 647 614 664 q 605 612 605 629 q 611 563 605 583 q 626 530 616 543 q 650 512 636 517 q 679 506 663 506 q 704 511 691 506 q 728 527 717 515 q 745 559 739 539 q 752 612 752 580 z "},"இ":{"ha":1583,"x_min":68,"x_max":1474,"o":"m 1474 0 l 1278 0 l 1278 495 q 1258 682 1278 599 q 1201 828 1237 764 q 1115 937 1164 892 q 1009 1011 1066 982 q 889 1054 951 1040 q 764 1067 827 1067 q 624 1048 688 1067 q 508 993 560 1028 q 417 910 456 958 q 352 806 378 863 q 312 686 326 749 q 299 557 299 623 q 309 406 299 476 q 338 275 319 336 q 493 328 412 310 q 656 345 575 345 q 734 343 697 345 q 805 334 770 340 q 874 318 840 328 q 945 294 908 309 q 966 454 966 378 q 954 582 966 525 q 920 680 942 639 q 869 744 899 720 q 807 772 840 768 q 822 746 816 761 q 833 714 829 731 q 840 679 838 697 q 842 645 842 661 q 827 566 842 604 q 784 498 812 528 q 717 452 756 469 q 629 435 677 435 q 541 452 580 435 q 475 500 502 470 q 434 569 448 530 q 419 653 419 609 q 446 766 419 714 q 520 857 473 819 q 632 916 568 895 q 771 937 696 937 q 925 905 854 937 q 1049 811 997 872 q 1132 665 1102 751 q 1162 472 1162 578 q 1150 326 1162 397 q 1114 185 1138 254 q 1167 126 1143 158 q 1208 57 1191 94 q 1234 -23 1225 20 q 1244 -113 1244 -66 q 1231 -201 1244 -162 q 1196 -270 1219 -240 q 1144 -320 1174 -299 q 1078 -354 1114 -341 q 1004 -374 1043 -368 q 927 -380 966 -380 q 791 -365 859 -380 q 658 -323 724 -351 q 523 -365 593 -351 q 378 -380 453 -380 q 264 -366 320 -380 q 164 -321 208 -353 q 94 -239 121 -290 q 68 -113 68 -188 q 98 41 68 -28 q 180 164 128 110 q 123 345 144 250 q 103 541 103 439 q 124 720 103 633 q 186 884 146 807 q 286 1024 227 960 q 418 1134 344 1088 q 581 1205 492 1180 q 770 1231 669 1231 q 989 1202 890 1231 q 1166 1123 1088 1173 q 1302 1002 1244 1072 q 1399 850 1360 932 q 1456 677 1437 768 q 1474 492 1474 586 l 1474 0 m 890 145 q 834 164 865 157 q 773 176 804 172 q 712 182 743 180 q 656 184 682 184 q 516 168 580 184 q 402 123 452 151 q 520 -31 454 32 q 656 -135 587 -94 q 793 -10 734 -83 q 890 145 851 63 m 1029 4 q 844 -210 954 -119 q 933 -221 897 -221 q 980 -214 957 -221 q 1020 -194 1002 -208 q 1048 -159 1038 -180 q 1059 -112 1059 -139 q 1029 4 1059 -54 m 374 -221 q 422 -219 399 -221 q 470 -212 446 -216 q 366 -118 415 -169 q 276 -7 317 -67 q 253 -112 253 -56 q 264 -164 253 -143 q 294 -198 276 -185 q 333 -216 311 -210 q 374 -221 354 -221 m 692 646 q 687 680 692 664 q 675 709 683 696 q 655 730 667 722 q 631 737 644 737 q 606 729 618 737 q 586 709 595 722 q 573 679 578 696 q 568 646 568 663 q 586 595 568 612 q 631 577 604 577 q 674 594 657 577 q 692 646 692 611 z "},"ஈ":{"ha":1223,"x_min":109,"x_max":1115,"o":"m 1099 741 l 838 741 l 838 0 l 642 0 l 642 741 l 304 741 l 304 0 l 109 0 l 109 895 l 1099 895 l 1099 741 m 1115 436 q 1106 393 1115 413 q 1083 358 1098 373 q 1048 335 1068 343 q 1005 326 1028 326 q 962 335 982 326 q 927 358 942 343 q 904 393 912 373 q 895 436 895 413 q 904 479 895 459 q 927 514 912 499 q 962 537 942 529 q 1005 546 982 546 q 1048 537 1028 546 q 1083 514 1068 529 q 1106 479 1098 499 q 1115 436 1115 459 m 583 436 q 574 393 583 413 q 551 358 566 373 q 516 335 536 343 q 473 326 496 326 q 430 335 450 326 q 395 358 410 343 q 371 393 380 373 q 363 436 363 413 q 371 479 363 459 q 395 514 380 499 q 430 537 410 529 q 473 546 450 546 q 516 537 496 546 q 551 514 536 529 q 574 479 566 499 q 583 436 583 459 z "},"உ":{"ha":1518,"x_min":81,"x_max":1451,"o":"m 1451 0 l 328 0 q 152 45 207 0 q 97 180 97 91 q 112 254 97 218 q 158 316 126 289 q 241 359 191 343 q 363 376 292 376 l 476 376 q 557 393 526 376 q 606 438 589 411 q 629 497 623 465 q 635 557 635 529 q 623 637 635 600 q 590 703 611 675 q 537 748 568 732 q 469 765 507 765 q 495 711 487 743 q 504 645 504 678 q 489 566 504 604 q 446 498 474 528 q 379 452 418 469 q 291 435 340 435 q 203 452 242 435 q 137 500 164 470 q 96 569 111 530 q 81 653 81 609 q 108 762 81 714 q 182 843 135 810 q 294 893 230 876 q 433 910 359 910 q 590 887 516 910 q 719 820 663 864 q 806 713 774 777 q 838 568 838 650 q 823 442 838 496 q 783 350 808 389 q 722 286 757 311 q 648 247 688 261 q 565 227 608 233 q 479 221 522 221 l 323 221 q 287 213 301 221 q 273 182 273 205 q 277 169 273 174 q 290 160 282 163 q 306 156 297 157 q 323 155 315 155 l 1451 155 l 1451 0 m 354 646 q 350 680 354 664 q 337 709 345 696 q 318 730 329 722 q 294 737 307 737 q 269 729 280 737 q 249 709 257 722 q 235 679 240 696 q 231 646 231 663 q 249 595 231 612 q 294 577 267 577 q 337 594 319 577 q 354 646 354 611 z "},"ஊ":{"ha":2064,"x_min":81,"x_max":1996,"o":"m 1996 741 l 1891 741 l 1891 224 l 1711 224 l 1711 741 q 1670 736 1690 741 q 1634 720 1649 732 q 1608 685 1618 707 q 1598 626 1598 663 l 1598 221 l 1418 221 l 1418 583 q 1403 656 1418 625 q 1364 709 1388 688 q 1307 741 1339 730 q 1240 751 1275 751 q 1183 743 1211 751 q 1132 713 1155 734 q 1092 659 1108 693 q 1072 575 1076 625 q 1120 590 1094 585 q 1165 595 1145 595 q 1253 577 1217 595 q 1312 530 1289 559 q 1345 465 1335 501 q 1355 393 1355 429 q 1343 319 1355 354 q 1307 258 1331 284 q 1244 217 1282 232 q 1154 201 1206 201 q 1063 217 1101 201 q 998 260 1025 233 q 955 323 971 288 q 929 399 938 359 q 917 478 920 438 q 913 555 913 519 q 935 687 913 625 q 997 795 956 749 q 1100 868 1039 841 q 1242 895 1162 895 q 1302 892 1270 895 q 1370 880 1335 889 q 1437 852 1404 870 q 1497 806 1470 835 q 1532 836 1512 821 q 1580 865 1551 852 q 1653 887 1610 878 q 1761 895 1696 895 l 1996 895 l 1996 741 m 1219 390 q 1202 443 1219 425 q 1159 461 1185 461 q 1130 454 1141 461 q 1112 436 1118 446 q 1102 413 1105 425 q 1100 390 1100 400 q 1117 344 1100 361 q 1159 326 1133 326 q 1202 344 1185 326 q 1219 390 1219 361 m 1945 0 l 328 0 q 152 45 207 0 q 97 180 97 91 q 112 254 97 218 q 158 316 126 289 q 241 359 191 343 q 363 376 292 376 l 476 376 q 557 393 526 376 q 606 438 589 411 q 629 497 623 465 q 635 557 635 529 q 623 637 635 600 q 590 703 611 675 q 537 748 568 732 q 469 765 507 765 q 495 711 487 743 q 504 645 504 678 q 489 566 504 604 q 446 498 474 528 q 379 452 418 469 q 291 435 340 435 q 203 452 242 435 q 137 500 164 470 q 96 569 111 530 q 81 653 81 609 q 108 762 81 714 q 182 843 135 810 q 294 893 230 876 q 433 910 359 910 q 590 887 516 910 q 719 820 663 864 q 806 713 774 777 q 838 568 838 650 q 823 442 838 496 q 783 350 808 389 q 722 286 757 311 q 648 247 688 261 q 565 227 608 233 q 479 221 522 221 l 323 221 q 287 213 301 221 q 273 182 273 205 q 277 169 273 174 q 290 160 282 163 q 306 156 297 157 q 323 155 315 155 l 1945 155 l 1945 0 m 354 646 q 350 680 354 664 q 337 709 345 696 q 318 730 329 722 q 294 737 307 737 q 269 729 280 737 q 249 709 257 722 q 235 679 240 696 q 231 646 231 663 q 249 595 231 612 q 294 577 267 577 q 337 594 319 577 q 354 646 354 611 z "},"எ":{"ha":1306,"x_min":81,"x_max":1238,"o":"m 807 0 l 807 741 l 656 741 q 525 723 584 741 q 420 675 466 706 q 344 603 375 645 q 297 510 313 560 q 315 512 302 511 q 340 514 327 513 q 366 515 353 515 q 385 515 378 515 q 507 490 456 515 q 590 426 558 465 q 637 340 623 387 q 652 248 652 292 q 635 151 652 198 q 585 66 618 104 q 500 7 551 29 q 381 -16 449 -16 q 258 12 313 -16 q 163 88 203 40 q 103 202 124 136 q 81 343 81 268 q 121 557 81 457 q 233 733 160 658 q 411 852 307 808 q 644 895 515 895 l 1238 895 l 1238 741 l 1003 741 l 1003 0 l 807 0 m 293 340 q 287 312 289 327 q 285 282 285 296 q 292 226 285 252 q 313 182 299 200 q 346 153 327 163 q 390 143 366 143 q 427 152 412 143 q 453 176 443 161 q 468 209 463 191 q 473 245 473 227 q 469 280 473 260 q 456 316 466 299 q 428 345 446 333 q 380 357 410 357 q 334 353 359 357 q 293 340 308 349 z "},"ஏ":{"ha":1306,"x_min":81,"x_max":1238,"o":"m 1238 895 l 1238 741 l 1003 741 l 1003 0 l 614 -349 l 505 -240 l 807 30 l 807 741 l 656 741 q 525 723 584 741 q 420 675 466 706 q 344 603 375 645 q 297 510 313 560 q 315 512 302 511 q 340 514 327 513 q 366 515 353 515 q 385 515 378 515 q 507 490 456 515 q 590 426 558 465 q 637 340 623 387 q 652 248 652 292 q 635 151 652 198 q 585 66 618 104 q 500 7 551 29 q 381 -16 449 -16 q 258 12 313 -16 q 163 88 203 40 q 103 202 124 136 q 81 343 81 268 q 121 557 81 457 q 233 733 160 658 q 411 852 307 808 q 644 895 515 895 l 1238 895 m 293 340 q 287 312 289 327 q 285 282 285 296 q 292 226 285 252 q 313 182 299 200 q 346 153 327 163 q 390 143 366 143 q 427 152 412 143 q 453 176 443 161 q 468 209 463 191 q 473 245 473 227 q 469 280 473 260 q 456 316 466 299 q 428 345 446 333 q 380 357 410 357 q 334 353 359 357 q 293 340 308 349 z "},"ஐ":{"ha":1410,"x_min":81,"x_max":1329,"o":"m 861 430 l 665 430 l 665 539 q 652 639 665 598 q 616 705 639 680 q 560 742 593 730 q 488 753 527 753 q 470 751 479 753 q 456 746 460 749 q 485 730 468 741 q 516 700 501 720 q 543 648 532 680 q 553 572 553 617 q 535 481 553 523 q 485 410 517 440 q 411 364 454 380 q 319 347 368 347 q 225 363 269 347 q 150 411 182 379 q 100 491 118 443 q 81 603 81 538 q 113 731 81 674 q 197 827 145 787 q 317 889 250 867 q 457 910 385 910 q 566 903 518 910 q 649 883 613 895 q 711 856 685 871 q 753 827 736 841 q 800 866 774 850 q 853 892 825 882 q 910 906 881 901 q 967 910 939 910 q 1129 884 1061 910 q 1241 814 1197 859 q 1307 708 1286 769 q 1329 577 1329 648 q 1314 443 1329 502 q 1275 340 1300 385 q 1217 265 1251 296 q 1146 212 1183 233 q 1067 178 1108 191 q 988 159 1027 165 q 913 151 949 153 q 848 149 877 149 l 587 149 q 482 140 533 149 q 392 107 431 131 q 329 43 353 84 q 306 -61 306 3 q 320 -134 306 -104 q 360 -183 335 -164 q 418 -212 385 -203 q 486 -221 450 -221 q 574 -200 539 -221 q 628 -146 608 -180 q 656 -69 648 -112 q 665 19 665 -26 l 861 19 q 863 -81 861 -37 q 879 -157 866 -125 q 920 -204 892 -188 q 998 -221 948 -221 q 1054 -213 1031 -221 q 1092 -191 1077 -205 q 1115 -157 1107 -176 q 1122 -115 1122 -138 q 1025 -20 1122 -40 l 1057 133 q 1178 100 1128 125 q 1257 42 1227 76 q 1299 -32 1286 7 q 1312 -111 1312 -72 q 1296 -220 1312 -170 q 1243 -305 1280 -269 q 1145 -360 1206 -340 q 996 -380 1085 -380 q 931 -375 967 -380 q 860 -358 895 -370 q 795 -327 825 -346 q 751 -278 766 -307 q 688 -328 722 -308 q 618 -359 654 -347 q 546 -375 582 -370 q 477 -380 509 -380 q 338 -362 406 -380 q 219 -307 271 -345 q 134 -209 166 -269 q 102 -61 102 -148 q 122 64 102 9 q 177 159 142 119 q 259 228 212 200 q 360 272 306 255 q 475 296 415 289 q 593 303 534 303 l 845 303 q 971 317 918 303 q 1058 363 1024 331 q 1109 447 1093 395 q 1125 574 1125 498 q 1112 656 1125 622 q 1077 712 1098 690 q 1029 744 1055 734 q 979 753 1004 753 q 922 743 945 753 q 885 709 899 732 q 866 648 871 686 q 861 557 861 611 l 861 430 m 391 580 q 385 614 391 597 q 370 643 380 630 q 348 663 361 655 q 321 670 336 670 q 291 662 304 670 q 269 642 278 654 q 255 612 260 629 q 250 580 250 596 q 255 547 250 563 q 270 518 260 530 q 292 497 279 505 q 321 490 305 490 q 349 497 336 490 q 371 517 361 505 q 385 546 380 530 q 391 580 391 562 z "},"ஒ":{"ha":1648,"x_min":81,"x_max":1567,"o":"m 598 -57 q 558 -104 573 -79 q 544 -153 544 -130 q 567 -227 544 -204 q 636 -249 591 -249 q 690 -235 664 -249 q 741 -199 716 -221 q 790 -150 766 -177 q 838 -98 814 -123 q 885 -53 861 -73 q 932 -22 908 -32 q 834 15 878 -11 q 760 78 791 41 q 712 163 728 115 q 695 264 695 210 q 729 397 695 340 q 820 492 764 454 q 947 549 876 530 q 1093 568 1018 568 l 1185 568 l 1185 416 q 1161 411 1170 415 q 1148 400 1152 407 q 1142 385 1143 394 q 1141 364 1141 376 q 1162 326 1141 340 q 1225 313 1183 313 q 1293 329 1266 313 q 1335 369 1319 345 q 1357 420 1351 393 q 1363 469 1363 447 q 1335 565 1363 523 q 1261 638 1308 607 q 1154 692 1215 670 q 1028 727 1093 713 q 898 746 963 740 q 777 751 833 751 q 645 745 705 751 q 537 727 586 739 q 450 695 489 714 q 378 650 410 676 q 419 643 396 650 q 468 622 443 636 q 517 588 493 608 q 559 539 541 567 q 590 475 578 511 q 602 397 602 440 q 584 309 602 353 q 534 228 567 264 q 454 168 501 191 q 347 145 407 145 q 237 171 286 145 q 153 238 188 196 q 100 334 119 280 q 81 444 81 387 q 113 592 81 526 q 198 709 144 658 q 322 799 252 761 q 471 862 393 837 q 629 898 549 886 q 783 910 709 910 q 994 897 893 910 q 1182 857 1095 883 q 1340 793 1270 831 q 1461 707 1411 755 q 1539 598 1512 658 q 1567 471 1567 539 q 1542 345 1567 403 q 1474 245 1518 287 q 1367 179 1430 203 q 1228 155 1304 155 q 1133 166 1181 155 q 1047 203 1086 178 q 984 272 1008 229 q 958 376 960 314 q 929 359 941 370 q 908 334 916 347 q 896 305 900 320 q 892 277 892 290 q 1002 123 892 165 q 1261 94 1081 94 l 1261 -65 q 1163 -80 1206 -65 q 1084 -118 1120 -94 q 1015 -173 1047 -142 q 951 -236 983 -204 q 887 -299 920 -268 q 817 -354 854 -330 q 733 -392 779 -378 q 630 -407 687 -407 q 518 -391 569 -407 q 432 -345 468 -376 q 377 -270 397 -315 q 357 -167 357 -225 q 477 50 357 -50 l 598 -57 m 420 401 q 415 439 420 421 q 399 470 410 456 q 374 491 389 484 q 340 499 359 499 q 307 492 321 499 q 282 471 292 484 q 266 440 271 458 q 260 401 260 422 q 266 363 260 381 q 281 333 271 346 q 306 312 291 319 q 340 304 320 304 q 373 311 358 304 q 398 332 388 319 q 415 363 409 345 q 420 401 420 380 z "},"ஓ":{"ha":1648,"x_min":81,"x_max":1567,"o":"m 1261 -65 q 1176 -83 1213 -65 q 1107 -130 1139 -101 q 1048 -197 1076 -159 q 991 -273 1021 -234 q 929 -350 962 -313 q 854 -416 896 -387 q 761 -464 813 -446 q 642 -481 709 -481 q 517 -461 574 -481 q 418 -404 460 -441 q 353 -317 376 -368 q 330 -205 330 -266 q 347 -105 330 -151 q 396 -27 364 -60 q 475 24 429 6 q 579 43 521 43 q 655 30 619 43 q 717 -7 690 16 q 760 -63 744 -31 q 775 -134 775 -96 q 760 -204 775 -173 q 718 -259 745 -236 q 654 -294 690 -281 q 575 -306 618 -306 q 557 -304 568 -306 q 541 -302 547 -303 q 592 -323 565 -319 q 638 -328 618 -328 q 716 -312 682 -328 q 780 -271 751 -296 q 832 -212 808 -245 q 879 -146 857 -180 q 924 -80 902 -112 q 971 -22 946 -47 q 860 5 911 -18 q 773 65 810 28 q 716 150 736 102 q 695 252 695 198 q 724 386 695 328 q 808 485 753 445 q 943 547 863 526 q 1126 568 1023 568 l 1185 568 l 1185 416 q 1151 404 1160 414 q 1141 372 1141 394 q 1162 326 1141 338 q 1225 313 1183 313 q 1293 329 1266 313 q 1335 369 1319 345 q 1357 420 1351 393 q 1363 469 1363 447 q 1335 565 1363 523 q 1261 638 1308 607 q 1154 692 1215 670 q 1028 727 1093 713 q 898 746 963 740 q 777 751 833 751 q 645 745 705 751 q 537 727 586 739 q 450 695 489 714 q 378 650 410 676 q 419 643 396 650 q 468 622 443 636 q 517 588 493 608 q 559 539 541 567 q 590 475 578 511 q 602 397 602 440 q 584 309 602 353 q 534 228 567 264 q 454 168 501 191 q 347 145 407 145 q 237 171 286 145 q 153 238 188 196 q 100 334 119 280 q 81 444 81 387 q 113 592 81 526 q 198 709 144 658 q 322 799 252 761 q 471 862 393 837 q 629 898 549 886 q 783 910 709 910 q 994 897 893 910 q 1182 857 1095 883 q 1340 793 1270 831 q 1461 707 1411 755 q 1539 598 1512 658 q 1567 471 1567 539 q 1542 345 1567 403 q 1474 245 1518 287 q 1367 179 1430 203 q 1228 155 1304 155 q 1133 166 1181 155 q 1046 204 1084 178 q 983 273 1007 231 q 958 376 958 315 q 929 359 941 370 q 908 334 916 347 q 896 305 900 320 q 892 277 892 290 q 1002 123 892 165 q 1261 94 1081 94 l 1261 -65 m 420 401 q 415 439 420 421 q 399 470 410 456 q 374 491 389 484 q 340 499 359 499 q 307 492 321 499 q 282 471 292 484 q 266 440 271 458 q 260 401 260 422 q 266 363 260 381 q 281 333 271 346 q 306 312 291 319 q 340 304 320 304 q 373 311 358 304 q 398 332 388 319 q 415 363 409 345 q 420 401 420 380 m 489 -141 q 525 -171 505 -161 q 576 -180 545 -180 q 618 -165 603 -180 q 633 -125 633 -150 q 616 -90 633 -102 q 571 -77 600 -77 q 526 -94 547 -77 q 489 -141 505 -111 z "},"ஔ":{"ha":3154,"x_min":81,"x_max":3086,"o":"m 598 -57 q 558 -104 573 -79 q 544 -153 544 -130 q 567 -227 544 -204 q 636 -249 591 -249 q 690 -235 664 -249 q 741 -199 716 -221 q 790 -150 766 -177 q 838 -98 814 -123 q 885 -53 861 -73 q 932 -22 908 -32 q 834 15 878 -11 q 760 78 791 41 q 712 163 728 115 q 695 264 695 210 q 729 397 695 340 q 820 492 764 454 q 947 549 876 530 q 1093 568 1018 568 l 1185 568 l 1185 416 q 1161 411 1170 415 q 1148 400 1152 407 q 1142 385 1143 394 q 1141 364 1141 376 q 1162 326 1141 340 q 1225 313 1183 313 q 1293 329 1266 313 q 1335 369 1319 345 q 1357 420 1351 393 q 1363 469 1363 447 q 1335 565 1363 523 q 1261 638 1308 607 q 1154 692 1215 670 q 1028 727 1093 713 q 898 746 963 740 q 777 751 833 751 q 645 745 705 751 q 537 727 586 739 q 450 695 489 714 q 378 650 410 676 q 419 643 396 650 q 468 622 443 636 q 517 588 493 608 q 559 539 541 567 q 590 475 578 511 q 602 397 602 440 q 584 309 602 353 q 534 228 567 264 q 454 168 501 191 q 347 145 407 145 q 237 171 286 145 q 153 238 188 196 q 100 334 119 280 q 81 444 81 387 q 113 592 81 526 q 198 709 144 658 q 322 799 252 761 q 471 862 393 837 q 629 898 549 886 q 783 910 709 910 q 994 897 893 910 q 1182 857 1095 883 q 1340 793 1270 831 q 1461 707 1411 755 q 1539 598 1512 658 q 1567 471 1567 539 q 1542 345 1567 403 q 1474 245 1518 287 q 1367 179 1430 203 q 1228 155 1304 155 q 1133 166 1181 155 q 1047 203 1086 178 q 984 272 1008 229 q 958 376 960 314 q 929 359 941 370 q 908 334 916 347 q 896 305 900 320 q 892 277 892 290 q 1002 123 892 165 q 1261 94 1081 94 l 1261 -65 q 1163 -80 1206 -65 q 1084 -118 1120 -94 q 1015 -173 1047 -142 q 951 -236 983 -204 q 887 -299 920 -268 q 817 -354 854 -330 q 733 -392 779 -378 q 630 -407 687 -407 q 518 -391 569 -407 q 432 -345 468 -376 q 377 -270 397 -315 q 357 -167 357 -225 q 477 50 357 -50 l 598 -57 m 420 401 q 415 439 420 421 q 399 470 410 456 q 374 491 389 484 q 340 499 359 499 q 307 492 321 499 q 282 471 292 484 q 266 440 271 458 q 260 401 260 422 q 266 363 260 381 q 281 333 271 346 q 306 312 291 319 q 340 304 320 304 q 373 311 358 304 q 398 332 388 319 q 415 363 409 345 q 420 401 420 380 m 3086 895 l 3086 741 l 2936 741 l 2936 0 l 2743 0 l 2743 741 l 2721 741 q 2585 678 2631 741 q 2540 490 2540 616 l 2540 0 l 2344 0 l 2344 503 q 2327 612 2344 565 q 2278 689 2310 659 q 2201 736 2246 720 q 2099 751 2155 751 q 2003 732 2045 751 q 1931 680 1961 713 q 1882 604 1901 648 q 1856 511 1864 560 q 1872 513 1862 512 q 1894 514 1883 514 q 1917 515 1906 515 q 1933 515 1927 515 q 2056 490 2005 515 q 2139 426 2107 465 q 2186 340 2171 387 q 2201 248 2201 292 q 2183 151 2201 198 q 2132 66 2165 104 q 2051 7 2098 29 q 1944 -16 2003 -16 q 1821 14 1875 -16 q 1729 97 1767 44 q 1670 222 1691 150 q 1650 379 1650 294 q 1661 507 1650 443 q 1696 630 1672 571 q 1756 740 1720 689 q 1844 829 1793 791 q 1962 888 1895 867 q 2110 910 2028 910 q 2225 900 2174 910 q 2316 874 2275 890 q 2388 838 2356 859 q 2448 796 2420 817 q 2563 870 2494 844 q 2719 895 2632 895 l 3086 895 m 1853 340 q 1858 272 1854 307 q 1872 209 1862 237 q 1900 161 1882 180 q 1946 143 1917 143 q 1979 152 1965 143 q 2003 176 1993 161 q 2017 209 2012 191 q 2022 245 2022 227 q 2018 280 2022 260 q 2005 316 2015 299 q 1977 345 1994 333 q 1929 357 1959 357 q 1888 353 1908 357 q 1853 340 1868 349 z "},"க":{"ha":1232,"x_min":81,"x_max":1150,"o":"m 974 895 l 974 741 l 794 741 l 794 563 l 833 563 q 951 545 894 563 q 1052 495 1008 528 q 1123 414 1097 462 q 1150 307 1150 366 q 1127 182 1150 239 q 1062 84 1105 125 q 960 17 1020 42 q 827 -14 901 -9 l 827 144 q 917 195 886 153 q 947 296 947 237 q 907 380 947 353 q 794 407 867 407 l 794 366 q 790 285 794 328 q 773 200 786 242 q 737 118 760 157 q 674 50 713 79 q 578 2 635 20 q 441 -16 521 -16 q 346 -1 392 -16 q 260 40 300 14 q 188 100 220 66 q 131 172 155 134 q 94 249 107 210 q 81 326 81 289 q 90 399 81 363 q 118 463 99 434 q 169 512 138 491 q 245 541 201 532 l 245 895 l 974 895 m 598 563 l 598 741 l 441 741 l 441 563 l 598 563 m 598 408 l 369 408 q 337 405 353 408 q 311 391 322 401 q 292 366 299 382 q 285 326 285 351 q 299 264 285 296 q 337 205 314 232 q 390 160 361 178 q 448 143 418 143 q 519 159 490 143 q 566 202 548 175 q 591 267 583 230 q 598 346 598 304 l 598 408 z "},"ங":{"ha":1619,"x_min":109,"x_max":1511,"o":"m 1511 0 l 806 0 l 806 155 q 869 166 841 155 q 916 196 897 177 q 945 242 935 216 q 955 301 955 269 q 946 361 955 332 q 919 411 937 389 q 878 446 902 433 q 825 458 854 458 q 746 443 778 458 q 690 404 713 428 l 690 0 l 494 0 l 494 741 l 304 741 l 304 0 l 109 0 l 109 895 l 941 895 l 941 741 l 690 741 l 690 592 q 757 612 719 606 q 829 617 795 617 q 970 592 909 617 q 1073 526 1031 568 q 1137 432 1115 485 q 1158 322 1158 379 q 1147 234 1158 276 q 1114 155 1136 191 l 1315 155 l 1315 895 l 1511 895 l 1511 0 z "},"ச":{"ha":1075,"x_min":81,"x_max":1007,"o":"m 974 895 l 974 741 l 794 741 l 794 563 l 1007 563 l 1007 408 l 794 408 l 794 366 q 790 285 794 328 q 773 200 786 242 q 737 118 760 157 q 674 50 713 79 q 578 2 635 20 q 441 -16 521 -16 q 346 -1 392 -16 q 260 40 300 14 q 188 100 220 66 q 131 172 155 134 q 94 249 107 210 q 81 326 81 289 q 90 399 81 363 q 118 463 99 434 q 169 512 138 491 q 245 541 201 532 l 245 895 l 974 895 m 598 563 l 598 741 l 441 741 l 441 563 l 598 563 m 598 408 l 369 408 q 337 405 353 408 q 311 391 322 401 q 292 366 299 382 q 285 326 285 351 q 299 264 285 296 q 337 205 314 232 q 390 160 361 178 q 448 143 418 143 q 519 159 490 143 q 566 202 548 175 q 591 267 583 230 q 598 346 598 304 l 598 408 z "},"ஜ":{"ha":1410,"x_min":81,"x_max":1329,"o":"m 861 430 l 665 430 l 665 539 q 652 639 665 598 q 616 705 639 680 q 560 742 593 730 q 488 753 527 753 q 470 751 479 753 q 456 746 460 749 q 485 730 468 741 q 516 700 501 720 q 543 648 532 680 q 553 572 553 617 q 535 481 553 523 q 485 410 517 440 q 411 364 454 380 q 319 347 368 347 q 225 363 269 347 q 150 411 182 379 q 100 491 118 443 q 81 603 81 538 q 113 731 81 674 q 197 827 145 787 q 317 889 250 867 q 457 910 385 910 q 566 903 518 910 q 649 883 613 895 q 711 856 685 871 q 753 827 736 841 q 800 866 774 850 q 853 892 825 882 q 910 906 881 901 q 967 910 939 910 q 1129 884 1061 910 q 1241 814 1197 859 q 1307 708 1286 769 q 1329 577 1329 648 q 1314 443 1329 502 q 1275 340 1300 385 q 1217 265 1251 296 q 1146 212 1183 233 q 1067 178 1108 191 q 988 159 1027 165 q 913 151 949 153 q 848 149 877 149 l 587 149 q 482 140 533 149 q 392 107 431 131 q 329 43 353 84 q 306 -61 306 3 q 320 -134 306 -104 q 360 -183 335 -164 q 418 -212 385 -203 q 486 -221 450 -221 q 565 -205 528 -221 q 635 -166 603 -189 q 693 -118 667 -144 q 739 -72 720 -92 q 813 4 778 -31 q 885 62 849 38 q 961 100 922 87 q 1048 114 1001 114 q 1162 97 1113 114 q 1245 50 1212 81 q 1295 -23 1278 20 q 1312 -117 1312 -65 q 1297 -214 1312 -167 q 1249 -298 1281 -262 q 1167 -357 1217 -335 q 1051 -380 1118 -380 q 982 -371 1017 -380 q 915 -344 947 -363 q 857 -294 883 -325 q 812 -220 830 -264 q 735 -289 777 -259 q 651 -339 694 -319 q 563 -370 607 -359 q 477 -380 518 -380 q 338 -362 406 -380 q 219 -307 271 -345 q 134 -209 166 -269 q 102 -61 102 -148 q 122 64 102 9 q 177 159 142 119 q 259 228 212 200 q 360 272 306 255 q 475 296 415 289 q 593 303 534 303 l 845 303 q 971 317 918 303 q 1058 363 1024 331 q 1109 447 1093 395 q 1125 574 1125 498 q 1112 656 1125 622 q 1077 712 1098 690 q 1029 744 1055 734 q 979 753 1004 753 q 922 743 945 753 q 885 709 899 732 q 866 648 871 686 q 861 557 861 611 l 861 430 m 1149 -127 q 1139 -83 1149 -100 q 1116 -56 1130 -66 q 1084 -44 1101 -47 q 1051 -41 1067 -41 q 1016 -45 1032 -41 q 987 -56 1000 -50 q 963 -72 974 -63 q 945 -90 953 -81 q 992 -190 964 -159 q 1065 -221 1021 -221 q 1096 -215 1081 -221 q 1123 -196 1111 -208 q 1142 -167 1135 -184 q 1149 -127 1149 -149 m 391 580 q 385 614 391 597 q 370 643 380 630 q 348 663 361 655 q 321 670 336 670 q 291 662 304 670 q 269 642 278 654 q 255 612 260 629 q 250 580 250 596 q 255 547 250 563 q 270 518 260 530 q 292 497 279 505 q 321 490 305 490 q 349 497 336 490 q 371 517 361 505 q 385 546 380 530 q 391 580 391 562 z "},"ஞ":{"ha":1818,"x_min":81,"x_max":1737,"o":"m 1134 0 l 1134 741 l 1024 741 q 892 723 951 741 q 788 675 833 706 q 712 603 743 645 q 665 510 681 560 q 682 512 670 511 q 708 514 694 513 q 733 515 721 515 q 752 515 746 515 q 875 490 824 515 q 958 426 926 465 q 1005 340 990 387 q 1020 248 1020 292 q 1003 151 1020 198 q 952 66 986 104 q 867 7 918 29 q 749 -16 817 -16 q 626 12 681 -16 q 531 88 570 40 q 470 202 492 136 q 449 343 449 268 q 488 557 449 457 q 601 733 528 658 q 778 852 674 808 q 1012 895 882 895 l 1565 895 l 1565 741 l 1330 741 l 1330 494 q 1388 510 1358 504 q 1446 515 1417 515 q 1575 489 1520 515 q 1666 419 1630 463 q 1719 317 1702 376 q 1737 195 1737 259 q 1707 12 1737 94 q 1624 -134 1677 -70 q 1499 -244 1571 -198 q 1343 -321 1428 -291 q 1167 -365 1259 -351 q 981 -380 1074 -380 q 735 -358 852 -380 q 519 -292 618 -336 q 338 -184 419 -249 q 200 -33 257 -119 q 112 161 143 54 q 81 396 81 268 q 92 525 81 458 q 127 658 103 592 q 188 787 151 724 q 280 903 226 850 l 427 801 q 374 732 399 773 q 328 637 348 690 q 297 520 309 584 q 285 384 285 456 q 310 201 285 285 q 380 51 334 118 q 489 -67 425 -16 q 629 -152 552 -118 q 796 -204 707 -186 q 981 -221 885 -221 q 1120 -211 1051 -221 q 1250 -180 1188 -201 q 1363 -125 1311 -159 q 1453 -44 1415 -92 q 1512 64 1491 3 q 1533 204 1533 126 q 1526 275 1533 245 q 1505 322 1518 304 q 1474 349 1492 340 q 1435 357 1456 357 q 1379 346 1407 357 q 1330 323 1352 336 l 1330 0 l 1134 0 m 661 340 q 654 312 656 327 q 652 282 652 296 q 660 226 652 252 q 681 182 667 200 q 714 153 694 163 q 758 143 733 143 q 795 152 779 143 q 821 176 810 161 q 836 209 831 191 q 840 245 840 227 q 837 280 840 260 q 823 316 833 299 q 795 345 813 333 q 748 357 777 357 q 701 353 727 357 q 661 340 675 349 z "},"ட":{"ha":1295,"x_min":109,"x_max":1227,"o":"m 1227 0 l 109 0 l 109 895 l 304 895 l 304 155 l 1227 155 l 1227 0 z "},"ண":{"ha":2346,"x_min":81,"x_max":2279,"o":"m 2279 895 l 2279 741 l 2129 741 l 2129 0 l 1933 0 l 1933 741 l 1840 741 q 1808 739 1826 741 q 1771 735 1790 738 q 1736 728 1753 732 q 1707 719 1718 724 q 1797 558 1765 645 q 1828 376 1828 471 q 1813 222 1828 294 q 1765 98 1797 151 q 1683 15 1732 45 q 1566 -16 1633 -16 q 1447 16 1497 -16 q 1366 99 1398 47 q 1320 221 1335 152 q 1305 368 1305 291 q 1314 468 1305 418 q 1340 564 1323 518 q 1380 650 1356 610 q 1432 721 1403 690 q 1390 738 1416 732 q 1336 747 1364 744 q 1282 751 1308 750 q 1240 751 1256 751 q 1157 745 1197 751 q 1088 724 1116 738 q 1138 652 1116 691 q 1177 570 1161 614 q 1203 478 1194 526 q 1212 376 1212 429 q 1192 212 1212 285 q 1137 89 1172 140 q 1054 11 1102 38 q 949 -16 1006 -16 q 826 17 876 -16 q 745 103 776 50 q 702 226 715 157 q 688 368 688 295 q 697 472 688 425 q 722 562 706 519 q 762 644 739 605 q 813 724 785 684 q 730 746 774 740 q 623 751 685 751 q 531 740 577 751 q 445 707 485 728 q 373 657 404 686 q 326 593 342 628 q 348 595 336 594 q 369 596 359 596 q 470 571 427 596 q 542 503 513 545 q 583 405 570 460 q 597 289 597 349 q 581 175 597 230 q 535 78 566 120 q 459 10 505 35 q 355 -16 414 -16 q 267 3 306 -16 q 197 52 228 21 q 145 123 167 83 q 109 207 123 163 q 88 294 95 250 q 81 376 81 338 q 101 524 81 454 q 156 653 120 594 q 240 760 191 713 q 350 841 290 808 q 478 892 410 874 q 619 910 546 910 q 707 907 663 910 q 795 895 752 903 q 880 870 839 886 q 958 831 921 855 q 1007 861 977 846 q 1076 886 1037 875 q 1160 904 1114 897 q 1257 910 1206 910 q 1339 904 1295 910 q 1424 888 1382 899 q 1505 864 1466 878 q 1572 834 1544 850 q 1622 855 1593 844 q 1684 875 1650 866 q 1755 889 1717 884 q 1832 895 1792 895 l 2279 895 m 1566 610 q 1539 562 1552 589 q 1517 505 1527 536 q 1501 440 1507 475 q 1495 366 1495 406 q 1498 276 1495 317 q 1511 205 1502 235 q 1533 159 1519 176 q 1566 143 1546 143 q 1601 164 1587 143 q 1623 218 1615 185 q 1635 290 1632 250 q 1638 365 1638 329 q 1631 453 1638 414 q 1613 522 1624 492 q 1590 573 1603 551 q 1566 610 1577 595 m 1022 348 q 1018 433 1022 397 q 1004 498 1013 469 q 982 554 996 528 q 949 610 968 581 q 895 486 911 549 q 878 351 878 423 q 883 272 878 309 q 896 205 887 234 q 918 160 905 177 q 949 143 931 143 q 979 160 966 143 q 1002 205 993 177 q 1017 271 1012 234 q 1022 348 1022 308 m 271 421 q 269 405 270 414 q 269 384 269 395 q 274 310 269 351 q 290 231 279 269 q 317 169 301 194 q 354 143 333 143 q 381 157 371 143 q 398 191 392 170 q 405 238 404 212 q 407 290 407 264 q 406 311 407 298 q 402 341 405 325 q 394 375 399 357 q 380 406 389 392 q 360 429 372 420 q 332 437 349 437 q 306 435 321 437 q 271 421 291 433 z "},"த":{"ha":1219,"x_min":0,"x_max":1137,"o":"m 974 895 l 974 741 l 794 741 l 794 563 l 812 563 q 934 546 876 563 q 1038 493 993 528 q 1110 403 1083 457 q 1137 274 1137 349 l 1137 167 q 1120 3 1137 79 q 1060 -129 1102 -73 q 949 -217 1019 -185 q 777 -250 880 -250 l 324 -250 q 257 -264 282 -250 q 218 -302 232 -279 q 200 -353 205 -325 q 196 -407 196 -380 l 0 -407 q 19 -270 0 -329 q 78 -173 37 -212 q 183 -114 119 -134 q 341 -95 248 -95 l 788 -95 q 864 -76 834 -95 q 910 -21 893 -56 q 935 62 928 14 q 941 170 941 111 l 941 268 q 934 323 941 298 q 911 367 927 349 q 868 396 895 386 q 803 408 842 407 l 794 408 l 794 366 q 790 285 794 328 q 773 200 786 242 q 737 118 760 157 q 674 50 713 79 q 578 2 635 20 q 441 -16 521 -16 q 346 -1 392 -16 q 260 40 300 14 q 188 100 220 66 q 131 172 155 134 q 94 249 107 210 q 81 326 81 289 q 90 399 81 363 q 118 463 99 434 q 169 512 138 491 q 245 541 201 532 l 245 895 l 974 895 m 598 408 l 369 408 q 337 405 353 408 q 311 391 322 401 q 292 366 299 382 q 285 326 285 351 q 299 264 285 296 q 337 205 314 232 q 390 160 361 178 q 448 143 418 143 q 519 159 490 143 q 566 202 548 175 q 591 267 583 230 q 598 346 598 304 l 598 408 m 598 563 l 598 741 l 441 741 l 441 563 l 598 563 z "},"ந":{"ha":1172,"x_min":27,"x_max":1090,"o":"m 879 741 l 690 741 l 690 559 q 736 573 710 567 q 790 580 762 580 q 923 556 867 580 q 1017 490 980 532 q 1072 389 1054 448 q 1090 260 1090 330 q 1083 143 1090 203 q 1058 26 1076 83 q 1011 -81 1040 -31 q 939 -169 982 -131 q 837 -228 896 -206 q 703 -250 779 -250 l 351 -250 q 284 -264 309 -250 q 245 -302 259 -279 q 228 -353 232 -325 q 223 -407 223 -380 l 27 -407 q 46 -270 27 -329 q 105 -173 64 -212 q 211 -114 146 -134 q 368 -95 275 -95 l 703 -95 q 800 -66 764 -95 q 856 9 836 -38 q 881 116 875 56 q 887 239 887 176 q 881 312 887 279 q 862 370 875 345 q 829 408 849 394 q 779 421 808 421 q 752 417 767 421 q 723 402 736 413 q 700 373 709 391 q 690 328 690 355 l 690 0 l 494 0 l 494 741 l 304 741 l 304 0 l 109 0 l 109 895 l 879 895 l 879 741 z "},"ன":{"ha":1730,"x_min":81,"x_max":1662,"o":"m 1662 741 l 1513 741 l 1513 0 l 1317 0 l 1317 741 l 1251 741 q 1211 740 1234 741 q 1164 738 1187 739 q 1120 733 1141 736 q 1088 724 1099 730 q 1138 652 1116 691 q 1177 570 1161 614 q 1203 478 1194 526 q 1212 376 1212 429 q 1192 212 1212 285 q 1137 89 1172 140 q 1054 11 1102 38 q 949 -16 1006 -16 q 826 17 876 -16 q 745 103 776 50 q 702 226 715 157 q 688 368 688 295 q 697 472 688 425 q 722 562 706 519 q 762 644 739 605 q 813 724 785 684 q 730 746 774 740 q 623 751 685 751 q 531 740 577 751 q 445 707 485 728 q 373 657 404 686 q 326 593 342 628 q 348 595 336 594 q 369 596 359 596 q 470 571 427 596 q 542 503 513 545 q 583 405 570 460 q 597 289 597 349 q 581 175 597 230 q 535 78 566 120 q 459 10 505 35 q 355 -16 414 -16 q 267 3 306 -16 q 197 52 228 21 q 145 123 167 83 q 109 207 123 163 q 88 294 95 250 q 81 376 81 338 q 101 524 81 454 q 156 653 120 594 q 240 760 191 713 q 350 841 290 808 q 478 892 410 874 q 619 910 546 910 q 707 907 663 910 q 795 895 752 903 q 880 870 839 886 q 958 831 921 855 q 1047 868 1002 855 q 1140 887 1093 881 q 1236 894 1187 893 q 1335 895 1285 895 l 1662 895 l 1662 741 m 1022 348 q 1018 433 1022 397 q 1004 498 1013 469 q 982 554 996 528 q 949 610 968 581 q 895 486 911 549 q 878 351 878 423 q 883 272 878 309 q 896 205 887 234 q 918 160 905 177 q 949 143 931 143 q 979 160 966 143 q 1002 205 993 177 q 1017 271 1012 234 q 1022 348 1022 308 m 271 421 q 269 405 270 414 q 269 384 269 395 q 274 310 269 351 q 290 231 279 269 q 317 169 301 194 q 354 143 333 143 q 381 157 371 143 q 398 191 392 170 q 405 238 404 212 q 407 290 407 264 q 406 311 407 298 q 402 341 405 325 q 394 375 399 357 q 380 406 389 392 q 360 429 372 420 q 332 437 349 437 q 306 435 321 437 q 271 421 291 433 z "},"ப":{"ha":1105,"x_min":109,"x_max":996,"o":"m 109 895 l 304 895 l 304 155 l 800 155 l 800 895 l 996 895 l 996 0 l 109 0 l 109 895 z "},"ம":{"ha":1400,"x_min":109,"x_max":1292,"o":"m 109 0 l 109 895 l 304 895 l 304 155 l 603 155 l 603 595 q 618 721 603 663 q 669 821 634 779 q 759 886 703 863 q 895 910 814 910 q 1034 886 974 910 q 1138 821 1094 862 q 1212 725 1182 780 q 1259 610 1241 671 q 1284 486 1277 549 q 1292 363 1292 422 l 1292 217 q 1274 105 1292 148 q 1220 40 1255 63 q 1135 8 1185 16 q 1020 0 1084 0 l 109 0 m 799 155 l 1021 155 q 1045 157 1031 155 q 1069 165 1058 159 q 1088 184 1081 172 q 1096 217 1096 197 l 1096 361 q 1092 442 1096 398 q 1078 529 1087 486 q 1054 613 1069 572 q 1016 684 1038 653 q 965 733 994 714 q 899 751 937 751 q 826 710 852 751 q 799 595 799 669 l 799 155 z "},"ய":{"ha":1438,"x_min":109,"x_max":1329,"o":"m 1329 0 l 514 0 l 514 71 q 475 39 496 54 q 429 12 455 24 q 370 -8 404 -1 q 291 -16 336 -16 q 211 -1 245 -16 q 154 41 177 14 q 120 106 132 68 q 109 193 109 145 l 109 895 l 304 895 l 304 256 q 306 213 304 234 q 313 177 307 193 q 331 152 319 161 q 365 143 343 143 q 418 163 391 143 q 466 211 444 182 q 500 270 487 239 q 514 323 514 301 l 514 895 l 710 895 l 710 155 l 1133 155 l 1133 895 l 1329 895 l 1329 0 z "},"ர":{"ha":948,"x_min":109,"x_max":880,"o":"m 235 -240 l 537 30 l 537 741 l 304 741 l 304 0 l 109 0 l 109 895 l 880 895 l 880 741 l 733 741 l 733 0 l 345 -349 l 235 -240 z "},"ற":{"ha":1334,"x_min":27,"x_max":1253,"o":"m 728 0 l 537 0 l 537 633 q 530 677 537 656 q 508 715 523 699 q 469 742 492 732 q 412 752 446 752 q 362 742 382 752 q 328 716 341 732 q 310 679 315 700 q 304 637 304 659 l 304 0 l 109 0 l 109 658 q 132 755 109 709 q 196 836 156 801 q 287 890 235 870 q 395 910 338 910 q 546 887 481 910 q 649 816 610 864 q 876 910 737 910 q 1038 881 968 910 q 1157 792 1109 852 q 1229 640 1204 732 q 1253 421 1253 548 q 1230 188 1253 289 q 1169 12 1208 87 q 1078 -113 1131 -62 q 966 -193 1026 -163 q 842 -237 906 -224 q 715 -250 778 -250 l 351 -250 q 284 -264 309 -250 q 245 -302 259 -279 q 228 -353 232 -325 q 223 -407 223 -380 l 27 -407 q 46 -270 27 -329 q 105 -173 64 -212 q 211 -114 146 -134 q 368 -95 275 -95 l 715 -95 q 846 -69 785 -95 q 952 17 907 -43 q 1023 175 998 77 q 1049 416 1049 273 q 1047 493 1049 454 q 1039 570 1045 532 q 1021 640 1033 607 q 990 698 1009 673 q 942 738 970 723 q 874 752 913 752 q 815 743 842 752 q 769 717 788 734 q 739 676 749 701 q 728 623 728 652 l 728 0 z "},"ல":{"ha":1622,"x_min":88,"x_max":1534,"o":"m 1118 897 q 1303 861 1225 897 q 1432 765 1381 825 q 1509 624 1484 705 q 1534 452 1534 543 q 1508 270 1534 355 q 1431 121 1482 184 q 1304 21 1380 58 q 1131 -16 1229 -16 q 864 87 952 -16 q 764 402 775 189 q 759 492 762 448 q 749 574 756 536 q 727 646 741 613 q 688 702 713 678 q 627 738 664 725 q 537 751 591 751 q 441 732 484 751 q 369 680 399 713 q 320 604 339 648 q 294 511 302 560 q 310 513 300 512 q 332 514 321 514 q 355 515 344 515 q 372 515 366 515 q 494 490 444 515 q 577 426 545 465 q 625 340 610 387 q 640 248 640 292 q 622 151 640 198 q 570 66 604 104 q 489 7 536 29 q 382 -16 441 -16 q 259 14 313 -16 q 167 97 205 44 q 109 222 129 150 q 88 379 88 294 q 99 507 88 443 q 134 630 111 571 q 195 740 158 689 q 282 829 231 791 q 400 888 334 867 q 548 910 466 910 q 726 881 650 910 q 853 794 802 852 q 930 646 904 735 q 960 437 957 557 q 974 301 962 357 q 1008 210 986 245 q 1061 159 1029 175 q 1136 143 1093 143 q 1203 155 1174 143 q 1254 188 1233 167 q 1290 237 1276 208 q 1314 298 1305 265 q 1327 366 1323 330 q 1331 436 1331 401 q 1320 541 1331 488 q 1284 638 1309 595 q 1219 710 1259 682 q 1118 739 1178 738 l 1118 897 m 292 340 q 296 272 292 307 q 310 209 300 237 q 338 161 320 180 q 384 143 355 143 q 417 152 403 143 q 441 176 431 161 q 455 209 450 191 q 460 245 460 227 q 456 280 460 260 q 443 316 453 299 q 415 345 433 333 q 368 357 397 357 q 327 353 347 357 q 292 340 307 349 z "},"ள":{"ha":1586,"x_min":81,"x_max":1518,"o":"m 1518 895 l 1518 741 l 1367 741 l 1367 0 l 1175 0 l 1175 741 l 1152 741 q 1017 678 1062 741 q 971 490 971 616 l 971 0 l 775 0 l 775 503 q 758 612 775 565 q 709 689 741 659 q 632 736 677 720 q 530 751 587 751 q 435 732 477 751 q 362 680 393 713 q 314 604 332 648 q 288 511 295 560 q 303 513 293 512 q 326 514 314 514 q 348 515 337 515 q 365 515 359 515 q 488 490 437 515 q 571 426 538 465 q 618 340 603 387 q 633 248 633 292 q 615 151 633 198 q 563 66 597 104 q 482 7 530 29 q 375 -16 435 -16 q 252 14 307 -16 q 160 97 198 44 q 102 222 122 150 q 81 379 81 294 q 93 507 81 443 q 127 630 104 571 q 188 740 151 689 q 276 829 224 791 q 393 888 327 867 q 541 910 459 910 q 656 900 606 910 q 747 874 707 890 q 820 838 787 859 q 880 796 852 817 q 994 870 925 844 q 1150 895 1063 895 l 1518 895 m 285 340 q 289 272 286 307 q 303 209 293 237 q 331 161 313 180 q 377 143 349 143 q 410 152 396 143 q 434 176 425 161 q 448 209 444 191 q 453 245 453 227 q 450 280 453 260 q 436 316 446 299 q 408 345 426 333 q 361 357 390 357 q 320 353 340 357 q 285 340 300 349 z "},"ழ":{"ha":1400,"x_min":109,"x_max":1292,"o":"m 109 0 l 109 895 l 304 895 l 304 155 l 603 155 l 603 595 q 618 721 603 663 q 669 821 634 779 q 759 886 703 863 q 895 910 814 910 q 1034 886 974 910 q 1138 821 1094 862 q 1212 725 1182 780 q 1259 610 1241 671 q 1284 486 1277 549 q 1292 363 1292 422 l 1292 217 q 1274 105 1292 148 q 1220 40 1255 63 q 1135 8 1185 16 q 1020 0 1084 0 l 804 0 q 833 -58 815 -40 q 880 -85 851 -77 q 951 -93 909 -93 l 1112 -93 l 1112 -252 l 958 -252 q 901 -259 927 -252 q 853 -280 876 -267 q 809 -311 830 -293 q 766 -349 787 -329 q 702 -407 736 -377 q 624 -460 669 -436 q 519 -500 578 -484 q 378 -515 459 -515 q 276 -499 323 -515 q 196 -454 230 -482 q 143 -387 162 -425 q 124 -304 124 -349 q 142 -221 124 -260 q 192 -155 160 -183 q 266 -110 223 -126 q 357 -94 309 -94 l 420 -94 l 420 -253 q 368 -256 388 -253 q 338 -267 349 -260 q 323 -285 327 -274 q 320 -311 320 -296 q 327 -329 320 -321 q 344 -344 334 -338 q 368 -353 355 -350 q 395 -357 382 -357 q 462 -350 432 -357 q 519 -330 492 -343 q 572 -297 546 -317 q 629 -252 599 -278 q 669 -218 649 -236 q 713 -186 689 -200 q 675 -159 695 -178 q 640 -112 656 -141 q 613 -41 624 -82 q 606 0 608 -22 l 109 0 m 799 155 l 1021 155 q 1045 157 1031 155 q 1069 165 1058 159 q 1088 184 1081 172 q 1096 217 1096 197 l 1096 361 q 1092 442 1096 398 q 1078 529 1087 486 q 1054 613 1069 572 q 1016 684 1038 653 q 965 733 994 714 q 899 751 937 751 q 826 710 852 751 q 799 595 799 669 l 799 155 z "},"வ":{"ha":1634,"x_min":81,"x_max":1526,"o":"m 763 158 q 823 202 798 172 q 862 269 847 232 q 884 346 877 306 q 890 420 890 387 q 866 558 890 496 q 801 662 842 619 q 703 728 759 705 q 585 751 648 751 q 478 732 529 751 q 387 677 427 712 q 321 597 347 643 q 288 498 294 551 q 315 507 298 503 q 348 512 331 510 q 378 515 364 514 q 399 515 393 515 q 522 490 471 515 q 605 426 572 465 q 652 340 637 387 q 667 248 667 292 q 649 151 667 198 q 597 66 631 104 q 516 7 564 29 q 409 -16 469 -16 q 272 20 333 -16 q 169 114 212 55 q 104 252 127 174 q 81 414 81 330 q 97 541 81 479 q 143 658 113 603 q 217 759 174 713 q 315 839 260 806 q 433 891 369 873 q 570 910 498 910 q 788 872 691 910 q 952 768 884 834 q 1057 613 1021 703 q 1094 422 1094 524 q 1089 353 1094 390 q 1075 279 1084 315 q 1050 210 1065 243 q 1015 155 1035 177 l 1330 155 l 1330 895 l 1526 895 l 1526 0 l 763 0 l 763 158 m 285 340 q 295 272 286 307 q 320 209 304 237 q 359 161 336 180 q 411 143 382 143 q 444 152 430 143 q 468 176 458 161 q 482 209 477 191 q 487 245 487 227 q 483 281 487 260 q 467 319 478 301 q 436 351 456 338 q 388 363 417 363 q 322 356 345 363 q 285 340 300 349 z "},"ஷ":{"ha":2009,"x_min":81,"x_max":1934,"o":"m 1908 0 l 1590 0 l 1139 -368 l 1025 -252 l 1320 0 l 763 0 l 763 158 q 823 202 798 172 q 862 269 847 232 q 884 346 877 306 q 890 420 890 387 q 866 558 890 496 q 801 662 842 619 q 703 728 759 705 q 585 751 648 751 q 478 732 529 751 q 387 677 427 712 q 321 597 347 643 q 288 498 294 551 q 315 507 298 503 q 348 512 331 510 q 378 515 364 514 q 399 515 393 515 q 522 490 471 515 q 605 426 572 465 q 652 340 637 387 q 667 248 667 292 q 649 151 667 198 q 597 66 631 104 q 516 7 564 29 q 409 -16 469 -16 q 272 20 333 -16 q 169 114 212 55 q 104 252 127 174 q 81 414 81 330 q 97 541 81 479 q 143 658 113 603 q 217 759 174 713 q 315 839 260 806 q 433 891 369 873 q 570 910 498 910 q 788 872 691 910 q 952 768 884 834 q 1057 613 1021 703 q 1094 422 1094 524 q 1089 353 1094 390 q 1075 279 1084 315 q 1050 210 1065 243 q 1015 155 1035 177 l 1436 155 q 1373 227 1404 191 q 1289 335 1326 280 q 1227 449 1251 390 q 1204 572 1204 507 q 1230 703 1204 641 q 1302 810 1256 764 q 1412 883 1349 857 q 1551 910 1476 910 q 1718 883 1647 910 q 1838 807 1790 855 q 1910 692 1886 758 q 1934 548 1934 625 q 1930 487 1934 520 q 1913 413 1926 453 q 1877 327 1900 373 q 1815 229 1853 281 q 1754 155 1788 193 l 1908 155 l 1908 0 m 1599 252 q 1671 341 1644 300 q 1713 419 1699 382 q 1733 492 1728 457 q 1738 564 1738 528 q 1724 639 1738 604 q 1687 698 1710 673 q 1631 737 1663 723 q 1565 751 1600 751 q 1505 738 1534 751 q 1452 700 1475 724 q 1414 644 1428 675 q 1400 577 1400 612 q 1451 436 1400 519 q 1599 252 1502 352 m 285 340 q 295 272 286 307 q 320 209 304 237 q 359 161 336 180 q 411 143 382 143 q 444 152 430 143 q 468 176 458 161 q 482 209 477 191 q 487 245 487 227 q 483 281 487 260 q 467 319 478 301 q 436 351 456 338 q 388 363 417 363 q 322 356 345 363 q 285 340 300 349 z "},"ஸ":{"ha":2184,"x_min":81,"x_max":2103,"o":"m 1681 897 q 1867 861 1788 897 q 1998 765 1946 825 q 2077 624 2051 705 q 2103 452 2103 543 q 2078 270 2103 355 q 2002 121 2053 184 q 1874 21 1951 58 q 1693 -16 1797 -16 q 1538 10 1604 -16 q 1428 87 1472 35 q 1360 217 1384 139 q 1331 402 1336 296 q 1319 532 1327 469 q 1291 644 1312 595 q 1232 722 1270 693 q 1130 751 1194 751 q 1065 735 1094 751 q 1015 688 1036 719 q 982 614 994 658 q 971 515 971 570 l 971 0 l 775 0 l 775 503 q 758 612 775 565 q 709 689 741 659 q 632 736 677 720 q 530 751 587 751 q 435 732 477 751 q 362 680 393 713 q 314 604 332 648 q 288 511 295 560 q 303 513 293 512 q 326 514 314 514 q 348 515 337 515 q 365 515 359 515 q 488 490 437 515 q 571 426 538 465 q 618 340 603 387 q 633 248 633 292 q 615 151 633 198 q 563 66 597 104 q 482 7 530 29 q 375 -16 435 -16 q 252 14 307 -16 q 160 97 198 44 q 102 222 122 150 q 81 379 81 294 q 93 507 81 443 q 127 630 104 571 q 188 740 151 689 q 276 829 224 791 q 393 888 327 867 q 541 910 459 910 q 656 900 606 910 q 747 874 707 890 q 820 838 787 859 q 880 796 852 817 q 928 839 901 819 q 988 876 956 860 q 1057 900 1021 891 q 1132 909 1094 909 q 1301 880 1230 909 q 1421 790 1373 850 q 1495 643 1470 731 q 1523 437 1520 554 q 1537 301 1525 357 q 1571 210 1549 245 q 1624 159 1592 175 q 1699 143 1656 143 q 1794 168 1756 143 q 1856 232 1833 192 q 1890 323 1880 273 q 1900 427 1900 374 q 1891 531 1900 479 q 1858 628 1882 584 q 1792 702 1834 671 q 1681 739 1749 732 l 1681 897 m 285 340 q 289 272 286 307 q 303 209 293 237 q 331 161 313 180 q 377 143 349 143 q 410 152 396 143 q 434 176 425 161 q 448 209 444 191 q 453 245 453 227 q 450 280 453 260 q 436 316 446 299 q 408 345 426 333 q 361 357 390 357 q 320 353 340 357 q 285 340 300 349 z "},"ஹ":{"ha":2524,"x_min":44,"x_max":2443,"o":"m 1495 0 l 763 0 l 763 158 q 823 202 798 172 q 862 269 847 232 q 884 346 877 306 q 890 420 890 387 q 866 558 890 496 q 801 662 842 619 q 703 728 759 705 q 585 751 648 751 q 478 732 529 751 q 387 677 427 712 q 321 597 347 643 q 288 498 294 551 q 315 507 298 503 q 348 512 331 510 q 378 515 364 514 q 399 515 393 515 q 522 490 471 515 q 605 426 572 465 q 652 340 637 387 q 667 248 667 292 q 649 151 667 198 q 597 66 631 104 q 516 7 564 29 q 409 -16 469 -16 q 272 20 333 -16 q 169 114 212 55 q 104 252 127 174 q 81 414 81 330 q 97 541 81 479 q 143 658 113 603 q 217 759 174 713 q 315 839 260 806 q 433 891 369 873 q 570 910 498 910 q 788 872 691 910 q 952 768 884 834 q 1057 613 1021 703 q 1094 422 1094 524 q 1089 353 1094 390 q 1075 279 1084 315 q 1050 210 1065 243 q 1015 155 1035 177 l 1299 155 l 1299 658 q 1322 755 1299 709 q 1386 836 1346 801 q 1477 890 1426 870 q 1585 910 1529 910 q 1736 887 1672 910 q 1839 816 1800 864 q 2066 910 1927 910 q 2228 881 2158 910 q 2347 792 2299 852 q 2419 640 2395 732 q 2443 421 2443 548 q 2420 188 2443 289 q 2359 12 2398 87 q 2268 -113 2321 -62 q 2156 -193 2216 -163 q 2032 -237 2096 -224 q 1905 -250 1968 -250 l 368 -250 q 301 -264 326 -250 q 262 -302 276 -279 q 244 -353 249 -325 q 240 -407 240 -380 l 44 -407 q 63 -270 44 -329 q 122 -173 81 -212 q 228 -114 163 -134 q 385 -95 292 -95 l 1905 -95 q 2037 -69 1976 -95 q 2143 17 2098 -43 q 2214 175 2188 77 q 2239 416 2239 273 q 2237 493 2239 454 q 2229 570 2235 532 q 2211 640 2223 607 q 2180 698 2199 673 q 2132 738 2161 723 q 2064 752 2104 752 q 2005 743 2032 752 q 1959 717 1978 734 q 1929 676 1940 701 q 1918 623 1918 652 l 1918 0 l 1727 0 l 1727 633 q 1720 677 1727 656 q 1698 715 1713 699 q 1659 742 1683 732 q 1603 752 1636 752 q 1552 742 1573 752 q 1518 716 1531 732 q 1500 679 1506 700 q 1495 637 1495 659 l 1495 0 m 285 340 q 295 272 286 307 q 320 209 304 237 q 359 161 336 180 q 411 143 382 143 q 444 152 430 143 q 468 176 458 161 q 482 209 477 191 q 487 245 487 227 q 483 281 487 260 q 467 319 478 301 q 436 351 456 338 q 388 363 417 363 q 322 356 345 363 q 285 340 300 349 z "},"ா":{"ha":965,"x_min":109,"x_max":897,"o":"m 897 741 l 711 741 l 711 0 l 515 0 l 515 741 l 304 741 l 304 0 l 109 0 l 109 895 l 897 895 l 897 741 z "},"ி":{"ha":317,"x_min":-627,"x_max":216,"o":"m 216 0 l 20 0 l 20 752 q 8 910 20 844 q -35 1017 -3 975 q -123 1077 -67 1058 q -267 1096 -179 1096 q -327 1088 -297 1096 q -379 1066 -356 1081 q -417 1030 -403 1052 q -431 979 -431 1008 q -427 952 -431 967 q -413 925 -422 938 q -391 904 -404 913 q -362 895 -378 895 l -362 737 q -484 757 -433 737 q -566 810 -534 777 q -613 887 -598 844 q -627 977 -627 930 q -596 1094 -627 1042 q -514 1181 -566 1145 q -397 1236 -463 1217 q -259 1255 -330 1255 q -95 1238 -166 1255 q 30 1192 -23 1222 q 118 1121 83 1162 q 176 1029 154 1080 q 207 922 197 979 q 216 803 216 864 l 216 0 z "},"ீ":{"ha":0,"x_min":-627,"x_max":96,"o":"m 96 1051 q 79 979 96 1012 q 37 924 63 947 q -24 888 10 901 q -94 875 -58 875 q -164 887 -130 875 q -223 921 -197 899 q -266 973 -250 943 q -281 1039 -281 1003 q -268 1096 -281 1069 q -232 1145 -255 1122 q -248 1147 -240 1147 q -265 1148 -256 1148 q -331 1140 -297 1148 q -393 1114 -365 1131 q -439 1071 -421 1097 q -458 1009 -458 1044 q -451 963 -458 983 q -431 927 -444 942 q -400 904 -418 912 q -361 896 -382 896 l -361 746 q -475 774 -425 753 q -559 829 -525 795 q -610 908 -593 863 q -627 1007 -627 954 q -611 1089 -627 1051 q -566 1157 -594 1126 q -502 1211 -538 1187 q -426 1250 -466 1234 q -346 1274 -386 1265 q -270 1282 -305 1282 q -181 1278 -226 1282 q -96 1263 -137 1274 q -21 1236 -56 1253 q 40 1194 14 1219 q 81 1133 66 1168 q 96 1051 96 1098 m -43 1047 q -58 1082 -43 1067 q -92 1097 -73 1097 q -126 1082 -112 1097 q -141 1047 -141 1067 q -126 1012 -141 1027 q -92 997 -112 997 q -73 1001 -82 997 q -58 1012 -64 1005 q -47 1028 -51 1019 q -43 1047 -43 1037 z "},"ு":{"ha":689,"x_min":-469,"x_max":585,"o":"m 585 660 q 566 569 585 611 q 515 495 547 526 q 440 445 483 463 q 351 427 397 427 q 259 446 301 427 q 185 497 216 465 q 135 571 153 529 q 117 660 117 613 q 132 741 117 703 l -469 741 l -469 895 l 351 895 q 443 876 400 895 q 517 825 486 857 q 567 750 549 793 q 585 660 585 707 m 423 655 q 417 688 423 673 q 402 715 412 704 q 379 734 393 727 q 351 741 366 741 q 324 734 337 741 q 301 716 311 728 q 286 689 292 705 q 280 655 280 673 q 286 623 280 639 q 301 596 291 608 q 323 577 311 584 q 351 570 336 570 q 379 577 366 570 q 402 595 392 584 q 417 623 412 607 q 423 655 423 638 z "},"ூ":{"ha":1177,"x_min":-436,"x_max":1109,"o":"m 444 347 q 530 317 485 325 q 621 310 575 310 q 741 335 688 310 q 830 404 793 361 q 887 502 867 446 q 906 616 906 557 q 891 726 906 674 q 842 818 876 779 q 750 880 807 857 q 611 903 694 903 q 535 897 565 903 q 484 875 506 890 q 538 838 513 861 q 581 788 563 816 q 609 727 599 760 q 618 660 618 694 q 600 569 618 611 q 548 495 581 526 q 473 445 516 463 q 384 427 431 427 q 292 446 334 427 q 218 497 250 465 q 169 571 186 529 q 151 660 151 613 q 165 741 151 703 l -436 741 l -436 895 l 260 895 q 330 970 288 939 q 419 1021 372 1001 q 515 1052 467 1042 q 606 1061 564 1061 q 830 1025 735 1061 q 987 928 925 989 q 1079 789 1049 867 q 1109 628 1109 711 q 1076 439 1109 526 q 978 288 1042 351 q 824 188 915 224 q 621 151 734 151 q 549 155 585 151 q 477 166 513 158 q 408 187 441 174 q 343 220 374 200 l 444 347 m 456 655 q 451 688 456 673 q 435 715 445 704 q 413 734 426 727 q 385 741 399 741 q 357 734 370 741 q 335 716 345 728 q 319 689 325 705 q 313 655 313 673 q 319 623 313 639 q 334 596 324 608 q 357 577 344 584 q 385 570 370 570 q 412 577 399 570 q 435 595 425 584 q 451 623 445 607 q 456 655 456 638 z "},"ெ":{"ha":1240,"x_min":81,"x_max":1132,"o":"m 1132 0 l 936 0 l 936 720 q 911 876 936 810 q 843 986 886 942 q 741 1051 800 1029 q 614 1072 682 1072 q 476 1039 537 1072 q 372 947 415 1006 q 307 810 330 889 q 284 638 284 730 q 290 543 284 591 q 304 452 295 495 q 327 375 314 410 q 353 320 339 340 q 389 386 365 355 q 444 440 412 417 q 513 475 475 463 q 590 488 551 488 q 702 466 654 488 q 782 407 750 444 q 829 322 813 370 q 844 225 844 275 q 828 142 844 185 q 779 64 812 100 q 696 7 746 29 q 581 -16 647 -16 q 416 13 489 -16 q 288 90 343 41 q 193 204 233 139 q 129 344 154 270 q 93 496 104 418 q 81 650 81 575 q 96 788 81 718 q 139 922 110 857 q 212 1042 168 986 q 316 1141 256 1099 q 450 1207 375 1183 q 615 1231 524 1231 q 1002 1102 873 1231 q 1132 724 1132 974 l 1132 0 m 665 235 q 658 272 665 254 q 641 302 652 289 q 614 322 629 315 q 582 330 599 330 q 551 322 566 330 q 525 302 536 315 q 507 273 513 290 q 500 235 500 256 q 506 200 500 217 q 524 171 513 184 q 549 151 534 158 q 582 143 564 143 q 613 150 598 143 q 640 170 628 157 q 658 199 651 182 q 665 235 665 216 z "},"ே":{"ha":1138,"x_min":81,"x_max":1070,"o":"m 576 1057 q 453 989 507 1034 q 361 885 399 944 q 304 756 324 826 q 285 614 285 687 q 302 473 285 542 q 355 344 319 404 q 446 237 391 284 q 576 161 501 190 q 563 243 563 201 q 583 345 563 298 q 638 426 604 391 q 719 479 673 460 q 816 498 765 498 q 916 479 869 498 q 997 427 962 460 q 1050 352 1031 395 q 1070 260 1070 309 q 1051 149 1070 199 q 991 61 1031 98 q 890 5 951 25 q 745 -16 829 -16 q 562 8 649 -16 q 401 73 475 31 q 268 174 328 115 q 168 302 209 232 q 104 451 126 372 q 81 614 81 530 q 104 774 81 696 q 168 921 126 852 q 268 1047 209 989 q 401 1146 328 1105 q 562 1211 475 1188 q 745 1234 648 1234 q 890 1214 829 1234 q 991 1157 951 1194 q 1051 1070 1031 1121 q 1070 958 1070 1019 q 1050 867 1070 910 q 997 791 1031 824 q 916 740 962 759 q 816 720 869 720 q 719 740 765 720 q 638 793 673 759 q 583 874 604 827 q 563 975 563 921 q 576 1057 563 1018 m 890 977 q 885 1013 890 996 q 869 1042 879 1029 q 845 1062 859 1055 q 814 1069 831 1069 q 783 1061 797 1069 q 760 1041 769 1054 q 745 1011 750 1028 q 739 977 739 995 q 745 939 739 956 q 761 908 751 921 q 785 887 771 895 q 814 879 798 879 q 846 887 831 879 q 870 909 860 895 q 885 940 880 922 q 890 977 890 958 m 890 242 q 885 279 890 261 q 870 310 880 296 q 846 332 860 323 q 814 340 831 340 q 785 332 798 340 q 761 311 771 324 q 745 280 751 298 q 739 242 739 262 q 745 207 739 224 q 760 178 750 191 q 783 157 769 165 q 814 150 797 150 q 845 157 831 150 q 869 177 859 164 q 885 206 879 189 q 890 242 890 223 z "},"ை":{"ha":1770,"x_min":81,"x_max":1689,"o":"m 1489 -25 l 1356 60 q 1410 146 1385 104 q 1450 233 1434 188 q 1476 330 1467 279 q 1485 444 1485 381 q 1463 565 1485 509 q 1403 663 1441 621 q 1315 728 1366 704 q 1208 751 1265 751 q 1183 751 1195 751 q 1159 749 1171 751 q 1135 742 1147 747 q 1107 730 1122 738 q 1157 657 1134 697 q 1196 573 1179 618 q 1223 479 1213 528 q 1232 376 1232 429 q 1212 212 1232 285 q 1157 89 1192 140 q 1074 11 1122 38 q 969 -16 1026 -16 q 846 17 896 -16 q 766 103 796 50 q 722 226 735 157 q 709 368 709 295 q 739 572 709 482 q 828 722 768 663 q 737 743 789 734 q 623 751 685 751 q 531 740 577 751 q 445 707 485 728 q 373 657 404 686 q 326 593 342 628 q 348 595 336 594 q 369 596 359 596 q 470 571 427 596 q 542 503 513 545 q 583 405 570 460 q 597 289 597 349 q 581 175 597 230 q 535 78 566 120 q 459 10 505 35 q 355 -16 414 -16 q 267 3 306 -16 q 197 52 228 21 q 145 123 167 83 q 109 207 123 163 q 88 294 95 250 q 81 376 81 338 q 101 524 81 454 q 156 653 120 594 q 240 760 191 713 q 350 841 290 808 q 478 892 410 874 q 619 910 546 910 q 707 907 663 910 q 794 896 751 904 q 879 874 838 888 q 960 840 921 861 q 1011 867 984 854 q 1071 890 1038 880 q 1144 905 1104 899 q 1236 910 1185 910 q 1360 893 1301 910 q 1469 845 1419 876 q 1560 772 1520 814 q 1629 677 1600 729 q 1673 566 1658 625 q 1689 444 1689 507 q 1672 300 1689 367 q 1628 177 1655 234 q 1564 70 1600 119 q 1489 -25 1528 20 m 1042 348 q 1038 433 1042 397 q 1025 498 1034 469 q 1002 554 1016 528 q 969 610 988 581 q 915 486 932 549 q 899 351 899 423 q 903 272 899 309 q 917 205 907 234 q 939 160 926 177 q 969 143 951 143 q 1000 160 986 143 q 1023 205 1013 177 q 1037 271 1032 234 q 1042 348 1042 308 m 271 421 q 269 405 270 414 q 269 384 269 395 q 274 310 269 351 q 290 231 279 269 q 317 169 301 194 q 354 143 333 143 q 381 157 371 143 q 398 191 392 170 q 405 238 404 212 q 407 290 407 264 q 406 311 407 298 q 402 341 405 325 q 394 375 399 357 q 380 406 389 392 q 360 429 372 420 q 332 437 349 437 q 306 435 321 437 q 271 421 291 433 z "},"ொ":{"ha":2173,"x_min":81,"x_max":2105,"o":"m 1132 0 l 936 0 l 936 720 q 911 876 936 810 q 843 986 886 942 q 741 1051 800 1029 q 614 1072 682 1072 q 476 1039 537 1072 q 372 947 415 1006 q 307 810 330 889 q 284 638 284 730 q 290 543 284 591 q 304 452 295 495 q 327 375 314 410 q 353 320 339 340 q 389 386 365 355 q 444 440 412 417 q 513 475 475 463 q 590 488 551 488 q 702 466 654 488 q 782 407 750 444 q 829 322 813 370 q 844 225 844 275 q 828 142 844 185 q 779 64 812 100 q 696 7 746 29 q 581 -16 647 -16 q 416 13 489 -16 q 288 90 343 41 q 193 204 233 139 q 129 344 154 270 q 93 496 104 418 q 81 650 81 575 q 96 788 81 718 q 139 922 110 857 q 212 1042 168 986 q 316 1141 256 1099 q 450 1207 375 1183 q 615 1231 524 1231 q 1002 1102 873 1231 q 1132 724 1132 974 l 1132 0 m 665 235 q 658 272 665 254 q 641 302 652 289 q 614 322 629 315 q 582 330 599 330 q 551 322 566 330 q 525 302 536 315 q 507 273 513 290 q 500 235 500 256 q 506 200 500 217 q 524 171 513 184 q 549 151 534 158 q 582 143 564 143 q 613 150 598 143 q 640 170 628 157 q 658 199 651 182 q 665 235 665 216 m 2105 741 l 1919 741 l 1919 0 l 1723 0 l 1723 741 l 1512 741 l 1512 0 l 1316 0 l 1316 895 l 2105 895 l 2105 741 z "},"ோ":{"ha":2103,"x_min":81,"x_max":2035,"o":"m 576 1057 q 453 989 507 1034 q 361 885 399 944 q 304 756 324 826 q 285 614 285 687 q 302 473 285 542 q 355 344 319 404 q 446 237 391 284 q 576 161 501 190 q 563 243 563 201 q 583 345 563 298 q 638 426 604 391 q 719 479 673 460 q 816 498 765 498 q 916 479 869 498 q 997 427 962 460 q 1050 352 1031 395 q 1070 260 1070 309 q 1051 149 1070 199 q 991 61 1031 98 q 890 5 951 25 q 745 -16 829 -16 q 562 8 649 -16 q 401 73 475 31 q 268 174 328 115 q 168 302 209 232 q 104 451 126 372 q 81 614 81 530 q 104 774 81 696 q 168 921 126 852 q 268 1047 209 989 q 401 1146 328 1105 q 562 1211 475 1188 q 745 1234 648 1234 q 890 1214 829 1234 q 991 1157 951 1194 q 1051 1070 1031 1121 q 1070 958 1070 1019 q 1050 867 1070 910 q 997 791 1031 824 q 916 740 962 759 q 816 720 869 720 q 719 740 765 720 q 638 793 673 759 q 583 874 604 827 q 563 975 563 921 q 576 1057 563 1018 m 890 977 q 885 1013 890 996 q 869 1042 879 1029 q 845 1062 859 1055 q 814 1069 831 1069 q 783 1061 797 1069 q 760 1041 769 1054 q 745 1011 750 1028 q 739 977 739 995 q 745 939 739 956 q 761 908 751 921 q 785 887 771 895 q 814 879 798 879 q 846 887 831 879 q 870 909 860 895 q 885 940 880 922 q 890 977 890 958 m 890 242 q 885 279 890 261 q 870 310 880 296 q 846 332 860 323 q 814 340 831 340 q 785 332 798 340 q 761 311 771 324 q 745 280 751 298 q 739 242 739 262 q 745 207 739 224 q 760 178 750 191 q 783 157 769 165 q 814 150 797 150 q 845 157 831 150 q 869 177 859 164 q 885 206 879 189 q 890 242 890 223 m 2035 741 l 1849 741 l 1849 0 l 1653 0 l 1653 741 l 1442 741 l 1442 0 l 1246 0 l 1246 895 l 2035 895 l 2035 741 z "},"ௌ":{"ha":2783,"x_min":81,"x_max":2715,"o":"m 1132 0 l 936 0 l 936 720 q 911 876 936 810 q 843 986 886 942 q 741 1051 800 1029 q 614 1072 682 1072 q 476 1039 537 1072 q 372 947 415 1006 q 307 810 330 889 q 284 638 284 730 q 290 543 284 591 q 304 452 295 495 q 327 375 314 410 q 353 320 339 340 q 389 386 365 355 q 444 440 412 417 q 513 475 475 463 q 590 488 551 488 q 702 466 654 488 q 782 407 750 444 q 829 322 813 370 q 844 225 844 275 q 828 142 844 185 q 779 64 812 100 q 696 7 746 29 q 581 -16 647 -16 q 416 13 489 -16 q 288 90 343 41 q 193 204 233 139 q 129 344 154 270 q 93 496 104 418 q 81 650 81 575 q 96 788 81 718 q 139 922 110 857 q 212 1042 168 986 q 316 1141 256 1099 q 450 1207 375 1183 q 615 1231 524 1231 q 1002 1102 873 1231 q 1132 724 1132 974 l 1132 0 m 665 235 q 658 272 665 254 q 641 302 652 289 q 614 322 629 315 q 582 330 599 330 q 551 322 566 330 q 525 302 536 315 q 507 273 513 290 q 500 235 500 256 q 506 200 500 217 q 524 171 513 184 q 549 151 534 158 q 582 143 564 143 q 613 150 598 143 q 640 170 628 157 q 658 199 651 182 q 665 235 665 216 m 2715 895 l 2715 741 l 2565 741 l 2565 0 l 2372 0 l 2372 741 l 2350 741 q 2214 678 2260 741 q 2169 490 2169 616 l 2169 0 l 1973 0 l 1973 503 q 1956 612 1973 565 q 1907 689 1939 659 q 1830 736 1875 720 q 1728 751 1784 751 q 1632 732 1674 751 q 1560 680 1590 713 q 1511 604 1530 648 q 1485 511 1493 560 q 1501 513 1491 512 q 1523 514 1512 514 q 1546 515 1535 515 q 1563 515 1556 515 q 1685 490 1634 515 q 1768 426 1736 465 q 1815 340 1801 387 q 1830 248 1830 292 q 1812 151 1830 198 q 1761 66 1794 104 q 1680 7 1727 29 q 1573 -16 1632 -16 q 1450 14 1504 -16 q 1358 97 1396 44 q 1299 222 1320 150 q 1279 379 1279 294 q 1290 507 1279 443 q 1325 630 1301 571 q 1385 740 1349 689 q 1473 829 1422 791 q 1591 888 1525 867 q 1739 910 1657 910 q 1854 900 1803 910 q 1945 874 1904 890 q 2017 838 1985 859 q 2077 796 2049 817 q 2192 870 2123 844 q 2348 895 2261 895 l 2715 895 m 1482 340 q 1487 272 1483 307 q 1501 209 1491 237 q 1529 161 1511 180 q 1575 143 1546 143 q 1608 152 1594 143 q 1632 176 1622 161 q 1646 209 1641 191 q 1651 245 1651 227 q 1647 280 1651 260 q 1634 316 1644 299 q 1606 345 1624 333 q 1558 357 1588 357 q 1517 353 1537 357 q 1482 340 1497 349 z "},"்":{"ha":0,"x_min":-352,"x_max":-132,"o":"m -352 1121 q -343 1163 -352 1143 q -319 1198 -334 1183 q -284 1222 -304 1213 q -242 1231 -264 1231 q -200 1222 -220 1231 q -165 1198 -180 1213 q -141 1163 -150 1183 q -132 1121 -132 1143 q -141 1078 -132 1098 q -164 1043 -149 1058 q -199 1020 -179 1028 q -242 1011 -219 1011 q -285 1020 -265 1011 q -320 1044 -305 1029 q -343 1079 -335 1059 q -352 1121 -352 1099 z "},"ௗ":{"ha":1586,"x_min":81,"x_max":1518,"o":"m 1518 895 l 1518 741 l 1367 741 l 1367 0 l 1175 0 l 1175 741 l 1152 741 q 1017 678 1062 741 q 971 490 971 616 l 971 0 l 775 0 l 775 503 q 758 612 775 565 q 709 689 741 659 q 632 736 677 720 q 530 751 587 751 q 435 732 477 751 q 362 680 393 713 q 314 604 332 648 q 288 511 295 560 q 303 513 293 512 q 326 514 314 514 q 348 515 337 515 q 365 515 359 515 q 488 490 437 515 q 571 426 538 465 q 618 340 603 387 q 633 248 633 292 q 615 151 633 198 q 563 66 597 104 q 482 7 530 29 q 375 -16 435 -16 q 252 14 307 -16 q 160 97 198 44 q 102 222 122 150 q 81 379 81 294 q 93 507 81 443 q 127 630 104 571 q 188 740 151 689 q 276 829 224 791 q 393 888 327 867 q 541 910 459 910 q 656 900 606 910 q 747 874 707 890 q 820 838 787 859 q 880 796 852 817 q 994 870 925 844 q 1150 895 1063 895 l 1518 895 m 285 340 q 289 272 286 307 q 303 209 293 237 q 331 161 313 180 q 377 143 349 143 q 410 152 396 143 q 434 176 425 161 q 448 209 444 191 q 453 245 453 227 q 450 280 453 260 q 436 316 446 299 q 408 345 426 333 q 361 357 390 357 q 320 353 340 357 q 285 340 300 349 z "},"௧":{"ha":1232,"x_min":81,"x_max":1150,"o":"m 974 895 l 974 741 l 794 741 l 794 563 l 833 563 q 951 545 894 563 q 1052 495 1008 528 q 1123 414 1097 462 q 1150 307 1150 366 q 1127 182 1150 239 q 1062 84 1105 125 q 960 17 1020 42 q 827 -14 901 -9 l 827 144 q 917 195 886 153 q 947 296 947 237 q 907 380 947 353 q 794 407 867 407 l 794 366 q 790 285 794 328 q 773 200 786 242 q 737 118 760 157 q 674 50 713 79 q 578 2 635 20 q 441 -16 521 -16 q 346 -1 392 -16 q 260 40 300 14 q 188 100 220 66 q 131 172 155 134 q 94 249 107 210 q 81 326 81 289 q 90 399 81 363 q 118 463 99 434 q 169 512 138 491 q 245 541 201 532 l 245 895 l 974 895 m 598 563 l 598 741 l 441 741 l 441 563 l 598 563 m 598 408 l 369 408 q 337 405 353 408 q 311 391 322 401 q 292 366 299 382 q 285 326 285 351 q 299 264 285 296 q 337 205 314 232 q 390 160 361 178 q 448 143 418 143 q 519 159 490 143 q 566 202 548 175 q 591 267 583 230 q 598 346 598 304 l 598 408 z "},"௨":{"ha":1356,"x_min":81,"x_max":1288,"o":"m 1288 0 l 363 0 q 241 10 292 0 q 160 40 191 20 q 115 89 129 60 q 100 159 100 119 q 112 212 100 187 q 146 258 124 237 q 198 295 168 279 q 265 324 229 312 l 499 399 q 566 431 540 412 q 607 475 592 451 q 629 528 623 500 q 635 585 635 556 q 614 662 635 631 q 563 713 593 694 q 497 742 532 733 q 432 751 462 751 q 416 751 427 751 q 394 750 406 751 q 372 750 382 750 q 357 749 362 749 q 399 726 379 741 q 433 689 418 711 q 457 639 448 667 q 466 577 466 611 q 452 510 466 541 q 412 454 437 478 q 350 417 386 431 q 269 404 313 404 q 193 419 228 404 q 134 460 159 434 q 95 520 109 486 q 81 591 81 554 q 109 714 81 656 q 183 815 136 772 q 294 885 230 859 q 430 910 357 910 q 602 884 526 910 q 730 814 677 859 q 810 711 783 770 q 838 585 838 652 q 822 478 838 528 q 774 386 806 427 q 692 313 741 345 q 574 264 642 282 l 416 222 q 369 211 391 216 q 331 201 347 206 q 306 191 315 197 q 296 178 296 186 q 298 166 296 171 q 305 159 300 162 q 321 156 311 157 q 351 155 332 155 l 1288 155 l 1288 0 m 317 596 q 312 617 317 608 q 301 633 308 627 q 287 643 295 640 q 273 647 279 647 q 259 644 267 647 q 245 633 252 640 q 235 617 239 627 q 231 596 231 608 q 235 574 231 584 q 245 558 239 565 q 259 549 252 552 q 273 546 267 546 q 288 549 280 546 q 302 559 296 553 q 313 574 309 565 q 317 596 317 584 z "},"௩":{"ha":1377,"x_min":109,"x_max":1309,"o":"m 1309 0 l 806 0 l 806 155 q 869 166 841 155 q 916 196 897 177 q 945 242 935 216 q 955 301 955 269 q 946 361 955 332 q 919 411 937 389 q 878 446 902 433 q 825 458 854 458 q 746 443 778 458 q 690 404 713 428 l 690 0 l 494 0 l 494 741 l 304 741 l 304 0 l 109 0 l 109 895 l 941 895 l 941 741 l 690 741 l 690 592 q 757 612 719 606 q 829 617 795 617 q 970 592 909 617 q 1073 526 1031 568 q 1137 432 1115 485 q 1158 322 1158 379 q 1147 234 1158 276 q 1114 155 1136 191 l 1309 155 l 1309 0 z "},"௪":{"ha":1277,"x_min":81,"x_max":1194,"o":"m 998 895 l 1194 895 l 1194 449 l 794 449 l 794 342 q 788 262 794 304 q 767 181 782 221 q 726 106 751 142 q 661 43 700 71 q 567 0 621 16 q 441 -16 513 -16 q 349 -1 394 -16 q 264 40 304 14 q 190 100 224 66 q 133 172 157 134 q 95 249 109 210 q 81 326 81 289 q 90 396 81 359 q 117 468 98 433 q 167 533 136 503 q 245 585 199 564 l 245 895 l 892 895 l 892 741 l 794 741 l 794 604 l 998 604 l 998 895 m 598 449 l 448 449 q 373 439 404 449 q 322 412 342 429 q 294 373 302 395 q 285 326 285 351 q 299 264 285 296 q 337 205 314 232 q 390 160 361 178 q 448 143 418 143 q 519 159 490 143 q 566 202 548 175 q 591 267 583 230 q 598 346 598 304 l 598 449 m 598 604 l 598 741 l 441 741 l 441 604 l 598 604 z "},"௫":{"ha":1733,"x_min":81,"x_max":1651,"o":"m 1199 895 l 1199 741 l 1122 741 l 1122 493 q 1182 509 1149 503 q 1245 515 1215 515 q 1377 489 1320 515 q 1472 419 1434 463 q 1531 317 1511 376 q 1550 195 1550 259 q 1531 43 1550 117 q 1474 -94 1512 -30 q 1378 -211 1436 -158 q 1243 -301 1320 -263 q 1067 -359 1165 -338 q 852 -380 970 -380 q 660 -356 755 -380 q 479 -286 565 -332 q 321 -172 394 -239 q 195 -16 248 -104 q 112 179 142 72 q 81 410 81 286 q 108 626 81 522 q 184 822 135 730 q 303 988 233 913 q 458 1117 372 1063 q 643 1201 543 1171 q 852 1231 743 1231 q 1072 1206 970 1231 q 1258 1138 1173 1181 q 1409 1034 1342 1095 q 1526 903 1476 974 q 1607 754 1575 833 q 1651 593 1638 675 l 1448 593 q 1404 738 1435 672 q 1331 858 1374 804 q 1232 951 1287 911 q 1116 1018 1177 991 q 987 1059 1054 1045 q 852 1072 920 1072 q 690 1048 766 1072 q 552 981 615 1025 q 439 876 489 937 q 356 740 390 814 q 303 578 321 665 q 285 397 285 492 q 308 214 285 298 q 372 61 332 130 q 467 -61 412 -8 q 585 -149 522 -113 q 716 -203 648 -184 q 852 -221 784 -221 q 1048 -198 958 -221 q 1205 -125 1139 -176 q 1309 6 1272 -75 q 1347 204 1347 87 q 1336 275 1347 245 q 1308 322 1325 304 q 1270 349 1291 340 q 1228 357 1249 357 q 1173 347 1200 357 q 1122 323 1145 336 l 1122 0 l 926 0 l 926 741 l 756 741 l 756 0 l 560 0 l 560 895 l 1199 895 z "},"௬":{"ha":1785,"x_min":81,"x_max":1736,"o":"m 1736 0 l 1278 0 l 1278 155 q 1341 166 1314 155 q 1388 196 1369 177 q 1417 242 1407 216 q 1428 301 1428 269 q 1419 361 1428 332 q 1393 411 1410 389 q 1351 446 1376 433 q 1294 458 1326 458 q 1244 453 1270 458 q 1195 431 1218 447 q 1156 388 1172 416 q 1136 317 1139 360 l 1136 0 l 940 0 l 940 268 q 932 331 940 299 q 908 390 925 363 q 863 432 891 416 q 794 449 835 449 l 794 351 q 789 271 794 313 q 769 189 783 229 q 731 111 755 148 q 667 46 706 74 q 573 1 628 18 q 444 -16 518 -16 q 352 -1 397 -16 q 266 40 307 14 q 192 100 226 66 q 134 172 158 134 q 95 249 109 210 q 81 326 81 289 q 92 402 81 363 q 122 476 102 441 q 173 539 142 511 q 245 584 204 568 l 245 895 l 974 895 l 974 741 l 794 741 l 794 604 l 810 604 q 935 579 876 604 q 1040 510 994 555 q 1158 592 1092 567 q 1302 617 1224 617 q 1443 592 1381 617 q 1546 526 1504 568 q 1609 432 1588 485 q 1631 322 1631 379 q 1620 234 1631 276 q 1587 155 1609 191 l 1736 155 l 1736 0 m 598 449 l 460 449 q 378 439 412 449 q 324 412 345 429 q 294 373 303 395 q 285 326 285 351 q 299 264 285 296 q 337 205 314 232 q 390 160 361 178 q 448 143 418 143 q 519 159 490 143 q 566 202 548 175 q 591 267 583 230 q 598 347 598 304 l 598 449 m 598 604 l 598 741 l 441 741 l 441 604 l 598 604 z "},"௭":{"ha":1171,"x_min":81,"x_max":1103,"o":"m 766 0 l 766 741 l 656 741 q 525 723 584 741 q 420 675 466 706 q 344 603 375 645 q 297 510 313 560 q 315 512 302 511 q 340 514 327 513 q 366 515 353 515 q 385 515 378 515 q 507 490 456 515 q 590 426 558 465 q 637 340 623 387 q 652 248 652 292 q 635 151 652 198 q 585 66 618 104 q 500 7 551 29 q 381 -16 449 -16 q 258 12 313 -16 q 163 88 203 40 q 103 202 124 136 q 81 343 81 268 q 121 557 81 457 q 233 733 160 658 q 411 852 307 808 q 644 895 515 895 l 1103 895 l 1103 741 l 962 741 l 962 0 l 766 0 m 293 340 q 287 312 289 327 q 285 282 285 296 q 292 226 285 252 q 313 182 299 200 q 346 153 327 163 q 390 143 366 143 q 427 152 412 143 q 453 176 443 161 q 468 209 463 191 q 473 245 473 227 q 469 280 473 260 q 456 316 466 299 q 428 345 446 333 q 380 357 410 357 q 334 353 359 357 q 293 340 308 349 z "},"௮":{"ha":1649,"x_min":68,"x_max":1541,"o":"m 1541 895 l 1541 -149 l 1345 -149 l 1345 134 l 1153 134 q 1068 -7 1122 53 q 937 -105 1013 -66 q 763 -164 861 -144 q 550 -183 666 -183 q 452 -177 505 -183 q 345 -157 399 -171 q 242 -122 292 -144 q 153 -69 192 -100 q 91 5 115 -37 q 68 101 68 47 q 86 180 68 145 q 138 239 105 215 q 217 276 171 263 q 317 288 262 288 l 981 288 q 984 310 982 298 q 986 334 985 322 q 988 357 987 347 q 989 372 989 367 q 986 446 989 407 q 976 520 983 485 q 958 585 969 556 q 930 629 946 614 q 931 618 930 625 q 931 606 931 612 q 932 589 932 600 q 915 504 932 547 q 866 426 899 460 q 786 369 834 391 q 675 347 738 347 q 590 360 627 347 q 526 394 553 373 q 479 441 498 414 q 448 497 460 469 q 431 553 436 525 q 425 603 425 581 q 443 697 425 648 q 500 785 460 745 q 604 849 540 824 q 764 875 669 875 q 931 846 853 875 q 1067 757 1009 818 q 1159 600 1125 696 q 1192 368 1192 504 q 1191 324 1192 343 q 1188 288 1190 305 l 1345 288 l 1345 895 l 1541 895 m 924 134 l 326 134 q 293 130 305 134 q 275 120 281 126 q 266 105 268 114 q 264 88 264 97 q 287 42 264 62 q 350 6 309 21 q 447 -17 391 -9 q 572 -24 504 -24 q 792 14 705 -24 q 924 134 879 52 m 752 612 q 748 646 752 629 q 734 677 743 663 q 712 699 726 690 q 682 708 699 708 q 647 700 661 708 q 623 677 632 691 q 609 647 614 664 q 605 612 605 629 q 611 563 605 583 q 626 530 616 543 q 650 512 636 517 q 679 506 663 506 q 704 511 691 506 q 728 527 717 515 q 745 559 739 539 q 752 612 752 580 z "},"௯":{"ha":1845,"x_min":81,"x_max":1764,"o":"m 974 895 l 974 741 l 794 741 l 794 604 l 1038 604 q 1102 645 1065 627 q 1179 673 1139 662 q 1259 690 1219 684 q 1335 695 1299 695 q 1508 668 1429 695 q 1643 590 1586 640 q 1732 471 1700 541 q 1764 319 1764 402 q 1607 -16 1764 142 l 1487 116 q 1560 336 1560 215 q 1545 406 1560 370 q 1500 470 1529 441 q 1433 518 1472 499 q 1347 536 1394 536 q 1333 536 1343 536 q 1311 535 1323 536 q 1287 531 1299 534 q 1270 526 1276 529 q 1351 457 1320 494 q 1398 383 1381 420 q 1421 311 1415 346 q 1427 249 1427 277 q 1410 153 1427 200 q 1359 68 1392 105 q 1276 7 1325 31 q 1161 -16 1226 -16 q 1047 12 1097 -16 q 962 83 997 40 q 908 178 927 127 q 890 278 890 230 q 892 331 890 307 q 898 374 894 354 q 908 412 902 394 q 920 449 913 430 l 794 449 l 794 342 q 788 262 794 304 q 767 181 782 221 q 726 106 751 142 q 661 43 700 71 q 567 0 621 16 q 441 -16 513 -16 q 349 -1 394 -16 q 264 40 304 14 q 190 100 224 66 q 133 172 157 134 q 95 249 109 210 q 81 326 81 289 q 90 396 81 359 q 117 468 98 433 q 167 533 136 503 q 245 585 199 564 l 245 895 l 974 895 m 598 449 l 448 449 q 373 439 404 449 q 322 412 342 429 q 294 373 302 395 q 285 326 285 351 q 299 264 285 296 q 337 205 314 232 q 390 160 361 178 q 448 143 418 143 q 519 159 490 143 q 566 202 548 175 q 591 267 583 230 q 598 346 598 304 l 598 449 m 1119 427 q 1084 366 1099 401 q 1069 285 1069 330 q 1077 233 1069 258 q 1099 188 1085 208 q 1131 155 1113 168 q 1171 143 1149 143 q 1203 153 1189 143 q 1227 180 1217 163 q 1242 221 1237 197 q 1247 271 1247 244 q 1235 327 1247 300 q 1203 375 1222 353 q 1161 410 1184 396 q 1119 427 1139 424 m 598 604 l 598 741 l 441 741 l 441 604 l 598 604 z "},"௰":{"ha":1424,"x_min":81,"x_max":1343,"o":"m 774 869 q 873 902 825 895 q 964 910 921 910 q 1119 877 1050 910 q 1239 789 1189 844 q 1316 660 1289 733 q 1343 505 1343 586 q 1335 372 1343 437 q 1311 249 1328 307 q 1265 143 1293 191 q 1194 59 1236 94 q 1093 4 1151 24 q 959 -16 1035 -16 q 880 -11 914 -16 q 818 2 846 -7 q 766 25 789 12 q 718 58 742 39 q 611 1 669 17 q 492 -16 552 -16 q 361 2 420 -16 q 257 53 302 20 q 178 130 211 85 q 123 228 145 174 q 92 340 102 281 q 81 461 81 399 q 102 607 81 537 q 164 735 123 676 q 266 841 205 795 q 404 916 326 887 l 480 775 q 390 716 427 751 q 330 641 353 682 q 296 553 307 600 q 285 456 285 506 q 298 343 285 399 q 336 242 311 287 q 400 171 362 198 q 489 143 439 143 q 519 146 503 143 q 551 156 536 149 q 581 172 567 162 q 604 193 595 181 q 552 427 552 286 l 748 427 q 765 310 748 362 q 809 220 781 257 q 872 163 836 183 q 947 143 909 143 q 1019 160 989 143 q 1071 204 1050 177 q 1106 266 1093 231 q 1126 336 1119 300 q 1137 404 1134 371 q 1139 461 1139 437 q 1127 570 1139 517 q 1091 663 1114 623 q 1036 728 1068 703 q 965 752 1004 752 q 916 748 944 752 q 852 724 888 743 l 774 869 z "},"௱":{"ha":1348,"x_min":109,"x_max":1280,"o":"m 1280 741 l 1155 741 l 1155 0 l 959 0 l 959 741 l 769 741 l 769 0 l 572 0 l 572 637 q 560 684 572 663 q 527 720 547 705 q 480 744 507 735 q 427 752 454 752 q 374 742 397 752 q 336 716 351 732 q 312 679 320 700 q 304 637 304 659 l 304 0 l 109 0 l 109 617 q 134 740 109 686 q 202 832 160 794 q 298 890 245 870 q 408 910 352 910 q 498 899 457 910 q 572 863 539 888 l 572 895 l 1280 895 l 1280 741 z "},"௲":{"ha":1680,"x_min":81,"x_max":1598,"o":"m 974 741 l 794 741 l 794 563 l 1482 563 l 1482 408 l 1392 408 l 1392 342 q 1485 305 1446 330 q 1549 244 1524 279 q 1587 168 1575 210 q 1598 84 1598 127 q 1578 -33 1598 20 q 1515 -124 1558 -86 q 1408 -182 1473 -161 q 1251 -203 1342 -203 q 1147 -211 1196 -203 q 1062 -234 1099 -218 q 1005 -278 1026 -251 q 983 -347 983 -306 l 787 -347 q 820 -217 787 -271 q 910 -130 852 -163 q 1049 -80 968 -96 q 1225 -64 1129 -64 q 1310 -53 1274 -64 q 1372 -21 1347 -41 q 1410 27 1397 -1 q 1422 87 1422 54 q 1420 106 1422 95 q 1415 130 1419 118 q 1404 154 1411 142 q 1390 175 1398 166 q 1338 83 1370 119 q 1267 24 1306 46 q 1185 -7 1228 2 q 1099 -16 1141 -16 q 1002 -1 1046 -16 q 926 39 958 13 q 876 102 894 65 q 858 185 858 139 q 880 267 858 233 q 936 322 901 300 q 1015 355 971 345 q 1101 365 1058 365 l 1196 365 l 1196 408 l 794 408 l 794 366 q 790 285 794 328 q 773 200 786 242 q 737 118 760 157 q 674 50 713 79 q 578 2 635 20 q 441 -16 521 -16 q 346 -1 392 -16 q 260 40 300 14 q 188 100 220 66 q 131 172 155 134 q 94 249 107 210 q 81 326 81 289 q 90 399 81 363 q 118 463 99 434 q 169 512 138 491 q 245 541 201 532 l 245 895 l 974 895 l 974 741 m 598 408 l 369 408 q 337 405 353 408 q 311 391 322 401 q 292 366 299 382 q 285 326 285 351 q 299 264 285 296 q 337 205 314 232 q 390 160 361 178 q 448 143 418 143 q 519 159 490 143 q 566 202 548 175 q 591 267 583 230 q 598 346 598 304 l 598 408 m 598 563 l 598 741 l 441 741 l 441 563 l 598 563 m 1196 210 l 1101 210 q 1055 205 1072 210 q 1038 184 1038 200 q 1055 155 1038 167 q 1101 143 1072 143 q 1136 147 1119 143 q 1166 159 1153 151 q 1187 179 1179 167 q 1196 210 1196 192 z "},"‌":{"ha":0,"x_min":-24,"x_max":24,"o":"m 24 -186 l -24 -186 l -24 1074 l 24 1074 l 24 -186 z "},"‍":{"ha":0,"x_min":-149,"x_max":149,"o":"m 149 928 l 115 895 l 24 987 l 24 -186 l -24 -186 l -24 987 l -115 895 l -149 928 l -33 1043 l -149 1157 l -115 1190 l 0 1074 l 115 1190 l 149 1157 l 33 1043 l 149 928 z "},"ௐ":{"ha":1643,"x_min":81,"x_max":1562,"o":"m 460 -134 l 460 43 q 448 75 460 64 q 415 86 435 86 q 393 78 403 86 q 376 56 383 70 q 366 23 370 42 q 363 -18 363 4 q 378 -102 363 -65 q 420 -167 394 -139 q 481 -214 446 -195 q 554 -245 515 -233 q 632 -263 592 -258 q 708 -269 672 -269 q 810 -264 763 -269 q 896 -248 857 -260 q 969 -215 936 -236 q 1032 -159 1003 -193 q 1084 -87 1062 -125 q 1124 -14 1105 -49 q 1160 50 1142 20 q 1199 96 1177 79 q 1014 135 1088 104 q 893 211 939 165 q 828 311 848 256 q 808 423 808 367 q 829 539 808 481 q 894 644 850 597 q 1005 720 938 690 q 1165 749 1073 749 l 1208 749 l 1208 600 q 1181 584 1192 595 q 1171 555 1171 572 q 1179 522 1171 535 q 1201 501 1187 509 q 1231 490 1214 493 q 1267 487 1249 487 q 1309 501 1291 487 q 1337 538 1326 515 q 1354 591 1348 561 q 1359 656 1359 622 q 1334 760 1359 714 q 1266 840 1309 806 q 1166 899 1223 875 q 1044 938 1109 923 q 912 960 980 954 q 780 967 844 967 q 676 963 729 967 q 572 949 623 958 q 473 924 521 939 q 386 887 426 909 q 316 837 347 865 q 268 772 286 808 q 303 780 283 777 q 340 783 323 783 q 431 765 390 783 q 502 716 472 747 q 547 645 531 686 q 564 560 564 605 q 547 477 564 516 q 502 408 531 437 q 431 360 473 378 q 340 342 390 342 q 226 365 275 342 q 145 428 177 388 q 97 524 113 469 q 81 645 81 579 q 109 794 81 727 q 184 916 136 862 q 298 1008 232 969 q 441 1074 363 1048 q 605 1113 519 1100 q 780 1126 691 1126 q 983 1111 884 1126 q 1169 1068 1082 1096 q 1328 1000 1256 1040 q 1452 909 1400 960 q 1533 800 1504 859 q 1562 673 1562 740 q 1556 591 1562 632 q 1538 512 1551 550 q 1503 440 1525 473 q 1446 381 1480 406 q 1365 342 1412 357 q 1255 328 1318 328 q 1167 342 1208 328 q 1094 381 1126 356 q 1042 441 1063 406 q 1016 517 1022 475 q 991 476 997 499 q 985 426 985 453 q 1010 336 985 372 q 1076 279 1035 300 q 1170 250 1118 258 q 1276 242 1221 242 l 1398 242 l 1398 87 l 1370 87 q 1332 30 1350 67 q 1294 -53 1315 -7 q 1246 -149 1274 -98 q 1179 -245 1219 -199 q 1095 -322 1142 -288 q 990 -379 1048 -356 q 862 -415 932 -403 q 705 -427 791 -427 q 571 -414 636 -427 q 448 -376 506 -401 q 342 -316 391 -351 q 260 -237 294 -281 q 206 -141 225 -193 q 186 -31 186 -90 q 203 83 186 34 q 252 164 220 132 q 326 212 283 196 q 422 229 369 229 q 487 218 456 229 q 541 184 517 207 q 577 129 564 162 q 591 50 591 95 l 591 -32 l 633 -32 l 633 18 q 640 77 633 47 q 666 131 647 107 q 718 171 685 155 q 804 186 751 186 q 884 171 853 186 q 932 131 915 155 q 957 76 950 106 q 963 14 963 45 l 963 -134 l 460 -134 m 544 318 q 551 354 544 337 q 572 385 559 372 q 602 405 585 397 q 639 412 619 412 q 676 405 659 412 q 706 385 693 397 q 726 355 718 372 q 733 318 733 338 q 726 281 733 298 q 706 251 718 264 q 676 231 693 238 q 639 223 659 223 q 602 231 619 223 q 572 251 585 238 q 551 281 559 264 q 544 318 544 298 m 414 562 q 407 596 414 581 q 389 621 400 610 q 362 636 377 631 q 333 641 348 641 q 302 635 317 641 q 276 620 288 630 q 256 595 264 610 q 249 562 249 581 q 257 532 249 546 q 277 507 264 517 q 304 491 289 496 q 333 485 319 485 q 363 490 348 485 q 389 505 378 495 q 407 530 400 515 q 414 562 414 544 m 762 -32 l 834 -32 l 834 9 q 829 60 834 41 q 804 78 824 78 q 782 74 791 78 q 769 61 774 69 q 764 40 765 52 q 762 12 762 27 l 762 -32 z "},"◌":{"ha":1057,"x_min":68,"x_max":989,"o":"m 926 698 l 836 634 q 719 751 791 707 l 783 841 q 926 698 871 785 m 629 909 l 610 800 q 529 809 571 809 q 446 800 486 809 l 427 909 q 528 920 479 920 q 629 909 578 920 m 989 459 q 978 358 989 410 l 869 377 q 878 458 878 416 q 869 541 878 502 l 978 560 q 989 459 989 509 m 926 220 q 783 77 871 132 l 719 168 q 836 284 791 212 l 926 220 m 338 751 q 222 634 266 707 l 131 698 q 275 841 186 785 l 338 751 m 189 377 l 79 358 q 68 459 68 406 q 79 560 68 512 l 189 541 q 179 458 179 502 q 189 377 179 416 m 629 9 q 528 -2 578 -2 q 427 9 479 -2 l 446 119 q 529 109 486 109 q 610 119 571 109 l 629 9 m 338 168 l 275 77 q 131 220 186 132 l 222 284 q 338 168 266 212 z "},"௳":{"ha":1380,"x_min":81,"x_max":1326,"o":"m 1326 0 l 763 0 l 763 158 q 823 202 798 172 q 862 269 847 232 q 884 346 877 306 q 890 420 890 387 q 866 558 890 496 q 801 662 842 619 q 703 728 759 705 q 585 751 648 751 q 478 732 529 751 q 387 677 427 712 q 321 597 347 643 q 288 498 294 551 q 315 507 298 503 q 348 512 331 510 q 378 515 364 514 q 399 515 393 515 q 522 490 471 515 q 605 426 572 465 q 652 340 637 387 q 667 248 667 292 q 649 151 667 198 q 597 66 631 104 q 516 7 564 29 q 409 -16 469 -16 q 272 20 333 -16 q 169 114 212 55 q 104 252 127 174 q 81 414 81 330 q 97 541 81 479 q 143 658 113 603 q 217 759 174 713 q 315 839 260 806 q 433 891 369 873 q 570 910 498 910 q 788 872 691 910 q 952 768 884 834 q 1057 613 1021 703 q 1094 422 1094 524 q 1089 353 1094 390 q 1075 279 1084 315 q 1050 210 1065 243 q 1015 155 1035 177 l 1326 155 l 1326 0 m 285 340 q 295 272 286 307 q 320 209 304 237 q 359 161 336 180 q 411 143 382 143 q 444 152 430 143 q 468 176 458 161 q 482 209 477 191 q 487 245 487 227 q 483 281 487 260 q 467 319 478 301 q 436 351 456 338 q 388 363 417 363 q 322 356 345 363 q 285 340 300 349 z "},"௴":{"ha":1947,"x_min":109,"x_max":1913,"o":"m 304 895 l 304 155 l 603 155 l 603 566 q 626 720 603 655 q 692 827 649 785 q 798 889 736 869 q 938 909 860 909 q 1044 899 995 909 q 1064 947 1053 924 q 1088 991 1075 970 q 1116 1031 1101 1013 q 1147 1061 1131 1050 q 1147 1089 1147 1073 q 1168 1203 1147 1149 q 1229 1299 1189 1258 q 1327 1365 1269 1341 q 1460 1390 1385 1390 q 1595 1365 1536 1390 q 1695 1298 1654 1341 q 1756 1199 1735 1256 q 1777 1077 1777 1142 q 1769 1005 1777 1040 q 1740 932 1760 969 l 1913 932 l 1913 813 l 1561 813 l 1561 923 q 1595 953 1580 935 q 1619 992 1609 971 q 1634 1035 1629 1013 q 1639 1076 1639 1057 q 1627 1155 1639 1120 q 1591 1215 1614 1190 q 1534 1253 1567 1240 q 1461 1267 1501 1267 q 1390 1257 1421 1267 q 1338 1228 1360 1246 q 1304 1184 1317 1210 q 1286 1129 1291 1159 q 1344 1141 1314 1141 q 1473 1099 1428 1141 q 1518 979 1518 1057 q 1506 913 1518 943 q 1472 864 1494 884 q 1419 831 1449 843 q 1352 820 1388 820 q 1258 846 1298 820 q 1192 916 1218 871 q 1157 854 1166 885 q 1243 783 1206 825 q 1320 645 1295 724 q 1345 475 1345 566 q 1337 357 1345 416 q 1311 246 1328 299 q 1267 148 1293 193 q 1205 70 1240 103 q 1125 19 1170 37 q 1027 0 1081 0 l 109 0 l 109 895 l 304 895 m 799 155 l 962 155 q 1048 183 1013 155 q 1103 257 1082 212 q 1133 357 1124 302 q 1142 468 1142 413 q 1095 682 1142 613 q 949 751 1048 751 q 879 741 907 751 q 832 710 850 730 q 807 664 814 691 q 799 606 799 637 l 799 155 m 1391 976 q 1380 1017 1391 1004 q 1346 1029 1369 1029 q 1313 1022 1326 1029 q 1288 998 1299 1014 q 1310 951 1293 970 q 1352 932 1328 932 q 1379 946 1367 932 q 1391 976 1391 960 z "},"௵":{"ha":3024,"x_min":54,"x_max":2970,"o":"m 1013 158 q 1061 202 1041 172 q 1094 269 1081 232 q 1114 346 1107 306 q 1120 420 1120 387 q 1100 558 1120 496 q 1044 662 1080 619 q 956 728 1008 705 q 842 751 905 751 q 740 732 786 751 q 658 677 693 712 q 601 597 623 643 q 572 498 578 551 q 599 507 583 503 q 632 512 615 510 q 663 515 648 514 q 683 515 677 515 q 806 490 755 515 q 889 426 857 465 q 936 340 921 387 q 951 248 951 292 q 933 151 951 198 q 881 66 915 104 q 800 7 848 29 q 693 -16 753 -16 q 556 20 617 -16 q 453 114 496 55 q 388 252 411 174 q 366 414 366 330 q 397 601 366 511 q 488 759 428 690 q 633 869 547 828 q 827 910 718 910 q 1041 872 948 910 q 1196 768 1133 834 q 1292 613 1259 703 q 1324 422 1324 524 q 1319 353 1324 390 q 1304 279 1314 315 q 1280 210 1295 243 q 1244 155 1265 177 l 1431 155 l 1431 895 l 2081 895 l 2081 741 l 1993 741 l 1993 457 q 2044 470 2018 465 q 2096 475 2070 475 q 2228 453 2171 475 q 2323 393 2285 431 q 2381 302 2361 355 q 2401 187 2401 250 q 2362 -53 2401 59 q 2250 -257 2323 -164 q 2072 -424 2177 -351 q 1836 -548 1967 -497 q 1550 -625 1705 -598 q 1219 -651 1394 -651 q 891 -615 1045 -651 q 607 -513 736 -580 q 375 -350 477 -446 q 201 -131 273 -253 q 92 136 130 -9 q 54 446 54 281 q 100 740 54 602 q 226 993 145 878 q 420 1200 307 1108 q 666 1355 532 1291 q 951 1452 800 1419 q 1259 1486 1101 1486 q 1582 1461 1439 1486 q 1837 1395 1725 1437 q 2035 1296 1949 1352 q 2186 1175 2121 1239 q 2302 1043 2252 1111 q 2391 909 2351 975 q 2467 777 2434 840 q 2528 666 2500 713 q 2583 591 2557 618 q 2639 563 2610 563 q 2695 578 2670 563 q 2738 621 2720 593 q 2766 689 2756 649 q 2776 781 2776 730 q 2762 891 2776 842 q 2718 977 2747 941 q 2644 1035 2688 1013 q 2539 1063 2599 1057 l 2539 1231 q 2722 1191 2641 1223 q 2857 1100 2802 1158 q 2941 958 2912 1042 q 2970 766 2970 875 q 2945 621 2970 689 q 2878 503 2921 553 q 2777 424 2835 452 q 2650 395 2718 395 q 2550 412 2594 395 q 2469 460 2506 429 q 2402 533 2433 491 q 2341 625 2371 575 q 2281 729 2311 674 q 2216 841 2251 785 q 2133 960 2178 901 q 2030 1073 2088 1019 q 1900 1174 1973 1127 q 1735 1254 1828 1220 q 1527 1308 1642 1289 q 1269 1327 1411 1327 q 995 1300 1125 1327 q 752 1221 864 1273 q 548 1093 640 1169 q 392 919 457 1017 q 293 702 328 821 q 258 446 258 583 q 292 174 258 300 q 390 -56 327 48 q 541 -242 453 -161 q 735 -378 629 -323 q 964 -463 842 -434 q 1217 -492 1086 -492 q 1392 -484 1304 -492 q 1566 -458 1480 -476 q 1731 -413 1651 -441 q 1881 -347 1811 -386 q 2009 -257 1951 -308 q 2109 -141 2068 -205 q 2174 3 2151 -76 q 2197 176 2197 82 q 2187 245 2197 218 q 2162 288 2178 272 q 2126 310 2146 304 q 2085 316 2106 316 q 2038 309 2061 316 q 1993 290 2014 301 l 1993 0 l 1797 0 l 1797 741 l 1627 741 l 1627 0 l 1013 0 l 1013 158 m 569 340 q 579 272 570 307 q 604 209 588 237 q 644 161 621 180 q 695 143 667 143 q 728 152 714 143 q 752 176 743 161 q 766 209 762 191 q 771 245 771 227 q 767 281 771 260 q 751 319 762 301 q 721 351 740 338 q 672 363 701 363 q 607 356 629 363 q 569 340 584 349 z "},"௶":{"ha":1345,"x_min":54,"x_max":1237,"o":"m 1237 895 l 1237 -250 l 805 -250 q 754 -365 789 -309 q 664 -466 719 -422 q 534 -536 610 -509 q 361 -563 458 -563 q 235 -543 292 -563 q 138 -491 178 -524 q 76 -414 98 -458 q 54 -321 54 -370 q 85 -210 54 -254 q 166 -141 117 -166 q 279 -105 216 -115 q 404 -95 341 -95 l 614 -95 l 614 26 q 564 -4 595 8 q 496 -16 532 -16 q 369 3 426 -16 q 271 58 311 22 q 209 149 231 95 q 186 274 186 203 l 186 895 l 382 895 l 382 272 q 394 212 382 236 q 423 173 406 188 q 461 152 441 159 q 498 146 481 146 q 537 152 517 146 q 574 169 557 157 q 603 198 591 180 q 614 237 614 215 l 614 895 l 810 895 l 810 -95 l 1041 -95 l 1041 895 l 1237 895 m 606 -250 l 372 -250 q 306 -256 330 -250 q 270 -273 282 -262 q 254 -297 257 -283 q 250 -328 250 -311 q 259 -354 250 -340 q 282 -379 267 -368 q 319 -397 298 -390 q 367 -404 340 -404 q 459 -390 419 -404 q 528 -354 499 -376 q 576 -304 557 -332 q 606 -250 595 -277 z "},"௷":{"ha":1905,"x_min":81,"x_max":1941,"o":"m 1498 107 q 1535 133 1520 115 q 1559 173 1550 151 q 1572 218 1568 195 q 1576 262 1576 242 q 1562 342 1576 307 q 1523 404 1548 378 q 1466 443 1499 429 q 1396 456 1433 456 q 1337 446 1365 456 q 1285 417 1308 435 q 1247 373 1263 398 q 1225 319 1231 348 q 1242 322 1233 321 q 1259 325 1251 324 q 1274 326 1267 326 q 1284 326 1281 326 q 1362 310 1330 326 q 1414 270 1394 294 q 1443 215 1434 245 q 1453 157 1453 185 q 1441 96 1453 125 q 1409 42 1430 66 q 1357 5 1388 19 q 1290 -9 1327 -9 q 1204 13 1242 -9 q 1139 72 1166 35 q 1099 157 1113 109 q 1093 178 1095 167 q 1045 162 1067 170 q 1003 143 1023 153 l 1003 0 l 807 0 l 807 741 l 656 741 q 525 723 584 741 q 420 675 466 706 q 344 603 375 645 q 297 510 313 560 q 340 514 327 513 q 366 515 353 515 q 385 515 378 515 q 507 490 456 515 q 590 426 558 465 q 637 340 623 387 q 652 248 652 292 q 635 151 652 198 q 585 66 618 104 q 500 7 551 29 q 381 -16 449 -16 q 258 12 313 -16 q 163 88 203 40 q 103 202 124 136 q 81 343 81 268 q 121 557 81 457 q 233 733 160 658 q 411 852 307 808 q 644 895 515 895 l 1238 895 l 1238 741 l 1003 741 l 1003 256 q 1055 277 1026 267 q 1086 287 1069 282 q 1106 374 1090 332 q 1168 472 1128 429 q 1264 541 1208 515 q 1388 566 1320 566 q 1522 543 1462 566 q 1625 478 1582 519 q 1690 382 1667 437 q 1712 263 1712 327 q 1710 224 1712 245 q 1703 182 1708 203 q 1690 141 1697 161 q 1672 107 1683 122 l 1809 107 l 1809 557 l 1941 557 l 1941 0 l 1498 0 l 1498 107 m 293 340 q 287 312 289 327 q 285 282 285 296 q 292 226 285 252 q 313 182 299 200 q 346 153 327 163 q 390 143 366 143 q 427 152 412 143 q 453 176 443 161 q 468 209 463 191 q 473 245 473 227 q 469 280 473 260 q 456 316 466 299 q 428 345 446 333 q 380 357 410 357 q 334 353 359 357 q 293 340 308 349 m 1278 220 q 1242 217 1255 220 q 1221 210 1229 214 q 1227 171 1221 191 q 1241 136 1232 152 q 1263 110 1251 120 q 1291 100 1276 100 q 1308 105 1301 100 q 1321 118 1316 111 q 1328 136 1326 126 q 1331 155 1331 146 q 1328 175 1331 164 q 1320 197 1326 186 q 1303 214 1314 207 q 1278 220 1293 220 z "},"௸":{"ha":2817,"x_min":81,"x_max":2749,"o":"m 2723 0 l 2405 0 l 1954 -368 l 1840 -252 l 2135 0 l 1578 0 l 1578 158 q 1638 202 1613 172 q 1677 269 1662 232 q 1699 346 1692 306 q 1706 420 1706 387 q 1687 539 1706 482 q 1633 640 1668 595 q 1546 713 1597 684 q 1428 750 1494 743 q 1473 575 1457 669 q 1489 372 1489 481 q 1485 297 1489 339 q 1470 213 1480 256 q 1439 129 1459 170 q 1389 56 1420 87 q 1314 4 1358 24 q 1211 -16 1270 -16 q 1076 20 1135 -16 q 978 114 1017 55 q 917 252 938 174 q 897 414 897 330 q 912 547 897 487 q 953 654 928 606 q 1009 738 978 702 q 1071 800 1040 774 q 1129 842 1102 826 q 1175 863 1157 857 q 988 1020 1098 968 q 745 1072 878 1072 q 561 1041 646 1072 q 415 951 476 1010 q 319 806 353 892 q 284 611 284 720 q 288 527 284 568 q 300 452 292 487 q 317 390 307 418 q 339 345 327 363 q 377 402 353 376 q 430 448 400 429 q 493 478 459 467 q 563 488 528 488 q 675 466 627 488 q 754 407 723 444 q 802 322 786 370 q 817 225 817 275 q 801 142 817 185 q 752 64 785 100 q 669 7 719 29 q 554 -16 620 -16 q 402 11 470 -16 q 281 82 334 37 q 191 188 229 127 q 129 320 153 250 q 93 466 104 390 q 81 616 81 542 q 99 769 81 694 q 154 913 117 844 q 244 1039 190 981 q 372 1140 299 1097 q 536 1207 445 1183 q 737 1231 627 1231 q 914 1211 827 1231 q 1080 1152 1001 1192 q 1228 1052 1160 1112 q 1350 909 1297 991 q 1367 910 1358 909 q 1385 910 1376 910 q 1521 895 1455 910 q 1646 849 1588 879 q 1752 778 1704 820 q 1835 681 1801 735 q 1890 562 1870 627 q 1909 422 1909 496 q 1904 353 1909 390 q 1890 279 1900 315 q 1865 210 1880 243 q 1830 155 1850 177 l 2251 155 q 2167 252 2209 203 q 2093 352 2126 300 q 2039 457 2060 403 q 2019 572 2019 512 q 2045 703 2019 641 q 2118 810 2071 764 q 2227 883 2164 857 q 2366 910 2291 910 q 2534 883 2462 910 q 2653 807 2606 855 q 2725 692 2701 758 q 2749 548 2749 625 q 2743 474 2749 515 q 2718 384 2737 433 q 2663 277 2698 335 q 2569 155 2628 220 l 2723 155 l 2723 0 m 2414 252 q 2487 341 2459 300 q 2529 419 2514 382 q 2548 492 2543 457 q 2553 564 2553 528 q 2539 639 2553 604 q 2502 698 2525 673 q 2446 737 2478 723 q 2380 751 2415 751 q 2320 738 2349 751 q 2267 700 2290 724 q 2229 644 2243 675 q 2215 577 2215 612 q 2266 436 2215 519 q 2414 252 2317 352 m 1251 720 q 1180 663 1210 697 q 1130 587 1149 629 q 1102 499 1111 545 q 1093 406 1093 452 q 1101 301 1093 349 q 1124 218 1109 253 q 1162 163 1139 183 q 1213 143 1184 143 q 1244 157 1230 143 q 1269 191 1259 170 q 1287 238 1280 212 q 1300 290 1295 264 q 1307 336 1305 315 q 1309 370 1309 357 q 1294 560 1309 473 q 1251 720 1280 647 m 637 235 q 631 272 637 254 q 613 302 625 289 q 587 322 602 315 q 555 330 572 330 q 524 322 538 330 q 498 302 509 315 q 479 273 486 290 q 473 235 473 256 q 479 200 473 217 q 496 171 486 184 q 522 151 507 158 q 555 143 537 143 q 586 150 571 143 q 612 170 601 157 q 631 199 624 182 q 637 235 637 216 z "},"௹":{"ha":1657,"x_min":81,"x_max":1576,"o":"m 1188 974 l 897 974 l 897 1081 q 933 1107 918 1089 q 957 1147 948 1125 q 970 1192 966 1168 q 975 1236 975 1216 q 960 1316 975 1280 q 922 1378 946 1352 q 864 1417 897 1403 q 795 1430 831 1430 q 735 1420 764 1430 q 684 1391 707 1409 q 645 1347 661 1372 q 623 1293 629 1322 q 640 1296 631 1295 q 657 1299 649 1298 q 673 1300 666 1299 q 683 1300 680 1300 q 760 1284 728 1300 q 812 1243 792 1268 q 842 1189 833 1219 q 851 1131 851 1159 q 840 1069 851 1099 q 807 1016 829 1040 q 756 979 786 993 q 688 964 726 964 q 602 986 640 964 q 538 1045 564 1008 q 504 1110 517 1074 q 413 1023 451 1074 q 336 874 365 958 q 296 691 308 791 q 285 481 285 591 q 324 179 285 310 q 439 -41 363 47 q 626 -175 515 -130 q 879 -220 736 -220 q 1049 -203 975 -220 q 1179 -154 1124 -186 q 1271 -78 1234 -123 q 1330 20 1308 -34 q 1363 137 1353 75 q 1373 268 1373 200 q 1363 340 1373 309 q 1337 392 1353 372 q 1302 422 1322 412 q 1261 433 1282 433 q 1213 425 1236 433 q 1168 407 1190 418 l 1168 0 l 972 0 l 972 741 l 802 741 l 802 0 l 606 0 l 606 895 l 1354 895 l 1354 741 l 1168 741 l 1168 574 q 1219 587 1193 582 q 1272 591 1246 591 q 1403 566 1346 591 q 1498 497 1460 541 q 1556 398 1537 454 q 1576 279 1576 341 q 1530 1 1576 123 q 1395 -206 1484 -121 q 1177 -335 1307 -290 q 881 -380 1048 -380 q 617 -348 734 -380 q 412 -257 500 -315 q 260 -119 323 -199 q 158 56 197 -39 q 100 260 118 152 q 81 481 81 368 q 92 635 81 557 q 125 788 103 713 q 183 934 148 863 q 266 1066 218 1004 q 376 1180 314 1128 q 484 1253 425 1221 q 505 1348 487 1301 q 567 1446 527 1403 q 663 1514 607 1489 q 786 1540 719 1540 q 921 1517 861 1540 q 1023 1452 981 1493 q 1088 1356 1065 1411 q 1111 1237 1111 1301 q 1108 1198 1111 1219 q 1101 1156 1106 1177 q 1088 1115 1096 1135 q 1071 1081 1081 1096 l 1188 1081 l 1188 974 m 676 1194 q 641 1191 654 1194 q 619 1183 627 1187 q 625 1145 620 1164 q 640 1110 631 1126 q 662 1084 649 1094 q 690 1074 674 1074 q 707 1079 699 1074 q 719 1092 714 1084 q 727 1110 724 1100 q 729 1129 729 1120 q 727 1149 729 1138 q 718 1171 724 1160 q 702 1187 712 1181 q 676 1194 692 1194 z "},"௺":{"ha":1472,"x_min":27,"x_max":1458,"o":"m 1458 820 l 1166 820 l 1166 927 q 1203 953 1188 935 q 1227 993 1218 971 q 1240 1038 1236 1015 q 1244 1082 1244 1062 q 1230 1162 1244 1126 q 1192 1224 1216 1198 q 1134 1263 1167 1249 q 1065 1276 1101 1276 q 1005 1266 1034 1276 q 954 1237 977 1255 q 915 1193 931 1218 q 893 1139 899 1168 q 910 1142 901 1141 q 927 1145 919 1144 q 943 1146 936 1145 q 953 1146 949 1146 q 1030 1130 998 1146 q 1082 1089 1062 1114 q 1112 1035 1103 1065 q 1121 977 1121 1005 q 1110 916 1121 945 q 1077 862 1099 886 q 1026 825 1056 839 q 958 810 996 810 q 872 832 910 810 q 808 891 834 854 q 770 967 784 924 q 742 933 754 951 q 722 895 729 915 l 766 895 l 766 741 l 690 741 l 690 559 q 735 574 709 569 q 790 580 762 580 q 923 556 867 580 q 1017 490 980 532 q 1072 389 1054 448 q 1090 260 1090 330 q 1083 143 1090 203 q 1058 26 1076 83 q 1011 -81 1040 -31 q 939 -169 982 -131 q 837 -228 896 -206 q 703 -250 779 -250 l 351 -250 q 284 -264 309 -250 q 245 -302 259 -279 q 228 -353 232 -325 q 223 -407 223 -380 l 27 -407 q 46 -270 27 -329 q 105 -173 64 -212 q 211 -114 146 -134 q 368 -95 275 -95 l 703 -95 q 800 -66 764 -95 q 856 9 836 -38 q 881 116 875 56 q 887 239 887 176 q 881 312 887 279 q 862 370 875 345 q 829 408 849 394 q 779 421 808 421 q 752 417 767 421 q 723 402 736 413 q 700 373 709 391 q 690 328 690 355 l 690 0 l 494 0 l 494 741 l 304 741 l 304 0 l 109 0 l 109 895 l 614 895 q 627 928 619 911 q 663 988 641 958 q 718 1050 686 1019 q 753 1078 734 1065 q 775 1194 753 1138 q 837 1292 797 1249 q 933 1360 877 1335 q 1056 1386 989 1386 q 1191 1363 1131 1386 q 1293 1298 1251 1339 q 1358 1202 1335 1257 q 1381 1083 1381 1147 q 1378 1044 1381 1065 q 1371 1002 1376 1023 q 1358 961 1366 981 q 1341 927 1351 942 l 1458 927 l 1458 820 m 946 1040 q 910 1037 924 1040 q 889 1029 897 1034 q 895 991 890 1010 q 910 956 901 972 q 931 930 919 940 q 960 920 944 920 q 977 925 969 920 q 989 938 984 930 q 997 956 994 946 q 999 975 999 966 q 997 995 999 984 q 988 1017 994 1006 q 972 1034 982 1027 q 946 1040 962 1040 z "}," ":{"ha":698,"x_min":0,"x_max":0,"o":""},"!":{"ha":347,"x_min":88,"x_max":258,"o":"m 258 0 l 88 0 l 88 167 l 258 167 l 258 0 m 247 671 l 227 205 l 121 205 l 100 671 l 100 895 l 247 895 l 247 671 z "},"\"":{"ha":487,"x_min":39,"x_max":448,"o":"m 448 735 l 420 551 l 311 551 l 279 734 l 279 895 l 448 895 l 448 735 m 208 735 l 179 551 l 71 551 l 39 734 l 39 895 l 208 895 l 208 735 z "},"#":{"ha":696,"x_min":14,"x_max":682,"o":"m 682 533 l 566 533 l 534 372 l 635 372 l 635 236 l 507 236 l 460 0 l 320 0 l 366 236 l 243 236 l 196 0 l 56 0 l 102 236 l 14 236 l 14 372 l 130 372 l 161 533 l 60 533 l 60 668 l 189 668 l 235 895 l 375 895 l 329 668 l 453 668 l 500 895 l 639 895 l 593 668 l 682 668 l 682 533 m 426 533 l 302 533 l 270 372 l 393 372 l 426 533 z "},"$":{"ha":696,"x_min":47,"x_max":648,"o":"m 410 516 q 523 479 479 500 q 591 429 566 458 q 648 263 648 365 q 632 167 648 213 q 586 84 616 121 q 511 22 555 47 q 410 -11 467 -3 l 410 -100 l 295 -100 l 295 -11 q 190 20 235 -3 q 115 80 145 43 q 69 168 85 117 q 47 285 52 219 l 211 285 q 238 185 216 222 q 295 132 259 147 l 295 391 q 67 633 67 445 q 83 729 67 686 q 129 805 100 772 q 201 858 159 837 q 295 886 243 878 l 295 975 l 410 975 l 410 887 q 632 633 608 859 l 466 633 q 410 744 460 722 l 410 516 m 295 745 q 231 642 231 720 q 248 579 231 601 q 295 544 264 557 l 295 745 m 410 130 q 484 256 484 156 q 481 294 484 277 q 470 322 478 310 q 447 344 462 335 q 410 361 433 353 l 410 130 z "},"%":{"ha":1112,"x_min":41,"x_max":1072,"o":"m 254 910 q 340 893 300 910 q 408 845 379 877 q 453 768 437 814 q 469 666 469 723 q 453 564 469 609 q 409 487 437 519 q 341 439 380 456 q 254 422 301 422 q 168 438 207 422 q 100 487 128 455 q 56 564 72 518 q 41 666 41 609 q 57 769 41 724 q 101 845 73 814 q 169 893 130 877 q 254 910 208 910 m 254 543 q 325 666 325 543 q 254 789 325 789 q 184 666 184 789 q 254 543 184 543 m 876 895 l 388 0 l 244 0 l 733 895 l 876 895 m 857 474 q 943 457 904 474 q 1011 408 983 439 q 1056 331 1040 376 q 1072 230 1072 286 q 1056 127 1072 173 q 1011 50 1040 82 q 943 1 983 18 q 857 -16 904 -16 q 770 1 810 -16 q 703 50 731 18 q 659 127 675 81 q 644 230 644 172 q 660 332 644 287 q 704 409 675 377 q 771 457 732 440 q 857 474 810 474 m 857 105 q 928 230 928 105 q 857 353 928 353 q 787 230 787 353 q 857 105 787 105 z "},"&":{"ha":834,"x_min":56,"x_max":779,"o":"m 779 76 l 656 -28 l 585 63 q 343 -16 486 -16 q 228 7 281 -16 q 137 67 176 29 q 77 154 99 104 q 56 259 56 204 q 109 422 56 357 q 162 475 131 449 q 235 526 193 500 q 178 622 196 580 q 159 700 159 664 q 177 783 159 745 q 225 850 194 821 q 298 894 256 878 q 391 910 340 910 q 477 895 437 910 q 546 851 517 879 q 592 787 576 824 q 609 709 609 751 q 600 647 609 675 q 572 592 591 618 q 526 542 554 566 q 460 494 498 518 q 491 456 477 473 q 516 425 504 440 q 542 393 528 410 q 574 352 555 376 q 583 402 580 375 q 588 460 587 429 l 752 460 q 742 349 752 422 q 690 189 732 275 l 779 76 m 374 602 q 433 650 414 626 q 452 706 452 673 q 446 734 452 721 q 432 756 441 747 q 410 770 422 765 q 385 775 398 775 q 337 758 357 775 q 317 711 317 740 q 329 669 317 693 q 361 618 340 646 l 374 602 m 322 415 q 285 392 301 402 q 254 366 269 381 q 230 331 239 351 q 220 267 220 311 q 229 216 220 241 q 255 172 238 191 q 294 140 271 152 q 345 128 317 128 q 493 180 433 128 l 322 415 z "},"'":{"ha":239,"x_min":35,"x_max":204,"o":"m 204 735 l 176 551 l 67 551 l 35 734 l 35 895 l 204 895 l 204 735 z "},"(":{"ha":416,"x_min":35,"x_max":381,"o":"m 248 -263 q 155 -120 195 -194 q 88 31 115 -45 q 48 182 61 106 q 35 330 35 258 q 48 476 35 402 q 89 623 62 550 q 155 769 115 696 q 248 910 195 841 l 381 910 q 240 611 287 759 q 193 330 193 463 q 205 191 193 264 q 240 43 217 119 q 299 -110 264 -33 q 381 -263 334 -188 l 248 -263 z "},")":{"ha":416,"x_min":35,"x_max":381,"o":"m 35 -263 q 117 -110 81 -188 q 175 43 152 -33 q 211 191 199 119 q 222 330 222 264 q 176 611 222 463 q 35 910 129 759 l 168 910 q 260 769 220 841 q 327 623 300 696 q 368 476 354 550 q 381 330 381 402 q 368 182 381 258 q 328 31 355 106 q 261 -120 301 -45 q 168 -263 221 -194 l 35 -263 z "},"*":{"ha":635,"x_min":87,"x_max":547,"o":"m 547 277 l 434 277 l 519 191 l 456 127 l 371 212 l 371 102 l 262 102 l 262 212 l 178 127 l 113 191 l 199 277 l 87 277 l 87 383 l 199 383 l 113 469 l 178 533 l 262 449 l 262 560 l 371 560 l 371 449 l 456 533 l 519 469 l 434 383 l 547 383 l 547 277 z "},"+":{"ha":730,"x_min":66,"x_max":665,"o":"m 665 359 l 439 359 l 439 134 l 291 134 l 291 359 l 66 359 l 66 505 l 291 505 l 291 730 l 439 730 l 439 505 l 665 505 l 665 359 z "},",":{"ha":347,"x_min":88,"x_max":258,"o":"m 258 26 q 248 -55 258 -17 q 215 -121 237 -92 q 162 -166 194 -149 q 88 -182 130 -182 l 88 -91 q 143 -70 127 -91 q 158 0 158 -50 l 88 0 l 88 167 l 258 167 l 258 26 z "},"-":{"ha":416,"x_min":26,"x_max":390,"o":"m 390 247 l 26 247 l 26 401 l 390 401 l 390 247 z "},".":{"ha":347,"x_min":89,"x_max":258,"o":"m 258 0 l 89 0 l 89 167 l 258 167 l 258 0 z "},"/":{"ha":347,"x_min":-22,"x_max":375,"o":"m 375 895 l 116 0 l -22 0 l 237 895 l 375 895 z "},":":{"ha":347,"x_min":89,"x_max":258,"o":"m 258 0 l 89 0 l 89 167 l 258 167 l 258 0 m 258 481 l 89 481 l 89 648 l 258 648 l 258 481 z "},";":{"ha":347,"x_min":88,"x_max":258,"o":"m 258 481 l 89 481 l 89 648 l 258 648 l 258 481 m 258 26 q 248 -55 258 -17 q 215 -121 237 -92 q 162 -166 194 -149 q 88 -182 130 -182 l 88 -91 q 143 -70 127 -91 q 158 0 158 -50 l 88 0 l 88 167 l 258 167 l 258 26 z "},"<":{"ha":730,"x_min":66,"x_max":665,"o":"m 665 113 l 66 368 l 66 496 l 665 751 l 665 593 l 275 432 l 665 271 l 665 113 z "},"=":{"ha":730,"x_min":66,"x_max":665,"o":"m 665 484 l 66 484 l 66 631 l 665 631 l 665 484 m 665 234 l 66 234 l 66 380 l 665 380 l 665 234 z "},">":{"ha":730,"x_min":66,"x_max":665,"o":"m 665 368 l 66 113 l 66 271 l 456 432 l 66 593 l 66 751 l 665 496 l 665 368 z "},"?":{"ha":696,"x_min":54,"x_max":642,"o":"m 54 620 q 84 740 60 686 q 147 832 108 794 q 238 890 186 869 q 351 910 290 910 q 469 891 416 910 q 561 840 523 873 q 621 760 600 806 q 642 660 642 714 q 633 591 642 623 q 606 530 623 559 q 566 475 589 501 q 513 426 542 450 q 462 379 481 399 q 436 344 443 359 q 422 216 422 315 l 270 216 q 296 406 270 351 q 393 518 322 459 q 440 563 423 543 q 466 597 457 582 q 477 626 475 612 q 479 653 479 639 q 470 702 479 680 q 444 741 460 724 q 404 766 427 757 q 352 775 380 775 q 216 620 241 775 l 54 620 m 434 0 l 265 0 l 265 167 l 434 167 l 434 0 z "},"@":{"ha":1270,"x_min":83,"x_max":1187,"o":"m 1000 -174 q 684 -241 846 -241 q 436 -205 547 -241 q 246 -100 325 -169 q 125 66 168 -32 q 83 289 83 165 q 94 416 83 353 q 127 535 105 478 q 181 645 149 593 q 254 739 213 696 q 672 910 419 910 q 809 895 743 910 q 931 852 874 880 q 1036 782 989 823 q 1117 689 1083 741 q 1168 574 1150 637 q 1187 440 1187 511 q 1158 258 1187 339 q 1079 119 1129 176 q 960 30 1028 61 q 814 -1 892 -1 q 742 16 772 -1 q 694 63 711 34 q 534 -1 628 -1 q 441 17 484 -1 q 369 68 399 35 q 320 149 338 101 q 303 255 303 196 q 401 536 303 414 q 504 627 450 598 q 617 655 557 655 q 779 610 718 655 l 785 639 l 941 639 l 851 235 q 841 186 844 207 q 838 151 838 165 q 852 134 838 134 q 919 156 882 134 q 986 219 957 178 q 1031 316 1015 259 q 1048 442 1048 373 q 1020 575 1048 513 q 942 682 992 637 q 822 754 891 728 q 671 780 753 780 q 494 746 574 780 q 352 644 414 713 q 296 569 321 610 q 254 482 271 528 q 228 387 237 436 q 219 289 219 338 q 251 119 219 193 q 343 -6 283 45 q 490 -84 404 -58 q 683 -111 576 -111 q 930 -59 814 -111 l 1000 -174 m 746 469 q 625 520 706 520 q 563 496 593 520 q 511 434 533 472 q 475 350 488 397 q 461 258 461 303 q 555 134 461 134 q 603 145 579 134 q 647 178 627 157 q 684 229 668 199 q 709 295 701 259 l 746 469 z "},"A":{"ha":875,"x_min":3,"x_max":871,"o":"m 535 398 l 427 682 l 324 398 l 535 398 m 871 0 l 685 0 l 587 256 l 274 256 l 180 0 l 3 0 l 348 896 l 507 896 l 871 0 z "},"B":{"ha":863,"x_min":109,"x_max":795,"o":"m 795 272 q 709 69 795 138 q 452 0 623 0 l 109 0 l 109 895 l 436 895 q 567 879 508 895 q 667 831 625 862 q 731 755 708 800 q 753 654 753 710 q 732 555 753 597 q 667 480 711 513 q 724 443 700 465 q 763 393 747 420 q 787 335 779 366 q 795 272 795 304 m 275 543 l 435 543 q 550 566 513 543 q 587 644 587 589 q 579 687 587 669 q 551 718 570 705 q 501 735 532 730 q 425 741 470 741 l 275 741 l 275 543 m 275 154 l 452 154 q 623 272 623 154 q 614 325 623 302 q 584 362 606 347 q 526 384 562 376 q 436 391 490 391 l 275 391 l 275 154 z "},"C":{"ha":926,"x_min":68,"x_max":858,"o":"m 686 614 q 661 675 679 648 q 618 721 644 703 q 559 750 592 740 q 488 760 526 760 q 385 739 431 760 q 306 680 338 719 q 256 582 273 640 q 238 448 238 524 q 256 315 238 373 q 306 216 273 256 q 384 155 338 176 q 486 134 430 134 q 620 176 567 134 q 686 297 673 218 l 858 297 q 817 164 848 222 q 737 66 785 106 q 625 6 688 26 q 488 -14 562 -14 q 313 18 391 -14 q 181 111 235 51 q 97 257 127 172 q 68 448 68 342 q 98 640 68 554 q 182 785 127 725 q 314 878 237 845 q 488 910 392 910 q 618 889 557 910 q 729 829 680 868 q 811 736 778 791 q 856 614 844 681 l 686 614 z "},"D":{"ha":929,"x_min":109,"x_max":861,"o":"m 861 452 q 404 0 861 0 l 109 0 l 109 895 l 404 895 q 861 452 861 895 m 690 452 q 677 574 690 520 q 631 665 664 627 q 543 722 598 702 q 403 741 487 741 l 276 741 l 276 154 l 403 154 q 542 174 486 154 q 630 233 597 195 q 677 327 663 271 q 690 452 690 382 z "},"E":{"ha":861,"x_min":109,"x_max":793,"o":"m 793 0 l 109 0 l 109 895 l 773 895 l 773 741 l 275 741 l 275 539 l 741 539 l 741 387 l 275 387 l 275 154 l 793 154 l 793 0 z "},"F":{"ha":801,"x_min":109,"x_max":733,"o":"m 733 741 l 275 741 l 275 535 l 673 535 l 673 382 l 275 382 l 275 0 l 109 0 l 109 895 l 733 895 l 733 741 z "},"G":{"ha":1004,"x_min":68,"x_max":909,"o":"m 720 615 q 647 722 704 684 q 500 759 590 759 q 394 739 442 759 q 311 679 346 718 q 258 581 277 639 q 239 448 239 524 q 258 316 239 374 q 312 217 277 258 q 395 156 347 177 q 501 134 443 134 q 645 159 585 134 q 745 235 704 183 l 745 329 l 523 329 l 523 484 l 909 484 l 909 0 l 781 0 l 760 64 q 649 6 713 26 q 503 -14 585 -14 q 325 19 405 -14 q 188 113 245 52 q 99 259 131 174 q 68 448 68 344 q 99 640 68 554 q 188 785 131 725 q 324 877 245 844 q 499 909 404 909 q 642 888 576 909 q 761 829 709 867 q 846 736 812 791 q 892 615 880 682 l 720 615 z "},"H":{"ha":935,"x_min":109,"x_max":826,"o":"m 826 0 l 658 0 l 658 397 l 275 397 l 275 0 l 109 0 l 109 895 l 275 895 l 275 551 l 658 551 l 658 895 l 826 895 l 826 0 z "},"I":{"ha":383,"x_min":109,"x_max":275,"o":"m 275 0 l 109 0 l 109 895 l 275 895 l 275 0 z "},"J":{"ha":680,"x_min":54,"x_max":571,"o":"m 571 296 q 555 153 571 212 q 505 56 538 94 q 422 2 472 19 q 307 -14 373 -14 q 202 4 249 -14 q 123 56 156 22 q 72 137 90 90 q 54 244 54 185 l 54 294 l 220 294 q 307 138 220 138 q 348 144 330 138 q 378 167 366 150 q 397 213 391 184 q 404 291 404 243 l 404 895 l 571 895 l 571 296 z "},"K":{"ha":890,"x_min":109,"x_max":880,"o":"m 880 0 l 665 0 l 376 406 l 276 308 l 276 0 l 109 0 l 109 895 l 276 895 l 276 519 l 648 895 l 876 895 l 494 522 l 880 0 z "},"L":{"ha":741,"x_min":109,"x_max":686,"o":"m 686 0 l 109 0 l 109 895 l 275 895 l 275 154 l 686 154 l 686 0 z "},"M":{"ha":1066,"x_min":109,"x_max":958,"o":"m 958 0 l 795 0 l 795 574 l 602 0 l 462 0 l 271 574 l 271 0 l 109 0 l 109 895 l 326 895 l 533 257 l 741 895 l 958 895 l 958 0 z "},"N":{"ha":935,"x_min":109,"x_max":826,"o":"m 826 0 l 669 0 l 269 599 l 269 0 l 109 0 l 109 895 l 267 895 l 664 296 l 664 895 l 826 895 l 826 0 z "},"O":{"ha":997,"x_min":68,"x_max":929,"o":"m 498 910 q 671 877 592 910 q 807 783 750 844 q 897 637 865 723 q 929 448 929 552 q 897 261 929 346 q 808 115 865 176 q 672 20 751 54 q 498 -14 593 -14 q 325 19 404 -14 q 189 114 245 53 q 100 260 132 175 q 68 448 68 345 q 100 638 68 553 q 190 784 132 724 q 326 877 248 844 q 498 910 405 910 m 498 134 q 603 156 555 134 q 686 217 651 177 q 740 316 720 258 q 759 448 759 374 q 739 581 759 523 q 685 679 720 639 q 603 740 650 719 q 500 760 555 760 q 395 739 443 760 q 312 678 347 718 q 258 579 277 637 q 238 448 238 522 q 257 316 238 374 q 311 217 277 258 q 394 156 346 177 q 498 134 441 134 z "},"P":{"ha":865,"x_min":109,"x_max":804,"o":"m 109 895 l 452 895 q 585 883 521 895 q 697 841 648 871 q 774 757 745 810 q 804 623 804 705 q 717 409 804 480 q 459 337 630 337 l 275 337 l 275 0 l 109 0 l 109 895 m 275 490 l 463 490 q 541 499 509 490 q 593 524 573 507 q 623 565 614 541 q 633 621 633 589 q 619 683 633 659 q 581 719 605 706 q 525 737 557 732 q 459 741 494 741 l 275 741 l 275 490 z "},"Q":{"ha":997,"x_min":68,"x_max":955,"o":"m 955 42 l 854 -79 l 709 37 q 609 -2 661 10 q 499 -14 558 -14 q 325 19 404 -14 q 189 114 245 53 q 100 260 132 175 q 68 448 68 345 q 100 638 68 553 q 190 784 133 724 q 327 877 248 844 q 499 910 406 910 q 672 877 593 910 q 808 783 751 844 q 898 637 865 723 q 930 448 930 552 q 905 279 930 355 q 831 140 880 203 l 955 42 m 704 239 q 759 448 759 320 q 740 581 759 523 q 686 679 720 639 q 604 740 651 719 q 500 760 556 760 q 396 739 444 760 q 313 678 348 718 q 258 579 278 637 q 239 448 239 522 q 258 316 239 374 q 312 217 277 258 q 394 156 347 177 q 498 134 441 134 q 535 137 517 134 q 571 144 554 140 l 503 198 l 604 319 l 704 239 z "},"R":{"ha":940,"x_min":109,"x_max":879,"o":"m 613 243 q 589 290 604 269 q 553 327 573 311 q 508 351 532 342 q 455 360 483 360 l 276 360 l 276 0 l 109 0 l 109 895 l 510 895 q 578 893 546 895 q 641 886 611 892 q 698 867 671 880 q 750 834 725 855 q 816 743 794 797 q 838 633 838 690 q 799 493 838 551 q 690 403 759 434 q 742 348 719 381 q 783 265 765 314 l 879 0 l 699 0 l 613 243 m 276 514 l 498 514 q 575 520 543 514 q 627 541 607 526 q 657 577 648 555 q 667 633 667 600 q 630 721 667 693 q 515 749 593 749 l 276 749 l 276 514 z "},"S":{"ha":863,"x_min":68,"x_max":795,"o":"m 231 299 q 259 228 239 258 q 308 177 279 197 q 373 148 337 157 q 449 138 409 138 q 523 146 490 138 q 581 170 557 155 q 618 207 605 185 q 631 256 631 229 q 618 303 631 283 q 577 338 606 323 q 503 366 549 353 q 389 393 456 378 q 257 432 313 409 q 166 485 201 454 q 113 557 130 516 q 96 650 96 597 q 120 754 96 707 q 187 837 144 802 q 290 891 230 871 q 424 910 351 910 q 558 891 497 910 q 665 836 619 871 q 739 747 711 800 q 772 629 766 694 l 610 629 q 429 756 581 756 q 304 729 347 756 q 261 654 261 701 q 271 620 261 634 q 301 593 280 605 q 354 571 321 581 q 432 551 386 561 q 514 533 472 543 q 597 509 557 523 q 673 474 637 494 q 736 425 709 454 q 779 357 764 396 q 795 265 795 317 q 769 152 795 203 q 699 64 744 101 q 591 6 653 27 q 455 -14 529 -14 q 293 8 363 -14 q 175 73 223 31 q 101 172 127 114 q 68 299 74 229 l 231 299 z "},"T":{"ha":805,"x_min":41,"x_max":764,"o":"m 764 741 l 486 741 l 486 0 l 318 0 l 318 741 l 41 741 l 41 895 l 764 895 l 764 741 z "},"U":{"ha":935,"x_min":109,"x_max":826,"o":"m 467 -14 q 323 3 382 -14 q 224 48 264 20 q 161 116 184 77 q 126 199 138 155 q 112 290 115 243 q 109 382 109 337 l 109 895 l 275 895 l 275 384 q 288 259 275 307 q 326 185 301 212 q 386 148 350 158 q 467 138 421 138 q 550 148 514 138 q 609 185 585 158 q 646 260 633 212 q 658 384 658 308 l 658 895 l 826 895 l 826 382 q 810 215 826 289 q 753 91 794 142 q 643 13 713 40 q 467 -14 574 -14 z "},"V":{"ha":884,"x_min":17,"x_max":867,"o":"m 867 895 l 519 0 l 365 0 l 17 895 l 196 895 l 441 227 l 689 895 l 867 895 z "},"W":{"ha":1213,"x_min":27,"x_max":1185,"o":"m 1185 895 l 937 0 l 787 0 l 606 656 l 425 0 l 275 0 l 27 895 l 203 895 l 351 293 l 517 895 l 695 895 l 861 294 l 1010 895 l 1185 895 z "},"X":{"ha":915,"x_min":17,"x_max":898,"o":"m 898 0 l 693 0 l 458 336 l 224 0 l 17 0 l 360 471 l 50 895 l 254 895 l 457 606 l 661 895 l 865 895 l 555 471 l 898 0 z "},"Y":{"ha":910,"x_min":17,"x_max":893,"o":"m 893 895 l 539 376 l 539 0 l 372 0 l 372 376 l 17 895 l 219 895 l 456 533 l 691 895 l 893 895 z "},"Z":{"ha":803,"x_min":41,"x_max":762,"o":"m 762 0 l 41 0 l 41 141 l 534 741 l 88 741 l 88 895 l 747 895 l 747 753 l 254 154 l 762 154 l 762 0 z "},"[":{"ha":347,"x_min":60,"x_max":337,"o":"m 337 -229 l 60 -229 l 60 895 l 337 895 l 337 760 l 220 760 l 220 -93 l 337 -93 l 337 -229 z "},"\\":{"ha":347,"x_min":-35,"x_max":362,"o":"m 362 0 l 224 0 l -35 895 l 104 895 l 362 0 z "},"]":{"ha":347,"x_min":10,"x_max":288,"o":"m 288 -229 l 10 -229 l 10 -93 l 127 -93 l 127 760 l 10 760 l 10 895 l 288 895 l 288 -229 z "},"^":{"ha":587,"x_min":22,"x_max":568,"o":"m 568 498 l 401 498 l 294 708 l 188 498 l 22 498 l 238 895 l 351 895 l 568 498 z "},"_":{"ha":690,"x_min":-6,"x_max":696,"o":"m 696 -180 l -6 -180 l -6 -71 l 696 -71 l 696 -180 z "},"`":{"ha":458,"x_min":46,"x_max":332,"o":"m 332 741 l 193 741 l 46 926 l 239 926 l 332 741 z "},"a":{"ha":718,"x_min":54,"x_max":626,"o":"m 467 288 l 420 288 q 217 189 217 288 q 243 138 217 157 q 315 120 270 120 q 401 138 359 120 q 467 191 442 156 l 467 288 m 72 456 q 357 663 100 663 q 469 652 419 663 q 554 612 519 641 q 607 535 589 584 q 626 411 626 486 l 626 0 l 467 0 l 467 34 q 382 -3 428 10 q 284 -16 336 -16 q 193 -1 235 -16 q 120 40 151 14 q 72 103 90 66 q 54 184 54 140 q 441 419 54 419 l 467 419 q 463 466 467 446 q 447 499 459 486 q 412 520 435 513 q 350 528 389 528 q 274 513 302 528 q 235 456 245 498 l 72 456 z "},"b":{"ha":722,"x_min":92,"x_max":667,"o":"m 251 615 q 395 663 315 663 q 511 639 460 663 q 596 571 562 615 q 649 466 631 528 q 667 329 667 404 q 646 187 667 251 q 587 78 625 123 q 498 9 549 33 q 388 -16 448 -16 q 314 -7 347 -16 q 251 20 281 1 l 251 0 l 92 0 l 92 895 l 251 895 l 251 615 m 251 178 q 313 135 281 149 q 382 120 346 120 q 470 173 437 120 q 503 329 503 226 q 472 478 503 428 q 386 528 441 528 q 251 442 316 528 l 251 178 z "},"c":{"ha":666,"x_min":54,"x_max":632,"o":"m 632 213 q 597 113 622 156 q 538 42 573 71 q 458 -1 503 14 q 362 -16 413 -16 q 237 7 294 -16 q 140 73 180 30 q 77 179 99 116 q 54 324 54 243 q 76 467 54 404 q 139 574 98 530 q 236 640 179 617 q 362 663 293 663 q 458 649 414 663 q 538 607 503 635 q 597 537 573 579 q 631 439 621 494 l 465 439 q 431 507 459 486 q 362 528 402 528 q 304 515 330 528 q 258 476 277 502 q 229 413 239 451 q 218 324 218 375 q 229 235 218 273 q 258 172 239 197 q 304 133 277 146 q 362 120 330 120 q 398 126 380 120 q 429 143 415 132 q 452 173 443 155 q 465 213 462 190 l 632 213 z "},"d":{"ha":722,"x_min":54,"x_max":631,"o":"m 472 470 q 340 528 410 528 q 252 476 285 528 q 218 320 218 425 q 250 171 218 221 q 336 121 281 121 q 472 206 408 121 l 472 470 m 472 34 q 404 -3 439 10 q 328 -16 368 -16 q 211 8 262 -16 q 125 77 159 33 q 72 183 90 121 q 54 320 54 245 q 76 464 54 400 q 135 571 97 527 q 223 640 172 616 q 334 663 275 663 q 407 654 372 663 q 472 629 441 646 l 472 895 l 631 895 l 631 0 l 472 0 l 472 34 z "},"e":{"ha":723,"x_min":54,"x_max":669,"o":"m 657 203 q 619 109 645 150 q 556 41 593 68 q 472 -1 519 13 q 373 -16 426 -16 q 243 7 302 -16 q 142 74 184 31 q 77 181 100 118 q 54 324 54 244 q 77 466 54 403 q 140 572 99 528 q 237 640 180 616 q 361 663 293 663 q 489 640 432 663 q 585 574 545 617 q 647 467 625 530 q 669 324 669 404 l 669 273 l 222 273 q 275 158 235 197 q 373 120 315 120 q 410 125 391 120 q 445 141 429 131 q 472 167 460 152 q 490 203 484 182 l 657 203 m 496 408 q 446 498 481 468 q 361 528 410 528 q 277 498 313 528 q 226 408 241 468 l 496 408 z "},"f":{"ha":394,"x_min":20,"x_max":408,"o":"m 269 513 l 269 0 l 109 0 l 109 513 l 20 513 l 20 648 l 109 648 l 109 696 q 302 912 109 912 q 357 908 330 912 q 408 897 384 904 l 408 755 q 354 763 375 760 q 318 765 334 765 q 280 749 292 765 q 269 694 269 733 l 269 648 l 380 648 l 380 513 l 269 513 z "},"g":{"ha":722,"x_min":54,"x_max":631,"o":"m 241 -60 q 341 -127 256 -127 q 432 -89 399 -127 q 471 32 465 -50 q 403 -4 438 8 q 328 -16 368 -16 q 211 8 262 -16 q 125 77 159 33 q 72 183 90 121 q 54 320 54 245 q 76 464 54 400 q 135 571 97 527 q 223 640 172 616 q 334 663 275 663 q 407 654 372 663 q 472 629 441 646 l 472 648 l 631 648 l 631 51 q 345 -263 631 -263 q 239 -249 286 -263 q 157 -209 192 -235 q 101 -145 122 -183 q 75 -60 80 -108 l 241 -60 m 472 470 q 340 528 410 528 q 252 476 285 528 q 218 320 218 425 q 250 171 218 221 q 336 120 281 120 q 472 205 408 120 l 472 470 z "},"h":{"ha":723,"x_min":92,"x_max":631,"o":"m 251 610 q 401 663 320 663 q 631 416 631 663 l 631 0 l 470 0 l 470 411 q 451 497 470 471 q 387 523 431 523 q 251 444 321 523 l 251 0 l 92 0 l 92 895 l 251 895 l 251 610 z "},"i":{"ha":342,"x_min":92,"x_max":250,"o":"m 250 0 l 92 0 l 92 648 l 250 648 l 250 0 m 250 728 l 92 728 l 92 895 l 250 895 l 250 728 z "},"j":{"ha":350,"x_min":-20,"x_max":258,"o":"m 258 -30 q 246 -148 258 -102 q 210 -219 233 -194 q 154 -254 186 -245 q 79 -263 121 -263 q 29 -261 54 -263 q -20 -256 4 -259 l -20 -105 q 34 -120 16 -117 q 65 -123 53 -123 q 82 -119 75 -123 q 92 -104 88 -115 q 98 -74 96 -93 q 99 -26 99 -55 l 99 648 l 258 648 l 258 -30 m 258 728 l 99 728 l 99 895 l 258 895 l 258 728 z "},"k":{"ha":675,"x_min":92,"x_max":661,"o":"m 661 0 l 470 0 l 286 287 l 251 252 l 251 0 l 92 0 l 92 895 l 251 895 l 251 449 l 444 648 l 653 648 l 396 397 l 661 0 z "},"l":{"ha":342,"x_min":92,"x_max":250,"o":"m 250 0 l 92 0 l 92 895 l 250 895 l 250 0 z "},"m":{"ha":1044,"x_min":92,"x_max":952,"o":"m 952 0 l 791 0 l 791 411 q 776 497 791 472 q 726 523 761 523 q 600 445 666 523 l 600 0 l 441 0 l 441 411 q 426 497 441 472 q 376 523 411 523 q 251 445 317 523 l 251 0 l 92 0 l 92 648 l 251 648 l 251 610 q 319 651 284 638 q 393 663 354 663 q 499 642 456 663 q 567 576 542 620 q 617 622 594 605 q 660 648 640 639 q 700 660 680 657 q 741 663 720 663 q 952 416 952 663 l 952 0 z "},"n":{"ha":723,"x_min":92,"x_max":631,"o":"m 251 610 q 401 663 320 663 q 631 416 631 663 l 631 0 l 470 0 l 470 411 q 451 497 470 471 q 387 523 431 523 q 251 444 321 523 l 251 0 l 92 0 l 92 648 l 251 648 l 251 610 z "},"o":{"ha":723,"x_min":54,"x_max":669,"o":"m 361 663 q 489 640 432 663 q 585 574 545 617 q 647 467 625 530 q 669 324 669 404 q 647 181 669 244 q 585 74 625 118 q 488 7 545 31 q 361 -16 431 -16 q 236 7 293 -16 q 139 73 180 30 q 77 179 99 116 q 54 324 54 243 q 76 467 54 404 q 138 574 98 530 q 235 640 178 617 q 361 663 292 663 m 361 120 q 419 133 393 120 q 464 172 446 146 q 493 235 483 197 q 504 324 504 273 q 493 413 504 375 q 464 476 483 451 q 419 515 446 502 q 361 528 393 528 q 303 515 330 528 q 258 476 277 502 q 229 413 239 451 q 218 324 218 375 q 229 235 218 273 q 258 172 239 197 q 303 133 277 146 q 361 120 330 120 z "},"p":{"ha":722,"x_min":92,"x_max":667,"o":"m 251 615 q 395 663 315 663 q 511 639 460 663 q 596 571 562 615 q 649 466 631 528 q 667 329 667 404 q 646 187 667 251 q 587 78 625 123 q 498 9 549 33 q 388 -16 448 -16 q 314 -8 347 -16 q 251 18 281 0 l 251 -250 l 92 -250 l 92 648 l 251 648 l 251 615 m 251 176 q 382 120 311 120 q 470 173 437 120 q 503 329 503 226 q 472 478 503 428 q 386 528 441 528 q 251 442 316 528 l 251 176 z "},"q":{"ha":722,"x_min":54,"x_max":631,"o":"m 631 -250 l 472 -250 l 472 33 q 328 -16 408 -16 q 211 8 262 -16 q 125 77 159 33 q 72 183 90 121 q 54 320 54 245 q 76 464 54 400 q 135 571 97 527 q 223 640 172 616 q 334 663 275 663 q 472 629 406 663 l 472 648 l 631 648 l 631 -250 m 472 470 q 340 528 410 528 q 252 476 285 528 q 218 320 218 425 q 250 171 218 221 q 336 120 281 120 q 472 205 408 120 l 472 470 z "},"r":{"ha":465,"x_min":92,"x_max":455,"o":"m 455 489 q 415 502 434 498 q 364 507 397 507 q 304 490 332 507 q 251 439 277 473 l 251 0 l 92 0 l 92 648 l 251 648 l 251 610 q 380 663 310 663 q 411 661 393 663 q 455 654 429 659 l 455 489 z "},"s":{"ha":659,"x_min":54,"x_max":604,"o":"m 424 466 q 326 528 408 528 q 287 524 304 528 q 256 514 269 521 q 235 497 243 507 q 228 474 228 487 q 232 457 228 464 q 250 443 235 450 q 293 428 264 436 q 370 408 321 420 q 474 378 430 394 q 547 340 517 363 q 590 283 576 317 q 604 201 604 250 q 585 115 604 155 q 532 47 566 76 q 448 1 497 18 q 338 -16 399 -16 q 54 204 83 -16 l 217 204 q 336 120 230 120 q 417 140 389 120 q 444 190 444 161 q 438 213 444 203 q 416 230 433 222 q 369 245 399 237 q 292 266 339 254 q 191 295 233 280 q 122 331 149 309 q 82 384 95 352 q 68 465 68 416 q 86 543 68 507 q 136 606 104 579 q 215 648 169 633 q 318 663 261 663 q 583 466 566 663 l 424 466 z "},"t":{"ha":376,"x_min":20,"x_max":366,"o":"m 366 -1 q 310 -12 335 -9 q 262 -16 284 -16 q 173 -2 206 -16 q 121 37 139 11 q 99 102 104 63 q 94 194 94 142 l 94 513 l 20 513 l 20 648 l 94 648 l 94 809 l 255 809 l 255 648 l 351 648 l 351 513 l 255 513 l 255 189 q 257 153 255 167 q 263 132 259 140 q 272 122 267 125 q 286 120 278 120 q 321 122 300 120 q 366 129 341 125 l 366 -1 z "},"u":{"ha":724,"x_min":92,"x_max":633,"o":"m 473 38 q 321 -16 405 -16 q 92 231 92 -16 l 92 648 l 254 648 l 254 237 q 273 151 254 176 q 337 125 293 125 q 473 203 410 125 l 473 648 l 633 648 l 633 0 l 473 0 l 473 38 z "},"v":{"ha":664,"x_min":20,"x_max":644,"o":"m 644 648 l 399 0 l 266 0 l 20 648 l 193 648 l 332 240 l 470 648 l 644 648 z "},"w":{"ha":932,"x_min":20,"x_max":912,"o":"m 912 648 l 718 0 l 576 0 l 468 369 l 359 0 l 216 0 l 20 648 l 197 648 l 288 273 l 398 648 l 537 648 l 648 273 l 739 648 l 912 648 z "},"x":{"ha":690,"x_min":14,"x_max":676,"o":"m 676 0 l 477 0 l 344 209 l 211 0 l 14 0 l 251 336 l 30 648 l 228 648 l 344 464 l 459 648 l 658 648 l 437 336 l 676 0 z "},"y":{"ha":657,"x_min":14,"x_max":637,"o":"m 399 17 q 355 -91 377 -40 q 306 -180 333 -142 q 242 -241 278 -218 q 157 -263 207 -263 q 111 -260 134 -263 q 60 -248 87 -256 l 60 -96 q 110 -111 92 -109 q 139 -113 128 -113 q 168 -103 153 -113 q 197 -74 183 -92 q 225 -30 212 -55 q 249 25 238 -5 l 14 648 l 186 648 l 325 240 l 463 648 l 637 648 l 399 17 z "},"z":{"ha":663,"x_min":41,"x_max":623,"o":"m 623 0 l 41 0 l 41 125 l 380 507 l 62 507 l 62 648 l 604 648 l 604 524 l 265 143 l 623 143 l 623 0 z "},"{":{"ha":429,"x_min":25,"x_max":391,"o":"m 391 -263 l 346 -263 q 279 -257 312 -263 q 220 -234 247 -251 q 174 -188 193 -218 q 148 -111 155 -158 q 145 -74 146 -98 q 143 -23 144 -51 q 141 34 142 4 q 140 90 141 63 q 138 139 139 117 q 134 173 136 161 q 125 203 132 189 q 105 229 119 218 q 72 246 92 239 q 25 253 52 252 l 25 395 q 73 402 53 395 q 106 419 93 409 q 125 444 119 430 q 134 474 132 458 q 137 508 136 486 q 139 557 138 530 q 140 613 140 584 q 142 671 141 643 q 144 722 143 699 q 148 758 146 745 q 170 829 154 800 q 212 876 186 858 q 271 902 237 894 q 346 910 304 910 l 391 910 l 391 771 l 359 771 q 313 755 319 771 q 308 733 310 749 q 304 693 306 716 q 302 640 303 669 q 302 578 302 610 q 296 485 302 526 q 278 414 290 445 q 249 362 267 384 q 208 324 231 340 q 249 288 231 309 q 278 236 266 267 q 296 165 290 205 q 302 71 302 124 q 302 8 302 38 q 304 -46 303 -22 q 308 -86 306 -70 q 313 -109 310 -102 q 359 -124 319 -124 l 391 -124 l 391 -263 z "},"|":{"ha":330,"x_min":94,"x_max":236,"o":"m 236 -250 l 94 -250 l 94 895 l 236 895 l 236 -250 z "},"}":{"ha":429,"x_min":25,"x_max":391,"o":"m 25 -124 l 56 -124 q 103 -109 97 -124 q 108 -86 106 -102 q 111 -46 110 -70 q 113 8 113 -22 q 114 71 114 38 q 120 165 114 124 q 138 236 126 205 q 167 288 150 267 q 208 324 184 309 q 167 362 184 340 q 138 414 149 384 q 120 485 126 445 q 114 578 114 526 q 113 640 114 610 q 111 693 113 669 q 108 733 110 716 q 103 755 106 749 q 56 771 97 771 l 25 771 l 25 910 l 70 910 q 145 902 111 910 q 204 876 178 894 q 245 829 229 858 q 268 758 262 800 q 271 722 270 745 q 274 671 273 699 q 275 613 275 643 q 277 557 276 584 q 278 508 277 530 q 281 474 279 486 q 290 444 283 458 q 310 419 297 430 q 343 402 323 409 q 391 395 363 395 l 391 253 q 343 246 363 252 q 310 229 323 239 q 290 203 297 218 q 281 173 283 189 q 278 139 279 161 q 276 90 277 117 q 274 34 275 63 q 273 -23 274 4 q 271 -74 272 -51 q 268 -111 270 -98 q 242 -188 261 -158 q 196 -234 223 -218 q 136 -257 169 -251 q 70 -263 104 -263 l 25 -263 l 25 -124 z "},"~":{"ha":730,"x_min":54,"x_max":677,"o":"m 677 771 q 509 697 614 697 q 350 738 442 697 q 211 779 256 779 q 54 696 132 779 l 54 854 q 222 928 119 928 q 381 887 290 928 q 463 856 428 866 q 520 846 497 846 q 677 930 599 846 l 677 771 z "},"€":{"ha":696,"x_min":20,"x_max":653,"o":"m 487 635 q 444 738 475 701 q 367 775 412 775 q 323 761 342 775 q 289 720 304 746 q 262 657 273 694 q 245 577 252 621 l 419 577 l 389 465 l 236 465 l 236 406 l 370 406 l 338 294 l 245 294 q 367 120 271 120 q 489 291 467 120 l 653 291 q 367 -16 617 -16 q 81 294 123 -16 l 20 294 l 20 406 l 73 406 q 72 437 72 423 q 73 465 72 450 l 20 465 l 20 577 l 81 577 q 114 717 91 655 q 173 822 137 779 q 257 887 208 865 q 367 910 305 910 q 554 839 481 910 q 650 635 627 768 l 487 635 z "},"‚":{"ha":376,"x_min":89,"x_max":268,"o":"m 268 24 q 257 -62 268 -22 q 223 -133 245 -102 q 167 -181 201 -163 q 89 -199 134 -199 l 89 -102 q 163 0 163 -102 l 89 0 l 89 176 l 268 176 l 268 24 z "},"ƒ":{"ha":696,"x_min":40,"x_max":638,"o":"m 638 743 q 525 763 564 763 q 512 761 518 763 q 500 751 506 758 q 490 731 495 744 q 481 695 485 718 l 470 636 l 583 636 l 561 506 l 446 506 l 339 -96 q 281 -224 323 -184 q 161 -263 239 -263 q 130 -262 146 -263 q 97 -260 113 -262 q 66 -255 81 -258 q 40 -247 52 -252 l 40 -104 q 67 -110 52 -107 q 95 -116 81 -113 q 121 -121 109 -119 q 141 -123 133 -123 q 160 -119 153 -123 q 172 -107 167 -115 q 179 -87 176 -99 q 185 -58 182 -75 l 284 506 l 173 506 l 193 636 l 307 636 l 321 721 q 347 816 330 779 q 388 874 364 853 q 442 902 412 895 q 507 910 472 910 q 570 907 538 910 q 638 897 602 903 l 638 743 z "},"„":{"ha":530,"x_min":68,"x_max":478,"o":"m 478 24 q 467 -62 478 -22 q 433 -133 456 -102 q 377 -181 411 -163 q 299 -199 344 -199 l 299 -102 q 374 0 374 -102 l 299 0 l 299 176 l 478 176 l 478 24 m 248 24 q 236 -62 248 -22 q 203 -133 225 -102 q 147 -181 180 -163 q 68 -199 113 -199 l 68 -102 q 126 -74 109 -102 q 143 0 143 -46 l 68 0 l 68 176 l 248 176 l 248 24 z "},"…":{"ha":707,"x_min":53,"x_max":654,"o":"m 654 0 l 485 0 l 485 166 l 654 166 l 654 0 m 437 0 l 269 0 l 269 166 l 437 166 l 437 0 m 221 0 l 53 0 l 53 166 l 221 166 l 221 0 z "},"†":{"ha":696,"x_min":45,"x_max":650,"o":"m 650 486 l 428 486 l 428 -241 l 267 -241 l 267 486 l 45 486 l 45 628 l 267 628 l 267 875 l 428 875 l 428 628 l 650 628 l 650 486 z "},"‡":{"ha":696,"x_min":45,"x_max":650,"o":"m 650 5 l 428 5 l 428 -241 l 267 -241 l 267 5 l 45 5 l 45 147 l 267 147 l 267 486 l 45 486 l 45 628 l 267 628 l 267 875 l 428 875 l 428 628 l 648 628 l 648 486 l 428 486 l 428 147 l 650 147 l 650 5 z "},"ˆ":{"ha":475,"x_min":11,"x_max":463,"o":"m 463 741 l 298 741 l 237 827 l 175 741 l 11 741 l 170 937 l 304 937 l 463 741 z "},"‰":{"ha":1360,"x_min":22,"x_max":1338,"o":"m 220 910 q 300 893 264 910 q 363 845 337 877 q 405 768 390 814 q 420 666 420 723 q 405 564 420 609 q 365 487 391 519 q 302 439 338 456 q 220 422 265 422 q 139 438 176 422 q 76 487 102 455 q 36 564 50 518 q 22 666 22 609 q 37 769 22 724 q 78 845 52 814 q 140 893 104 877 q 220 910 176 910 m 220 543 q 263 573 251 543 q 275 666 275 604 q 263 759 275 728 q 220 789 251 789 q 178 759 190 789 q 166 666 166 728 q 178 573 166 604 q 220 543 190 543 m 781 895 l 293 0 l 149 0 l 638 895 l 781 895 m 706 473 q 786 456 749 473 q 849 408 823 439 q 890 331 876 376 q 905 229 905 286 q 891 126 905 172 q 850 50 876 81 q 787 1 824 18 q 706 -16 751 -16 q 625 1 661 -16 q 562 49 588 18 q 522 126 536 81 q 508 229 508 172 q 523 331 508 286 q 563 408 537 376 q 626 456 589 439 q 706 473 662 473 m 706 105 q 749 136 736 105 q 761 229 761 167 q 749 321 761 290 q 706 352 736 352 q 664 321 675 352 q 652 229 652 290 q 664 136 652 167 q 706 105 675 105 m 1139 473 q 1219 456 1182 473 q 1282 408 1255 439 q 1323 331 1308 376 q 1338 229 1338 286 q 1323 126 1338 172 q 1283 50 1309 81 q 1220 1 1257 18 q 1139 -16 1183 -16 q 1057 1 1094 -16 q 995 49 1021 18 q 955 126 968 81 q 941 229 941 172 q 955 331 941 286 q 996 408 970 376 q 1058 456 1022 439 q 1139 473 1095 473 m 1139 105 q 1181 136 1169 105 q 1194 229 1194 167 q 1181 321 1194 290 q 1139 352 1169 352 q 1096 321 1108 352 q 1084 229 1084 290 q 1096 136 1084 167 q 1139 105 1108 105 z "},"Š":{"ha":863,"x_min":68,"x_max":797,"o":"m 457 -14 q 289 11 361 -14 q 169 81 217 36 q 96 188 121 125 q 68 324 71 250 l 230 324 q 254 241 235 276 q 302 183 273 206 q 370 150 332 161 q 451 138 408 138 q 525 146 492 138 q 583 170 559 155 q 620 207 607 185 q 633 256 633 229 q 620 303 633 283 q 579 338 608 323 q 505 366 551 353 q 391 393 458 378 q 259 432 315 409 q 168 485 203 454 q 115 557 132 516 q 98 650 98 597 q 122 754 98 707 q 189 837 146 802 q 292 891 232 871 q 426 910 353 910 q 566 889 503 910 q 675 829 629 868 q 748 732 722 789 q 776 604 774 675 l 616 604 q 431 756 597 756 q 306 729 349 756 q 263 654 263 701 q 273 620 263 634 q 303 593 282 605 q 356 571 323 581 q 434 551 388 561 q 516 533 474 543 q 599 509 559 523 q 675 474 640 494 q 739 425 711 454 q 781 357 766 396 q 797 265 797 317 q 771 152 797 203 q 701 64 746 101 q 593 6 655 27 q 457 -14 531 -14 m 208 1138 l 372 1138 l 433 1052 l 495 1138 l 659 1138 l 500 941 l 366 941 l 208 1138 z "},"‹":{"ha":452,"x_min":30,"x_max":393,"o":"m 393 43 l 242 43 l 30 347 l 242 651 l 393 651 l 220 347 l 393 43 z "},"Œ":{"ha":1251,"x_min":46,"x_max":1161,"o":"m 1161 0 l 633 0 l 633 66 q 537 7 591 28 q 425 -14 483 -14 q 268 17 338 -14 q 149 108 198 49 q 73 253 99 168 q 46 448 46 339 q 73 642 46 557 q 148 787 99 728 q 268 879 197 847 q 425 910 338 910 q 495 905 470 910 q 542 891 521 899 q 580 870 563 882 q 633 829 597 859 l 633 896 l 1142 896 l 1142 742 l 801 742 l 801 539 l 1109 539 l 1109 387 l 801 387 l 801 154 l 1161 154 l 1161 0 m 425 134 q 633 448 633 134 q 428 760 633 760 q 339 740 378 760 q 273 680 300 720 q 231 583 245 641 q 217 448 217 524 q 231 314 217 373 q 272 216 245 256 q 337 155 299 176 q 425 134 376 134 z "},"Ž":{"ha":803,"x_min":41,"x_max":762,"o":"m 488 941 l 354 941 l 195 1138 l 359 1138 l 421 1052 l 483 1138 l 647 1138 l 488 941 m 762 0 l 41 0 l 41 141 l 534 741 l 88 741 l 88 895 l 747 895 l 747 753 l 254 154 l 762 154 l 762 0 z "},"‘":{"ha":278,"x_min":48,"x_max":218,"o":"m 48 702 q 59 782 48 745 q 91 848 70 820 q 144 893 113 877 q 218 910 176 910 l 218 819 q 164 798 179 819 q 149 728 149 777 l 218 728 l 218 561 l 48 561 l 48 702 z "},"’":{"ha":278,"x_min":48,"x_max":218,"o":"m 218 754 q 208 674 218 711 q 175 608 197 636 q 122 563 154 579 q 48 546 90 546 l 48 637 q 103 658 87 637 q 118 728 118 679 l 48 728 l 48 895 l 218 895 l 218 754 z "},"“":{"ha":479,"x_min":48,"x_max":431,"o":"m 260 702 q 271 782 260 745 q 303 848 282 820 q 357 893 325 877 q 431 910 389 910 l 431 819 q 376 798 391 819 q 361 728 361 777 l 431 728 l 431 561 l 260 561 l 260 702 m 48 702 q 59 782 48 745 q 91 848 70 820 q 144 893 113 877 q 218 910 176 910 l 218 819 q 164 798 179 819 q 149 728 149 777 l 218 728 l 218 561 l 48 561 l 48 702 z "},"”":{"ha":479,"x_min":48,"x_max":431,"o":"m 218 754 q 208 674 218 711 q 175 608 197 636 q 122 563 154 579 q 48 546 90 546 l 48 637 q 103 658 87 637 q 118 728 118 679 l 48 728 l 48 895 l 218 895 l 218 754 m 431 754 q 420 674 431 711 q 388 608 409 636 q 334 563 366 579 q 260 546 302 546 l 260 637 q 315 658 300 637 q 330 728 330 679 l 260 728 l 260 895 l 431 895 l 431 754 z "},"•":{"ha":543,"x_min":77,"x_max":466,"o":"m 466 513 q 450 438 466 473 q 407 375 434 402 q 345 333 380 349 q 272 317 310 317 q 196 333 231 317 q 134 375 160 349 q 92 438 107 402 q 77 513 77 473 q 92 588 77 553 q 134 650 107 623 q 196 692 160 677 q 272 708 231 708 q 348 692 313 708 q 409 650 383 677 q 451 588 435 623 q 466 513 466 553 z "},"–":{"ha":366,"x_min":-19,"x_max":386,"o":"m 386 256 l -19 256 l -19 391 l 386 391 l 386 256 z "},"—":{"ha":733,"x_min":-19,"x_max":752,"o":"m 752 256 l -19 256 l -19 391 l 752 391 l 752 256 z "},"˜":{"ha":496,"x_min":9,"x_max":486,"o":"m 486 921 q 476 858 486 888 q 446 804 465 827 q 401 768 427 781 q 342 754 374 754 q 306 760 329 754 q 261 773 283 766 q 221 786 238 780 q 191 791 203 791 q 173 790 181 791 q 157 785 165 789 q 144 773 149 781 q 137 752 138 765 l 9 752 q 20 815 9 785 q 50 868 31 845 q 95 906 68 892 q 153 920 121 920 q 188 914 166 920 q 233 901 210 908 q 273 887 256 893 q 305 881 291 881 q 322 882 315 881 q 338 888 330 884 q 352 900 346 892 q 359 921 357 907 l 486 921 z "},"™":{"ha":855,"x_min":31,"x_max":791,"o":"m 791 458 l 715 458 l 715 814 l 633 458 l 558 458 l 476 814 l 476 458 l 400 458 l 400 895 l 520 895 l 595 558 l 671 895 l 791 895 l 791 458 m 350 821 l 231 821 l 231 458 l 149 458 l 149 821 l 31 821 l 31 895 l 350 895 l 350 821 z "},"š":{"ha":659,"x_min":54,"x_max":604,"o":"m 98 937 l 262 937 l 323 851 l 385 937 l 549 937 l 391 741 l 256 741 l 98 937 m 424 466 q 326 528 408 528 q 287 524 304 528 q 256 514 269 521 q 235 497 243 507 q 228 474 228 487 q 232 457 228 464 q 250 443 235 450 q 293 428 264 436 q 370 408 321 420 q 474 378 430 394 q 547 340 517 363 q 590 283 576 317 q 604 201 604 250 q 585 115 604 155 q 532 47 566 76 q 448 1 497 18 q 338 -16 399 -16 q 54 204 83 -16 l 217 204 q 336 120 230 120 q 417 140 389 120 q 444 190 444 161 q 438 213 444 203 q 416 230 433 222 q 369 245 399 237 q 292 266 339 254 q 191 295 233 280 q 122 331 149 309 q 82 384 95 352 q 68 465 68 416 q 86 543 68 507 q 136 606 104 579 q 215 648 169 633 q 318 663 261 663 q 583 466 566 663 l 424 466 z "},"›":{"ha":452,"x_min":40,"x_max":401,"o":"m 401 347 l 189 43 l 40 43 l 214 347 l 40 651 l 189 651 l 401 347 z "},"œ":{"ha":1182,"x_min":37,"x_max":1098,"o":"m 1085 202 q 1048 109 1074 149 q 985 40 1022 68 q 901 -1 947 13 q 801 -16 854 -16 q 569 77 657 -16 q 473 6 528 28 q 344 -16 418 -16 q 219 7 275 -16 q 122 73 162 30 q 59 179 81 116 q 37 324 37 243 q 59 467 37 404 q 121 574 81 530 q 218 640 161 617 q 344 663 275 663 q 568 572 484 663 q 664 642 610 621 q 790 663 718 663 q 918 640 861 663 q 1015 574 975 617 q 1077 467 1055 530 q 1098 324 1098 404 l 1098 273 l 651 273 q 670 205 656 234 q 703 157 684 176 q 748 129 723 138 q 801 120 773 120 q 840 125 821 120 q 875 141 859 131 q 903 167 891 152 q 921 203 915 182 l 1085 202 m 926 408 q 874 497 910 467 q 790 528 839 528 q 707 498 743 528 q 656 408 670 469 l 926 408 m 344 120 q 401 133 375 120 q 447 172 428 146 q 476 235 466 197 q 487 324 487 273 q 476 413 487 375 q 447 476 466 451 q 401 515 428 502 q 344 528 375 528 q 286 515 312 528 q 240 476 259 502 q 211 413 222 451 q 201 324 201 375 q 211 235 201 273 q 240 172 222 197 q 286 133 259 146 q 344 120 312 120 z "},"ž":{"ha":663,"x_min":41,"x_max":623,"o":"m 407 741 l 273 741 l 114 937 l 278 937 l 340 851 l 401 937 l 566 937 l 407 741 m 623 0 l 41 0 l 41 125 l 380 507 l 62 507 l 62 648 l 604 648 l 604 524 l 265 143 l 623 143 l 623 0 z "},"Ÿ":{"ha":910,"x_min":17,"x_max":893,"o":"m 893 895 l 539 376 l 539 0 l 372 0 l 372 376 l 17 895 l 219 895 l 456 533 l 691 895 l 893 895 m 667 1014 l 509 1014 l 509 1182 l 667 1182 l 667 1014 m 406 1014 l 247 1014 l 247 1182 l 406 1182 l 406 1014 z "},"¡":{"ha":347,"x_min":88,"x_max":258,"o":"m 258 481 l 88 481 l 88 648 l 258 648 l 258 481 m 247 -248 l 100 -248 l 100 -23 l 121 442 l 227 442 l 247 -23 l 247 -248 z "},"¢":{"ha":696,"x_min":52,"x_max":630,"o":"m 165 -121 l 201 23 q 92 138 131 62 q 52 324 52 214 q 74 466 52 404 q 136 573 96 529 q 232 640 176 616 q 357 663 288 663 l 387 786 l 497 756 l 470 644 q 573 570 532 621 q 629 439 614 519 l 463 439 q 435 500 458 478 l 342 121 q 351 120 347 120 q 360 120 355 120 q 396 126 378 120 q 427 143 413 132 q 450 173 441 155 q 463 213 460 190 l 630 213 q 595 113 620 156 q 536 42 571 71 q 456 -1 500 14 q 360 -16 411 -16 q 334 -15 347 -16 q 310 -12 322 -14 l 277 -146 l 165 -121 m 216 324 q 223 251 216 283 q 242 194 230 218 l 323 522 q 245 459 274 509 q 216 324 216 410 z "},"£":{"ha":696,"x_min":41,"x_max":661,"o":"m 661 20 q 514 -14 584 -14 q 381 12 467 -14 q 313 31 341 24 q 266 37 284 37 q 41 -30 181 37 l 41 129 q 96 164 73 146 q 132 204 118 182 q 152 257 146 227 q 159 328 159 287 q 158 350 159 339 q 156 372 157 360 l 41 372 l 41 506 l 118 506 q 103 574 109 543 q 98 629 98 606 q 119 738 98 690 q 177 820 140 787 q 267 871 215 854 q 380 889 318 889 q 487 871 438 889 q 573 820 536 854 q 631 737 609 786 q 659 624 654 688 l 495 624 q 378 754 484 754 q 331 745 353 754 q 294 720 309 736 q 270 683 278 704 q 261 637 261 661 q 267 579 261 610 q 286 506 272 549 l 469 506 l 469 372 l 319 372 q 320 359 319 364 q 320 347 320 353 q 294 217 320 267 q 283 196 289 205 q 269 176 277 187 q 330 171 295 176 q 380 162 365 165 q 416 155 395 159 q 453 148 437 151 q 483 142 469 144 q 509 139 497 139 q 661 189 564 139 l 661 20 z "},"¤":{"ha":753,"x_min":39,"x_max":713,"o":"m 713 241 l 605 131 l 517 220 q 376 183 448 183 q 304 192 338 183 q 237 220 270 201 l 147 131 l 39 241 l 127 329 q 92 467 92 397 q 127 603 92 541 l 39 694 l 147 801 l 236 713 q 376 751 300 751 q 517 713 454 751 l 605 801 l 713 694 l 626 604 q 662 467 662 538 q 654 385 662 412 q 625 329 646 358 l 713 241 m 376 334 q 427 345 404 334 q 469 373 451 355 q 497 415 487 391 q 508 467 508 439 q 497 518 508 494 q 469 560 487 543 q 427 588 450 578 q 376 599 403 599 q 326 588 350 599 q 284 560 302 578 q 256 518 267 543 q 245 467 245 494 q 255 415 245 439 q 284 373 266 391 q 326 345 302 355 q 376 334 349 334 z "},"¥":{"ha":696,"x_min":-17,"x_max":714,"o":"m 714 876 l 499 500 l 659 500 l 659 370 l 429 370 l 429 320 l 659 320 l 659 190 l 429 190 l 429 0 l 271 0 l 271 190 l 38 190 l 38 320 l 271 320 l 271 370 l 38 370 l 38 500 l 199 500 l -17 876 l 165 876 l 348 542 l 532 876 l 714 876 z "},"¦":{"ha":352,"x_min":102,"x_max":250,"o":"m 250 -261 l 102 -261 l 102 256 l 250 256 l 250 -261 m 250 425 l 102 425 l 102 943 l 250 943 l 250 425 z "},"§":{"ha":696,"x_min":46,"x_max":649,"o":"m 239 -34 q 279 -103 248 -81 q 353 -126 309 -126 q 391 -120 374 -126 q 420 -104 408 -115 q 437 -81 431 -94 q 444 -54 444 -68 q 433 -24 444 -39 q 400 9 423 -9 q 338 51 376 27 q 245 110 300 75 q 184 152 212 130 q 137 195 157 174 q 102 235 116 216 q 79 267 87 253 q 46 388 46 323 q 53 439 46 413 q 74 490 60 466 q 107 536 87 515 q 154 574 127 558 q 112 638 126 605 q 98 707 98 672 q 116 781 98 745 q 167 846 134 818 q 245 892 199 875 q 345 910 290 910 q 524 853 454 910 q 612 694 593 797 l 448 694 q 413 755 438 735 q 351 775 387 775 q 315 770 332 775 q 286 758 298 766 q 266 738 273 749 q 258 713 258 726 q 264 684 258 697 q 288 654 270 671 q 338 614 305 637 q 426 555 371 591 q 503 506 463 531 q 575 451 543 481 q 628 381 608 420 q 649 289 649 342 q 642 237 649 263 q 620 186 634 211 q 584 139 605 161 q 536 101 563 117 q 603 -53 603 41 q 584 -137 603 -98 q 532 -203 566 -175 q 453 -247 499 -231 q 353 -263 408 -263 q 253 -248 299 -263 q 171 -204 207 -233 q 110 -133 134 -176 q 74 -34 85 -90 l 239 -34 m 245 496 q 226 478 234 490 q 212 453 218 467 q 204 426 207 440 q 201 399 201 412 q 231 329 201 367 q 330 245 260 292 l 438 174 q 460 193 450 182 q 477 217 470 204 q 488 243 484 230 q 492 267 492 256 q 460 336 492 298 q 357 422 429 374 l 245 496 z "},"¨":{"ha":452,"x_min":16,"x_max":436,"o":"m 436 754 l 278 754 l 278 922 l 436 922 l 436 754 m 176 754 l 16 754 l 16 922 l 176 922 l 176 754 z "},"©":{"ha":921,"x_min":4,"x_max":917,"o":"m 462 904 q 581 887 524 904 q 689 841 639 871 q 782 768 740 810 q 853 676 823 726 q 900 567 884 625 q 917 447 917 509 q 901 326 917 385 q 854 217 884 268 q 783 124 825 166 q 691 53 742 83 q 582 6 640 22 q 462 -11 524 -11 q 285 25 368 -11 q 139 123 202 61 q 40 269 77 185 q 4 447 4 352 q 40 624 4 541 q 139 769 77 707 q 285 868 202 831 q 462 904 368 904 m 461 83 q 601 112 535 83 q 716 190 667 140 q 794 306 766 239 q 823 447 823 372 q 795 586 823 520 q 717 702 766 652 q 602 781 667 751 q 461 810 536 810 q 320 781 387 810 q 204 703 254 752 q 126 587 155 653 q 97 447 97 521 q 126 306 97 372 q 204 190 155 239 q 320 112 254 140 q 461 83 387 83 m 688 362 q 463 180 643 180 q 362 199 407 180 q 284 252 317 218 q 235 336 252 287 q 218 445 218 385 q 235 554 218 506 q 284 636 252 603 q 363 688 317 670 q 466 706 409 706 q 544 694 508 706 q 608 661 581 683 q 655 608 636 640 q 682 536 674 576 l 578 536 q 464 622 560 622 q 402 609 429 622 q 357 573 376 597 q 329 517 338 550 q 319 443 319 484 q 329 372 319 404 q 358 318 339 340 q 403 282 377 295 q 462 269 429 269 q 584 362 563 269 l 688 362 z "},"ª":{"ha":501,"x_min":20,"x_max":464,"o":"m 323 668 l 296 668 q 195 652 231 668 q 159 608 159 636 q 173 581 159 593 q 213 569 186 569 q 241 570 225 569 q 272 575 256 572 q 301 585 288 578 q 323 602 315 591 l 323 668 m 34 802 q 99 923 45 886 q 253 960 154 960 q 344 949 304 960 q 410 917 383 939 q 450 858 437 894 q 464 770 464 821 l 464 465 l 323 465 l 323 504 q 264 469 296 482 q 196 455 233 455 q 126 466 158 455 q 70 496 94 477 q 34 544 47 516 q 20 605 20 571 q 38 672 20 642 q 93 724 56 702 q 183 757 129 745 q 309 769 237 769 l 321 769 q 315 810 321 795 q 299 833 309 825 q 276 844 289 842 q 250 847 263 847 q 178 802 189 847 l 34 802 m 457 315 l 43 315 l 43 418 l 457 418 l 457 315 z "},"«":{"ha":753,"x_min":71,"x_max":682,"o":"m 682 43 l 532 43 l 321 347 l 532 651 l 682 651 l 496 347 l 682 43 m 431 43 l 282 43 l 71 347 l 282 651 l 431 651 l 244 347 l 431 43 z "},"¬":{"ha":852,"x_min":119,"x_max":732,"o":"m 732 460 l 732 159 l 595 159 l 595 324 l 119 324 l 119 460 l 732 460 z "},"­":{"ha":847,"x_min":140,"x_max":707,"o":"m 707 347 l 140 347 l 140 482 l 707 482 l 707 347 z "},"®":{"ha":921,"x_min":4,"x_max":917,"o":"m 462 904 q 581 887 524 904 q 689 841 639 871 q 782 768 740 810 q 853 676 823 726 q 900 567 884 625 q 917 447 917 509 q 901 326 917 385 q 854 217 884 268 q 783 124 825 166 q 691 53 742 83 q 582 6 640 22 q 462 -11 524 -11 q 285 25 368 -11 q 139 123 202 61 q 40 269 77 185 q 4 447 4 352 q 40 624 4 541 q 139 769 77 707 q 285 868 202 831 q 462 904 368 904 m 461 83 q 601 112 535 83 q 716 190 667 140 q 794 306 766 239 q 823 447 823 372 q 795 586 823 520 q 717 702 766 652 q 602 781 667 751 q 461 810 536 810 q 320 781 387 810 q 204 703 254 752 q 126 587 155 653 q 97 447 97 521 q 126 306 97 372 q 204 190 155 239 q 320 112 254 140 q 461 83 387 83 m 676 189 l 566 189 l 526 301 q 482 366 511 344 q 408 389 453 389 l 356 389 l 356 189 l 260 189 l 260 689 l 451 689 q 651 547 651 689 q 552 405 651 429 q 621 323 597 380 l 676 189 m 356 475 l 444 475 q 549 541 549 475 q 441 604 549 604 l 356 604 l 356 475 z "},"¯":{"ha":677,"x_min":-6,"x_max":684,"o":"m 684 1070 l -6 1070 l -6 1183 l 684 1183 l 684 1070 z "},"°":{"ha":543,"x_min":77,"x_max":466,"o":"m 272 955 q 348 939 313 955 q 409 896 383 923 q 451 834 435 869 q 466 760 466 799 q 450 685 466 720 q 408 623 435 649 q 347 581 382 596 q 272 565 311 565 q 196 580 232 565 q 134 622 161 595 q 92 684 108 648 q 77 760 77 720 q 92 836 77 800 q 134 897 108 871 q 196 939 161 924 q 272 955 232 955 m 272 683 q 301 689 288 683 q 325 706 315 695 q 341 731 335 717 q 347 760 347 745 q 341 790 347 776 q 325 814 335 804 q 301 830 315 824 q 272 836 288 836 q 218 814 239 836 q 197 760 197 793 q 202 731 197 745 q 218 706 208 717 q 242 689 229 695 q 272 683 256 683 z "},"±":{"ha":791,"x_min":74,"x_max":717,"o":"m 717 415 l 473 415 l 473 170 l 317 170 l 317 415 l 74 415 l 74 568 l 317 568 l 317 813 l 473 813 l 473 568 l 717 568 l 717 415 m 717 0 l 74 0 l 74 153 l 717 153 l 717 0 z "},"²":{"ha":452,"x_min":7,"x_max":431,"o":"m 431 444 l 7 444 q 59 560 16 509 q 179 659 102 612 q 241 699 218 682 q 277 729 264 715 q 294 754 290 742 q 298 781 298 766 q 228 835 298 835 q 144 772 159 835 l 18 772 q 229 941 51 941 q 313 929 275 941 q 376 897 350 918 q 416 848 402 877 q 429 786 429 820 q 419 726 429 752 q 391 679 408 700 q 351 642 374 659 q 304 611 328 626 q 269 591 279 597 q 245 576 259 585 q 210 551 231 568 l 431 551 l 431 444 z "},"³":{"ha":452,"x_min":21,"x_max":427,"o":"m 138 572 q 168 545 147 554 q 217 536 189 536 q 297 605 297 536 q 280 638 297 629 q 222 648 263 648 l 170 648 l 170 743 q 224 747 203 743 q 256 759 245 751 q 272 776 268 766 q 277 799 277 787 q 216 836 277 836 q 194 835 205 836 q 174 831 183 834 q 158 821 165 827 q 147 804 151 814 l 28 804 q 89 909 41 877 q 217 941 138 941 q 296 931 261 941 q 354 903 330 921 q 391 861 378 886 q 404 808 404 837 q 349 703 404 736 q 427 587 427 672 q 412 524 427 553 q 371 475 398 496 q 307 444 345 455 q 221 432 269 432 q 85 466 134 432 q 21 572 37 500 l 138 572 z "},"´":{"ha":458,"x_min":87,"x_max":373,"o":"m 180 926 l 373 926 l 227 741 l 87 741 l 180 926 z "},"µ":{"ha":696,"x_min":67,"x_max":670,"o":"m 670 -7 l 588 -7 q 461 53 496 -7 q 382 2 422 18 q 296 -14 342 -14 q 227 -3 259 -14 l 227 -229 l 67 -229 l 67 648 l 227 648 l 227 217 q 318 126 227 126 q 351 130 336 126 q 381 143 366 134 q 411 167 395 152 q 445 205 427 182 l 445 648 l 605 648 l 605 159 q 619 128 605 137 q 670 119 633 119 l 670 -7 z "},"¶":{"ha":673,"x_min":-2,"x_max":673,"o":"m 673 761 l 594 761 l 594 -229 l 458 -229 l 458 761 l 359 761 l 359 -229 l 224 -229 l 224 380 q 126 409 169 387 q 56 464 84 431 q 13 540 27 497 q -2 631 -2 583 q 19 744 -2 694 q 77 826 39 793 q 170 878 115 860 q 292 895 224 895 l 673 895 l 673 761 z "},"·":{"ha":395,"x_min":64,"x_max":330,"o":"m 64 524 q 75 575 64 551 q 104 617 85 600 q 146 646 122 635 q 197 656 170 656 q 249 645 224 656 q 291 617 273 635 q 320 575 309 600 q 330 524 330 551 q 320 474 330 498 q 291 431 309 450 q 249 402 273 413 q 197 392 224 392 q 146 402 170 392 q 104 431 122 413 q 75 473 85 449 q 64 524 64 497 z "},"¸":{"ha":452,"x_min":77,"x_max":351,"o":"m 247 -43 q 298 -54 278 -46 q 331 -75 319 -62 q 347 -103 342 -87 q 351 -141 351 -120 q 340 -194 351 -170 q 305 -233 329 -217 q 243 -258 281 -250 q 152 -267 205 -267 q 135 -267 145 -267 q 115 -266 125 -267 q 94 -264 104 -265 q 77 -262 83 -263 l 77 -161 q 92 -165 82 -163 q 114 -168 102 -166 q 137 -170 125 -169 q 156 -170 148 -170 q 206 -134 206 -170 q 122 -101 206 -101 l 122 18 l 247 18 l 247 -43 z "},"¹":{"ha":452,"x_min":43,"x_max":305,"o":"m 305 412 l 183 412 l 183 713 q 43 692 133 692 l 43 793 q 207 910 207 793 l 305 910 l 305 412 z "},"º":{"ha":494,"x_min":20,"x_max":474,"o":"m 247 960 q 338 942 296 960 q 410 890 380 924 q 457 810 440 857 q 474 705 474 763 q 457 597 474 645 q 410 517 440 550 q 338 467 380 484 q 247 450 296 450 q 153 467 195 450 q 82 516 111 484 q 36 597 52 549 q 20 705 20 644 q 36 811 20 764 q 83 891 53 858 q 154 942 113 924 q 247 960 196 960 m 247 582 q 330 705 330 582 q 247 825 330 825 q 165 705 165 825 q 247 582 165 582 m 454 315 l 41 315 l 41 418 l 454 418 l 454 315 z "},"»":{"ha":753,"x_min":71,"x_max":682,"o":"m 257 347 l 71 651 l 220 651 l 431 347 l 220 43 l 71 43 l 257 347 m 509 347 l 321 651 l 471 651 l 682 347 l 471 43 l 321 43 l 509 347 z "},"¼":{"ha":1045,"x_min":56,"x_max":962,"o":"m 319 448 l 197 448 l 197 713 q 56 692 146 692 l 56 793 q 220 910 220 793 l 319 910 l 319 448 m 895 895 l 257 0 l 119 0 l 757 895 l 895 895 m 962 90 l 901 90 l 901 0 l 787 0 l 787 90 l 543 90 l 543 182 l 807 475 l 901 475 l 901 195 l 962 195 l 962 90 m 787 195 l 787 326 l 669 195 l 787 195 z "},"½":{"ha":1045,"x_min":43,"x_max":1007,"o":"m 881 895 l 243 0 l 106 0 l 743 895 l 881 895 m 1007 0 l 583 0 q 635 117 592 65 q 755 215 677 168 q 817 255 793 238 q 853 285 840 272 q 869 311 865 298 q 873 337 873 323 q 804 391 873 391 q 720 329 734 391 l 594 329 q 804 497 627 497 q 888 486 851 497 q 952 454 926 474 q 991 405 978 433 q 1005 342 1005 376 q 995 282 1005 309 q 967 236 984 256 q 927 199 949 215 q 880 168 904 182 q 831 139 855 153 q 785 108 806 124 l 1007 108 l 1007 0 m 305 412 l 183 412 l 183 713 q 43 692 133 692 l 43 793 q 207 910 207 793 l 305 910 l 305 412 z "},"¾":{"ha":1045,"x_min":21,"x_max":962,"o":"m 928 895 l 291 0 l 153 0 l 791 895 l 928 895 m 962 90 l 901 90 l 901 0 l 787 0 l 787 90 l 543 90 l 543 182 l 807 475 l 901 475 l 901 195 l 962 195 l 962 90 m 787 195 l 787 326 l 669 195 l 787 195 m 138 541 q 168 514 147 523 q 217 505 189 505 q 297 574 297 505 q 280 607 297 598 q 222 616 263 616 l 170 616 l 170 712 q 224 716 203 712 q 256 727 245 720 q 272 745 268 734 q 277 768 277 755 q 216 805 277 805 q 194 804 205 805 q 174 800 183 803 q 158 790 165 796 q 147 772 151 783 l 28 772 q 89 878 41 846 q 217 910 138 910 q 296 900 261 910 q 354 872 330 890 q 391 830 378 854 q 404 777 404 806 q 349 671 404 705 q 427 555 427 641 q 412 493 427 522 q 371 444 398 465 q 307 412 345 424 q 221 401 269 401 q 85 435 134 401 q 21 541 37 469 l 138 541 z "},"¿":{"ha":696,"x_min":40,"x_max":629,"o":"m 629 28 q 598 -93 623 -39 q 535 -184 574 -146 q 445 -242 496 -222 q 332 -262 393 -262 q 213 -244 267 -262 q 121 -192 159 -225 q 61 -113 83 -159 q 40 -12 40 -66 q 50 57 40 24 q 76 118 59 89 q 117 172 93 146 q 169 222 140 198 q 220 269 201 248 q 246 304 239 289 q 260 432 260 333 l 412 432 q 412 352 412 408 q 386 241 412 296 q 290 130 360 189 q 242 85 259 104 q 216 51 225 66 q 205 22 208 35 q 203 -5 203 9 q 213 -54 203 -32 q 239 -93 222 -77 q 279 -118 256 -109 q 330 -127 302 -127 q 466 28 441 -127 l 629 28 m 248 648 l 417 648 l 417 481 l 248 481 l 248 648 z "},"À":{"ha":875,"x_min":3,"x_max":871,"o":"m 535 398 l 427 682 l 324 398 l 535 398 m 871 0 l 685 0 l 587 256 l 274 256 l 180 0 l 3 0 l 348 896 l 507 896 l 871 0 m 520 941 l 380 941 l 234 1127 l 427 1127 l 520 941 z "},"Á":{"ha":875,"x_min":3,"x_max":871,"o":"m 535 398 l 427 682 l 324 398 l 535 398 m 871 0 l 685 0 l 587 256 l 274 256 l 180 0 l 3 0 l 348 896 l 507 896 l 871 0 m 377 1127 l 570 1127 l 423 941 l 283 941 l 377 1127 z "},"Â":{"ha":875,"x_min":3,"x_max":871,"o":"m 535 398 l 427 682 l 324 398 l 535 398 m 871 0 l 685 0 l 587 256 l 274 256 l 180 0 l 3 0 l 348 896 l 507 896 l 871 0 m 652 941 l 488 941 l 427 1027 l 365 941 l 201 941 l 359 1138 l 494 1138 l 652 941 z "},"Ã":{"ha":875,"x_min":3,"x_max":871,"o":"m 535 398 l 427 682 l 324 398 l 535 398 m 871 0 l 685 0 l 587 256 l 274 256 l 180 0 l 3 0 l 348 896 l 507 896 l 871 0 m 669 1122 q 659 1058 669 1088 q 629 1005 648 1028 q 584 968 610 982 q 526 955 557 955 q 489 961 512 955 q 444 974 467 966 q 404 986 421 981 q 374 992 387 992 q 356 991 364 992 q 340 985 348 989 q 327 974 332 981 q 320 953 321 966 l 192 953 q 203 1016 192 985 q 233 1069 214 1046 q 278 1107 252 1093 q 336 1121 304 1121 q 371 1115 349 1121 q 416 1101 393 1109 q 456 1088 439 1094 q 488 1082 474 1082 q 506 1083 498 1082 q 521 1088 513 1084 q 535 1100 529 1093 q 542 1122 541 1108 l 669 1122 z "},"Ä":{"ha":875,"x_min":3,"x_max":871,"o":"m 535 398 l 427 682 l 324 398 l 535 398 m 871 0 l 685 0 l 587 256 l 274 256 l 180 0 l 3 0 l 348 896 l 507 896 l 871 0 m 640 955 l 481 955 l 481 1123 l 640 1123 l 640 955 m 379 955 l 220 955 l 220 1123 l 379 1123 l 379 955 z "},"Å":{"ha":875,"x_min":3,"x_max":871,"o":"m 426 1152 q 473 1142 451 1152 q 512 1116 495 1133 q 538 1077 528 1099 q 547 1031 547 1055 q 538 984 547 1006 q 512 946 528 962 q 473 920 496 930 q 426 910 451 910 q 379 919 401 910 q 340 945 357 928 q 315 983 324 961 q 306 1031 306 1005 q 315 1077 306 1055 q 340 1116 324 1099 q 379 1142 357 1133 q 426 1152 401 1152 m 426 983 q 460 997 446 983 q 473 1031 473 1010 q 459 1064 473 1050 q 426 1078 446 1078 q 393 1064 407 1078 q 380 1031 380 1050 q 393 997 380 1011 q 426 983 407 983 m 535 398 l 427 682 l 324 398 l 535 398 m 871 0 l 685 0 l 587 256 l 274 256 l 180 0 l 3 0 l 348 896 l 507 896 l 871 0 z "},"Æ":{"ha":1258,"x_min":3,"x_max":1190,"o":"m 1190 0 l 585 0 l 585 243 l 331 243 l 196 0 l 3 0 l 521 895 l 1171 895 l 1171 742 l 751 742 l 751 539 l 1139 539 l 1139 387 l 751 387 l 751 154 l 1190 154 l 1190 0 m 585 397 l 585 705 l 414 397 l 585 397 z "},"Ç":{"ha":926,"x_min":68,"x_max":858,"o":"m 686 614 q 661 675 679 648 q 618 721 644 703 q 559 750 592 740 q 488 760 526 760 q 385 739 431 760 q 306 680 338 719 q 256 582 273 640 q 238 448 238 524 q 256 315 238 373 q 306 216 273 256 q 384 155 338 176 q 486 134 430 134 q 620 176 567 134 q 686 297 673 218 l 858 297 q 817 164 848 222 q 737 66 785 106 q 625 6 688 26 q 488 -14 562 -14 q 313 18 391 -14 q 181 111 235 51 q 97 257 127 172 q 68 448 68 342 q 98 640 68 554 q 182 785 127 725 q 314 878 237 845 q 488 910 392 910 q 618 889 557 910 q 729 829 680 868 q 811 736 778 791 q 856 614 844 681 l 686 614 m 559 -43 q 610 -54 590 -46 q 643 -75 631 -62 q 659 -103 654 -87 q 663 -141 663 -120 q 652 -194 663 -170 q 617 -233 641 -217 q 555 -258 593 -250 q 464 -267 517 -267 q 447 -267 457 -267 q 427 -266 437 -267 q 406 -264 416 -265 q 389 -262 395 -263 l 389 -161 q 404 -165 394 -163 q 426 -168 414 -166 q 449 -170 437 -169 q 468 -170 460 -170 q 518 -134 518 -170 q 434 -101 518 -101 l 434 18 l 559 18 l 559 -43 z "},"È":{"ha":861,"x_min":109,"x_max":793,"o":"m 793 0 l 109 0 l 109 895 l 773 895 l 773 741 l 275 741 l 275 539 l 741 539 l 741 387 l 275 387 l 275 154 l 793 154 l 793 0 m 536 941 l 396 941 l 250 1127 l 442 1127 l 536 941 z "},"É":{"ha":861,"x_min":109,"x_max":793,"o":"m 793 0 l 109 0 l 109 895 l 773 895 l 773 741 l 275 741 l 275 539 l 741 539 l 741 387 l 275 387 l 275 154 l 793 154 l 793 0 m 452 1127 l 644 1127 l 498 941 l 358 941 l 452 1127 z "},"Ê":{"ha":861,"x_min":109,"x_max":793,"o":"m 793 0 l 109 0 l 109 895 l 773 895 l 773 741 l 275 741 l 275 539 l 741 539 l 741 387 l 275 387 l 275 154 l 793 154 l 793 0 m 680 941 l 515 941 l 454 1027 l 392 941 l 228 941 l 387 1138 l 521 1138 l 680 941 z "},"Ë":{"ha":861,"x_min":109,"x_max":793,"o":"m 793 0 l 109 0 l 109 895 l 773 895 l 773 741 l 275 741 l 275 539 l 741 539 l 741 387 l 275 387 l 275 154 l 793 154 l 793 0 m 661 955 l 503 955 l 503 1123 l 661 1123 l 661 955 m 401 955 l 241 955 l 241 1123 l 401 1123 l 401 955 z "},"Ì":{"ha":383,"x_min":-8,"x_max":278,"o":"m 275 0 l 109 0 l 109 895 l 275 895 l 275 0 m 278 941 l 138 941 l -8 1127 l 184 1127 l 278 941 z "},"Í":{"ha":383,"x_min":87,"x_max":373,"o":"m 275 0 l 109 0 l 109 895 l 275 895 l 275 0 m 180 1127 l 373 1127 l 227 941 l 87 941 l 180 1127 z "},"Î":{"ha":383,"x_min":-30,"x_max":422,"o":"m 275 0 l 109 0 l 109 895 l 275 895 l 275 0 m 422 941 l 258 941 l 196 1027 l 134 941 l -30 941 l 129 1138 l 263 1138 l 422 941 z "},"Ï":{"ha":383,"x_min":-18,"x_max":402,"o":"m 275 0 l 109 0 l 109 895 l 275 895 l 275 0 m 402 955 l 244 955 l 244 1123 l 402 1123 l 402 955 m 142 955 l -18 955 l -18 1123 l 142 1123 l 142 955 z "},"Ð":{"ha":929,"x_min":5,"x_max":861,"o":"m 5 526 l 109 526 l 109 895 l 404 895 q 861 452 861 895 q 404 0 861 0 l 109 0 l 109 372 l 5 372 l 5 526 m 690 452 q 677 574 690 520 q 631 665 664 627 q 543 722 598 702 q 403 741 487 741 l 276 741 l 276 526 l 475 526 l 475 372 l 276 372 l 276 154 l 403 154 q 542 174 486 154 q 630 233 597 195 q 677 327 663 271 q 690 452 690 382 z "},"Ñ":{"ha":935,"x_min":109,"x_max":826,"o":"m 826 0 l 669 0 l 269 599 l 269 0 l 109 0 l 109 895 l 267 895 l 664 296 l 664 895 l 826 895 l 826 0 m 697 1122 q 687 1058 697 1088 q 657 1005 676 1028 q 612 968 638 982 q 553 955 585 955 q 517 961 540 955 q 472 974 494 966 q 432 986 449 981 q 401 992 414 992 q 384 991 392 992 q 368 985 376 989 q 355 974 360 981 q 348 953 349 966 l 220 953 q 231 1016 220 985 q 260 1069 241 1046 q 306 1107 279 1093 q 364 1121 332 1121 q 399 1115 377 1121 q 444 1101 421 1109 q 484 1088 467 1094 q 516 1082 502 1082 q 533 1083 526 1082 q 549 1088 541 1084 q 563 1100 557 1093 q 570 1122 568 1108 l 697 1122 z "},"Ò":{"ha":997,"x_min":68,"x_max":929,"o":"m 498 910 q 671 877 592 910 q 807 783 750 844 q 897 637 865 723 q 929 448 929 552 q 897 261 929 346 q 808 115 865 176 q 672 20 751 54 q 498 -14 593 -14 q 325 19 404 -14 q 189 114 245 53 q 100 260 132 175 q 68 448 68 345 q 100 638 68 553 q 190 784 132 724 q 326 877 248 844 q 498 910 405 910 m 498 134 q 603 156 555 134 q 686 217 651 177 q 740 316 720 258 q 759 448 759 374 q 739 581 759 523 q 685 679 720 639 q 603 740 650 719 q 500 760 555 760 q 395 739 443 760 q 312 678 347 718 q 258 579 277 637 q 238 448 238 522 q 257 316 238 374 q 311 217 277 258 q 394 156 346 177 q 498 134 441 134 m 590 941 l 450 941 l 304 1127 l 496 1127 l 590 941 z "},"Ó":{"ha":997,"x_min":68,"x_max":929,"o":"m 498 910 q 671 877 592 910 q 807 783 750 844 q 897 637 865 723 q 929 448 929 552 q 897 261 929 346 q 808 115 865 176 q 672 20 751 54 q 498 -14 593 -14 q 325 19 404 -14 q 189 114 245 53 q 100 260 132 175 q 68 448 68 345 q 100 638 68 553 q 190 784 132 724 q 326 877 248 844 q 498 910 405 910 m 498 134 q 603 156 555 134 q 686 217 651 177 q 740 316 720 258 q 759 448 759 374 q 739 581 759 523 q 685 679 720 639 q 603 740 650 719 q 500 760 555 760 q 395 739 443 760 q 312 678 347 718 q 258 579 277 637 q 238 448 238 522 q 257 316 238 374 q 311 217 277 258 q 394 156 346 177 q 498 134 441 134 m 465 1127 l 658 1127 l 511 941 l 372 941 l 465 1127 z "},"Ô":{"ha":997,"x_min":68,"x_max":929,"o":"m 498 910 q 671 877 592 910 q 807 783 750 844 q 897 637 865 723 q 929 448 929 552 q 897 261 929 346 q 808 115 865 176 q 672 20 751 54 q 498 -14 593 -14 q 325 19 404 -14 q 189 114 245 53 q 100 260 132 175 q 68 448 68 345 q 100 638 68 553 q 190 784 132 724 q 326 877 248 844 q 498 910 405 910 m 498 134 q 603 156 555 134 q 686 217 651 177 q 740 316 720 258 q 759 448 759 374 q 739 581 759 523 q 685 679 720 639 q 603 740 650 719 q 500 760 555 760 q 395 739 443 760 q 312 678 347 718 q 258 579 277 637 q 238 448 238 522 q 257 316 238 374 q 311 217 277 258 q 394 156 346 177 q 498 134 441 134 m 727 941 l 563 941 l 501 1027 l 439 941 l 275 941 l 434 1138 l 568 1138 l 727 941 z "},"Õ":{"ha":997,"x_min":68,"x_max":929,"o":"m 498 910 q 671 877 592 910 q 807 783 750 844 q 897 637 865 723 q 929 448 929 552 q 897 261 929 346 q 808 115 865 176 q 672 20 751 54 q 498 -14 593 -14 q 325 19 404 -14 q 189 114 245 53 q 100 260 132 175 q 68 448 68 345 q 100 638 68 553 q 190 784 132 724 q 326 877 248 844 q 498 910 405 910 m 498 134 q 603 156 555 134 q 686 217 651 177 q 740 316 720 258 q 759 448 759 374 q 739 581 759 523 q 685 679 720 639 q 603 740 650 719 q 500 760 555 760 q 395 739 443 760 q 312 678 347 718 q 258 579 277 637 q 238 448 238 522 q 257 316 238 374 q 311 217 277 258 q 394 156 346 177 q 498 134 441 134 m 739 1122 q 729 1058 739 1088 q 699 1005 718 1028 q 654 968 680 982 q 595 955 627 955 q 559 961 582 955 q 514 974 536 966 q 474 986 491 981 q 444 992 456 992 q 426 991 434 992 q 410 985 418 989 q 397 974 402 981 q 390 953 391 966 l 262 953 q 273 1016 262 985 q 302 1069 283 1046 q 348 1107 321 1093 q 406 1121 374 1121 q 441 1115 419 1121 q 486 1101 463 1109 q 526 1088 509 1094 q 558 1082 544 1082 q 575 1083 568 1082 q 591 1088 583 1084 q 605 1100 599 1093 q 612 1122 610 1108 l 739 1122 z "},"Ö":{"ha":997,"x_min":68,"x_max":929,"o":"m 498 910 q 671 877 592 910 q 807 783 750 844 q 897 637 865 723 q 929 448 929 552 q 897 261 929 346 q 808 115 865 176 q 672 20 751 54 q 498 -14 593 -14 q 325 19 404 -14 q 189 114 245 53 q 100 260 132 175 q 68 448 68 345 q 100 638 68 553 q 190 784 132 724 q 326 877 248 844 q 498 910 405 910 m 498 134 q 603 156 555 134 q 686 217 651 177 q 740 316 720 258 q 759 448 759 374 q 739 581 759 523 q 685 679 720 639 q 603 740 650 719 q 500 760 555 760 q 395 739 443 760 q 312 678 347 718 q 258 579 277 637 q 238 448 238 522 q 257 316 238 374 q 311 217 277 258 q 394 156 346 177 q 498 134 441 134 m 707 955 l 549 955 l 549 1123 l 707 1123 l 707 955 m 447 955 l 288 955 l 288 1123 l 447 1123 l 447 955 z "},"×":{"ha":730,"x_min":85,"x_max":645,"o":"m 645 256 l 541 152 l 365 328 l 189 152 l 85 256 l 261 432 l 85 608 l 189 712 l 365 536 l 541 712 l 645 608 l 469 432 l 645 256 z "},"Ø":{"ha":997,"x_min":51,"x_max":950,"o":"m 498 910 q 636 890 572 910 q 753 831 701 869 l 850 939 l 950 855 l 845 737 q 907 607 886 680 q 929 448 929 534 q 897 261 929 346 q 808 115 865 176 q 672 20 751 54 q 498 -14 593 -14 q 360 6 425 -14 q 243 64 296 26 l 147 -43 l 51 43 l 153 157 q 90 289 112 216 q 68 448 68 361 q 100 638 68 553 q 190 784 132 724 q 326 877 248 844 q 498 910 405 910 m 498 134 q 603 156 555 134 q 686 217 651 177 q 740 316 720 258 q 759 448 759 374 q 751 535 759 495 q 729 608 743 574 l 349 182 q 417 146 380 159 q 498 134 455 134 m 238 448 q 246 361 238 401 q 269 287 254 321 l 648 713 q 500 760 585 760 q 395 739 443 760 q 312 678 347 718 q 258 579 277 637 q 238 448 238 522 z "},"Ù":{"ha":935,"x_min":109,"x_max":826,"o":"m 467 -14 q 323 3 382 -14 q 224 48 264 20 q 161 116 184 77 q 126 199 138 155 q 112 290 115 243 q 109 382 109 337 l 109 895 l 275 895 l 275 384 q 288 259 275 307 q 326 185 301 212 q 386 148 350 158 q 467 138 421 138 q 550 148 514 138 q 609 185 585 158 q 646 260 633 212 q 658 384 658 308 l 658 895 l 826 895 l 826 382 q 810 215 826 289 q 753 91 794 142 q 643 13 713 40 q 467 -14 574 -14 m 555 941 l 415 941 l 269 1127 l 461 1127 l 555 941 z "},"Ú":{"ha":935,"x_min":109,"x_max":826,"o":"m 467 -14 q 323 3 382 -14 q 224 48 264 20 q 161 116 184 77 q 126 199 138 155 q 112 290 115 243 q 109 382 109 337 l 109 895 l 275 895 l 275 384 q 288 259 275 307 q 326 185 301 212 q 386 148 350 158 q 467 138 421 138 q 550 148 514 138 q 609 185 585 158 q 646 260 633 212 q 658 384 658 308 l 658 895 l 826 895 l 826 382 q 810 215 826 289 q 753 91 794 142 q 643 13 713 40 q 467 -14 574 -14 m 471 1127 l 663 1127 l 517 941 l 377 941 l 471 1127 z "},"Û":{"ha":935,"x_min":109,"x_max":826,"o":"m 467 -14 q 323 3 382 -14 q 224 48 264 20 q 161 116 184 77 q 126 199 138 155 q 112 290 115 243 q 109 382 109 337 l 109 895 l 275 895 l 275 384 q 288 259 275 307 q 326 185 301 212 q 386 148 350 158 q 467 138 421 138 q 550 148 514 138 q 609 185 585 158 q 646 260 633 212 q 658 384 658 308 l 658 895 l 826 895 l 826 382 q 810 215 826 289 q 753 91 794 142 q 643 13 713 40 q 467 -14 574 -14 m 692 941 l 528 941 l 466 1027 l 404 941 l 240 941 l 399 1138 l 533 1138 l 692 941 z "},"Ü":{"ha":935,"x_min":109,"x_max":826,"o":"m 467 -14 q 323 3 382 -14 q 224 48 264 20 q 161 116 184 77 q 126 199 138 155 q 112 290 115 243 q 109 382 109 337 l 109 895 l 275 895 l 275 384 q 288 259 275 307 q 326 185 301 212 q 386 148 350 158 q 467 138 421 138 q 550 148 514 138 q 609 185 585 158 q 646 260 633 212 q 658 384 658 308 l 658 895 l 826 895 l 826 382 q 810 215 826 289 q 753 91 794 142 q 643 13 713 40 q 467 -14 574 -14 m 675 955 l 517 955 l 517 1123 l 675 1123 l 675 955 m 414 955 l 255 955 l 255 1123 l 414 1123 l 414 955 z "},"Ý":{"ha":910,"x_min":17,"x_max":893,"o":"m 893 895 l 539 376 l 539 0 l 372 0 l 372 376 l 17 895 l 219 895 l 456 533 l 691 895 l 893 895 m 452 1127 l 644 1127 l 498 941 l 358 941 l 452 1127 z "},"Þ":{"ha":865,"x_min":109,"x_max":804,"o":"m 109 895 l 275 895 l 275 730 l 452 730 q 585 718 521 730 q 697 675 648 706 q 774 592 745 644 q 804 458 804 539 q 717 243 804 315 q 459 172 630 172 l 275 172 l 275 0 l 109 0 l 109 895 m 275 325 l 463 325 q 541 333 509 325 q 593 358 573 342 q 623 399 614 375 q 633 455 633 423 q 619 517 633 494 q 581 554 605 541 q 525 571 557 567 q 459 576 494 576 l 275 576 l 275 325 z "},"ß":{"ha":783,"x_min":68,"x_max":729,"o":"m 430 158 q 453 130 435 138 q 494 121 471 121 q 548 141 528 121 q 568 193 568 161 q 563 219 568 208 q 548 242 558 231 q 519 266 537 254 q 475 295 501 279 q 418 334 441 315 q 380 373 395 353 q 359 416 366 393 q 352 471 352 439 q 359 507 352 488 q 376 547 366 526 q 397 589 386 568 q 419 631 409 610 q 436 669 429 651 q 443 702 443 687 q 436 728 443 715 q 416 751 429 741 q 383 768 403 762 q 336 774 363 774 q 291 766 311 774 q 257 740 271 759 q 235 688 243 721 q 227 604 227 654 l 227 0 l 68 0 l 68 608 q 338 910 68 910 q 458 894 409 910 q 538 850 507 878 q 582 787 568 823 q 596 713 596 751 q 583 651 596 680 q 554 594 570 621 q 525 543 538 568 q 512 494 512 518 q 515 476 512 486 q 527 453 517 466 q 555 425 537 440 q 604 389 573 409 q 665 342 641 364 q 704 298 690 320 q 724 252 718 275 q 729 201 729 228 q 712 118 729 157 q 665 50 695 79 q 591 3 634 20 q 496 -14 548 -14 q 416 -2 453 -14 q 349 32 378 9 q 299 86 319 54 q 271 158 279 117 l 430 158 z "},"à":{"ha":718,"x_min":54,"x_max":626,"o":"m 467 288 l 420 288 q 217 189 217 288 q 243 138 217 157 q 315 120 270 120 q 401 138 359 120 q 467 191 442 156 l 467 288 m 72 456 q 357 663 100 663 q 469 652 419 663 q 554 612 519 641 q 607 535 589 584 q 626 411 626 486 l 626 0 l 467 0 l 467 34 q 382 -3 428 10 q 284 -16 336 -16 q 193 -1 235 -16 q 120 40 151 14 q 72 103 90 66 q 54 184 54 140 q 441 419 54 419 l 467 419 q 463 466 467 446 q 447 499 459 486 q 412 520 435 513 q 350 528 389 528 q 274 513 302 528 q 235 456 245 498 l 72 456 m 451 741 l 311 741 l 165 926 l 357 926 l 451 741 z "},"á":{"ha":718,"x_min":54,"x_max":626,"o":"m 467 288 l 420 288 q 217 189 217 288 q 243 138 217 157 q 315 120 270 120 q 401 138 359 120 q 467 191 442 156 l 467 288 m 72 456 q 357 663 100 663 q 469 652 419 663 q 554 612 519 641 q 607 535 589 584 q 626 411 626 486 l 626 0 l 467 0 l 467 34 q 382 -3 428 10 q 284 -16 336 -16 q 193 -1 235 -16 q 120 40 151 14 q 72 103 90 66 q 54 184 54 140 q 441 419 54 419 l 467 419 q 463 466 467 446 q 447 499 459 486 q 412 520 435 513 q 350 528 389 528 q 274 513 302 528 q 235 456 245 498 l 72 456 m 330 926 l 522 926 l 376 741 l 236 741 l 330 926 z "},"â":{"ha":718,"x_min":54,"x_max":626,"o":"m 467 288 l 420 288 q 217 189 217 288 q 243 138 217 157 q 315 120 270 120 q 401 138 359 120 q 467 191 442 156 l 467 288 m 72 456 q 357 663 100 663 q 469 652 419 663 q 554 612 519 641 q 607 535 589 584 q 626 411 626 486 l 626 0 l 467 0 l 467 34 q 382 -3 428 10 q 284 -16 336 -16 q 193 -1 235 -16 q 120 40 151 14 q 72 103 90 66 q 54 184 54 140 q 441 419 54 419 l 467 419 q 463 466 467 446 q 447 499 459 486 q 412 520 435 513 q 350 528 389 528 q 274 513 302 528 q 235 456 245 498 l 72 456 m 581 741 l 417 741 l 355 827 l 294 741 l 130 741 l 288 937 l 422 937 l 581 741 z "},"ã":{"ha":718,"x_min":54,"x_max":626,"o":"m 467 288 l 420 288 q 217 189 217 288 q 243 138 217 157 q 315 120 270 120 q 401 138 359 120 q 467 191 442 156 l 467 288 m 72 456 q 357 663 100 663 q 469 652 419 663 q 554 612 519 641 q 607 535 589 584 q 626 411 626 486 l 626 0 l 467 0 l 467 34 q 382 -3 428 10 q 284 -16 336 -16 q 193 -1 235 -16 q 120 40 151 14 q 72 103 90 66 q 54 184 54 140 q 441 419 54 419 l 467 419 q 463 466 467 446 q 447 499 459 486 q 412 520 435 513 q 350 528 389 528 q 274 513 302 528 q 235 456 245 498 l 72 456 m 587 921 q 576 858 587 888 q 547 804 566 827 q 501 768 528 781 q 443 754 475 754 q 407 760 429 754 q 361 773 384 766 q 321 786 338 780 q 291 791 304 791 q 273 790 281 791 q 257 785 265 789 q 244 773 250 781 q 237 752 239 765 l 109 752 q 120 815 109 785 q 150 868 131 845 q 195 906 169 892 q 254 920 222 920 q 289 914 267 920 q 333 901 311 908 q 374 887 356 893 q 406 881 391 881 q 423 882 415 881 q 438 888 431 884 q 452 900 446 892 q 459 921 458 907 l 587 921 z "},"ä":{"ha":718,"x_min":54,"x_max":626,"o":"m 467 288 l 420 288 q 217 189 217 288 q 243 138 217 157 q 315 120 270 120 q 401 138 359 120 q 467 191 442 156 l 467 288 m 72 456 q 357 663 100 663 q 469 652 419 663 q 554 612 519 641 q 607 535 589 584 q 626 411 626 486 l 626 0 l 467 0 l 467 34 q 382 -3 428 10 q 284 -16 336 -16 q 193 -1 235 -16 q 120 40 151 14 q 72 103 90 66 q 54 184 54 140 q 441 419 54 419 l 467 419 q 463 466 467 446 q 447 499 459 486 q 412 520 435 513 q 350 528 389 528 q 274 513 302 528 q 235 456 245 498 l 72 456 m 557 754 l 399 754 l 399 922 l 557 922 l 557 754 m 297 754 l 138 754 l 138 922 l 297 922 l 297 754 z "},"å":{"ha":718,"x_min":54,"x_max":626,"o":"m 353 919 q 400 909 378 919 q 439 882 422 899 q 465 844 456 865 q 475 798 475 822 q 465 751 475 773 q 439 713 456 729 q 401 687 423 696 q 353 677 378 677 q 306 686 328 677 q 268 711 284 695 q 242 750 252 728 q 233 798 233 772 q 242 844 233 822 q 268 883 252 866 q 306 909 284 899 q 353 919 328 919 m 353 750 q 387 764 374 750 q 401 798 401 777 q 387 831 401 817 q 353 845 373 845 q 321 831 334 845 q 307 798 307 817 q 321 764 307 778 q 353 750 334 750 m 467 288 l 420 288 q 217 189 217 288 q 243 138 217 157 q 315 120 270 120 q 401 138 359 120 q 467 191 442 156 l 467 288 m 72 456 q 357 663 100 663 q 469 652 419 663 q 554 612 519 641 q 607 535 589 584 q 626 411 626 486 l 626 0 l 467 0 l 467 34 q 382 -3 428 10 q 284 -16 336 -16 q 193 -1 235 -16 q 120 40 151 14 q 72 103 90 66 q 54 184 54 140 q 441 419 54 419 l 467 419 q 463 466 467 446 q 447 499 459 486 q 412 520 435 513 q 350 528 389 528 q 274 513 302 528 q 235 456 245 498 l 72 456 z "},"æ":{"ha":1114,"x_min":57,"x_max":1038,"o":"m 1026 203 q 988 109 1014 150 q 925 41 962 68 q 841 -1 888 13 q 742 -16 795 -16 q 610 9 668 -16 q 512 81 552 34 q 457 32 487 51 q 396 2 427 13 q 337 -12 366 -8 q 287 -16 309 -16 q 196 -1 238 -16 q 123 40 154 14 q 75 103 92 66 q 57 184 57 140 q 77 287 57 243 q 140 360 97 331 q 252 405 184 390 q 417 419 320 419 l 443 419 q 439 466 442 446 q 426 499 435 486 q 399 520 416 513 q 353 528 381 528 q 276 513 304 528 q 238 456 248 498 l 75 456 q 359 663 103 663 q 472 651 425 663 q 549 606 519 638 q 630 649 585 634 q 730 663 675 663 q 858 640 801 663 q 954 574 914 617 q 1016 467 994 530 q 1038 324 1038 404 l 1038 273 l 605 273 q 742 120 629 120 q 779 125 760 120 q 813 141 798 131 q 841 167 829 152 q 859 203 853 182 l 1026 203 m 443 288 l 396 288 q 311 282 345 288 q 257 264 277 276 q 228 233 237 252 q 220 189 220 214 q 246 138 220 157 q 317 120 273 120 q 357 124 340 120 q 390 138 375 129 q 418 160 405 147 q 443 191 431 173 l 443 288 m 865 408 q 814 498 850 468 q 730 528 779 528 q 653 498 682 528 q 608 408 624 468 l 865 408 z "},"ç":{"ha":666,"x_min":54,"x_max":632,"o":"m 632 213 q 597 113 622 156 q 538 42 573 71 q 458 -1 503 14 q 362 -16 413 -16 q 237 7 294 -16 q 140 73 180 30 q 77 179 99 116 q 54 324 54 243 q 76 467 54 404 q 139 574 98 530 q 236 640 179 617 q 362 663 293 663 q 458 649 414 663 q 538 607 503 635 q 597 537 573 579 q 631 439 621 494 l 465 439 q 431 507 459 486 q 362 528 402 528 q 304 515 330 528 q 258 476 277 502 q 229 413 239 451 q 218 324 218 375 q 229 235 218 273 q 258 172 239 197 q 304 133 277 146 q 362 120 330 120 q 398 126 380 120 q 429 143 415 132 q 452 173 443 155 q 465 213 462 190 l 632 213 m 417 -43 q 469 -54 448 -46 q 501 -75 489 -62 q 517 -103 513 -87 q 522 -141 522 -120 q 510 -194 522 -170 q 475 -233 499 -217 q 413 -258 451 -250 q 322 -267 375 -267 q 306 -267 315 -267 q 285 -266 296 -267 q 264 -264 274 -265 q 247 -262 254 -263 l 247 -161 q 262 -165 252 -163 q 284 -168 273 -166 q 307 -170 296 -169 q 326 -170 318 -170 q 376 -134 376 -170 q 292 -101 376 -101 l 292 18 l 417 18 l 417 -43 z "},"è":{"ha":723,"x_min":54,"x_max":669,"o":"m 657 203 q 619 109 645 150 q 556 41 593 68 q 472 -1 519 13 q 373 -16 426 -16 q 243 7 302 -16 q 142 74 184 31 q 77 181 100 118 q 54 324 54 244 q 77 466 54 403 q 140 572 99 528 q 237 640 180 616 q 361 663 293 663 q 489 640 432 663 q 585 574 545 617 q 647 467 625 530 q 669 324 669 404 l 669 273 l 222 273 q 275 158 235 197 q 373 120 315 120 q 410 125 391 120 q 445 141 429 131 q 472 167 460 152 q 490 203 484 182 l 657 203 m 496 408 q 446 498 481 468 q 361 528 410 528 q 277 498 313 528 q 226 408 241 468 l 496 408 m 451 741 l 311 741 l 165 926 l 357 926 l 451 741 z "},"é":{"ha":723,"x_min":54,"x_max":669,"o":"m 657 203 q 619 109 645 150 q 556 41 593 68 q 472 -1 519 13 q 373 -16 426 -16 q 243 7 302 -16 q 142 74 184 31 q 77 181 100 118 q 54 324 54 244 q 77 466 54 403 q 140 572 99 528 q 237 640 180 616 q 361 663 293 663 q 489 640 432 663 q 585 574 545 617 q 647 467 625 530 q 669 324 669 404 l 669 273 l 222 273 q 275 158 235 197 q 373 120 315 120 q 410 125 391 120 q 445 141 429 131 q 472 167 460 152 q 490 203 484 182 l 657 203 m 496 408 q 446 498 481 468 q 361 528 410 528 q 277 498 313 528 q 226 408 241 468 l 496 408 m 357 926 l 549 926 l 403 741 l 263 741 l 357 926 z "},"ê":{"ha":723,"x_min":54,"x_max":669,"o":"m 657 203 q 619 109 645 150 q 556 41 593 68 q 472 -1 519 13 q 373 -16 426 -16 q 243 7 302 -16 q 142 74 184 31 q 77 181 100 118 q 54 324 54 244 q 77 466 54 403 q 140 572 99 528 q 237 640 180 616 q 361 663 293 663 q 489 640 432 663 q 585 574 545 617 q 647 467 625 530 q 669 324 669 404 l 669 273 l 222 273 q 275 158 235 197 q 373 120 315 120 q 410 125 391 120 q 445 141 429 131 q 472 167 460 152 q 490 203 484 182 l 657 203 m 496 408 q 446 498 481 468 q 361 528 410 528 q 277 498 313 528 q 226 408 241 468 l 496 408 m 581 741 l 417 741 l 355 827 l 294 741 l 130 741 l 288 937 l 422 937 l 581 741 z "},"ë":{"ha":723,"x_min":54,"x_max":669,"o":"m 657 203 q 619 109 645 150 q 556 41 593 68 q 472 -1 519 13 q 373 -16 426 -16 q 243 7 302 -16 q 142 74 184 31 q 77 181 100 118 q 54 324 54 244 q 77 466 54 403 q 140 572 99 528 q 237 640 180 616 q 361 663 293 663 q 489 640 432 663 q 585 574 545 617 q 647 467 625 530 q 669 324 669 404 l 669 273 l 222 273 q 275 158 235 197 q 373 120 315 120 q 410 125 391 120 q 445 141 429 131 q 472 167 460 152 q 490 203 484 182 l 657 203 m 496 408 q 446 498 481 468 q 361 528 410 528 q 277 498 313 528 q 226 408 241 468 l 496 408 m 568 754 l 410 754 l 410 922 l 568 922 l 568 754 m 307 754 l 148 754 l 148 922 l 307 922 l 307 754 z "},"ì":{"ha":342,"x_min":-9,"x_max":277,"o":"m 250 0 l 92 0 l 92 648 l 250 648 l 250 0 m 277 741 l 137 741 l -9 926 l 183 926 l 277 741 z "},"í":{"ha":342,"x_min":66,"x_max":353,"o":"m 250 0 l 92 0 l 92 648 l 250 648 l 250 0 m 160 926 l 353 926 l 206 741 l 66 741 l 160 926 z "},"î":{"ha":342,"x_min":-56,"x_max":395,"o":"m 250 0 l 92 0 l 92 648 l 250 648 l 250 0 m 395 741 l 231 741 l 170 827 l 108 741 l -56 741 l 102 937 l 237 937 l 395 741 z "},"ï":{"ha":342,"x_min":-50,"x_max":384,"o":"m 250 0 l 92 0 l 92 648 l 250 648 l 250 0 m 384 754 l 226 754 l 226 922 l 384 922 l 384 754 m 109 754 l -50 754 l -50 922 l 109 922 l 109 754 z "},"ð":{"ha":723,"x_min":54,"x_max":669,"o":"m 481 787 q 581 646 543 712 q 637 523 618 580 q 663 416 657 465 q 669 324 669 366 q 647 181 669 244 q 585 74 625 118 q 488 7 545 31 q 361 -16 431 -16 q 236 7 293 -16 q 139 73 180 30 q 77 179 99 116 q 54 324 54 243 q 76 467 54 404 q 138 574 98 530 q 235 640 178 617 q 361 663 292 663 q 384 663 373 663 q 406 661 395 662 q 392 682 400 671 q 376 703 385 693 q 361 720 368 713 q 351 730 355 728 l 223 670 l 177 744 l 288 799 l 167 895 l 356 895 l 410 855 l 510 899 l 555 825 l 481 787 m 361 120 q 419 133 393 120 q 464 172 446 146 q 493 235 483 197 q 504 324 504 273 q 493 413 504 375 q 464 476 483 451 q 419 515 446 502 q 361 528 393 528 q 303 515 330 528 q 258 476 277 502 q 229 413 239 451 q 218 324 218 375 q 229 235 218 273 q 258 172 239 197 q 303 133 277 146 q 361 120 330 120 z "},"ñ":{"ha":723,"x_min":92,"x_max":631,"o":"m 251 610 q 401 663 320 663 q 631 416 631 663 l 631 0 l 470 0 l 470 411 q 451 497 470 471 q 387 523 431 523 q 251 444 321 523 l 251 0 l 92 0 l 92 648 l 251 648 l 251 610 m 593 921 q 583 858 593 888 q 553 804 572 827 q 508 768 534 781 q 450 754 481 754 q 413 760 436 754 q 368 773 391 766 q 328 786 345 780 q 298 791 311 791 q 280 790 288 791 q 264 785 272 789 q 251 773 256 781 q 244 752 245 765 l 116 752 q 127 815 116 785 q 157 868 138 845 q 202 906 176 892 q 260 920 229 920 q 295 914 273 920 q 340 901 317 908 q 380 887 363 893 q 412 881 398 881 q 430 882 422 881 q 445 888 437 884 q 459 900 453 892 q 466 921 465 907 l 593 921 z "},"ò":{"ha":723,"x_min":54,"x_max":669,"o":"m 361 663 q 489 640 432 663 q 585 574 545 617 q 647 467 625 530 q 669 324 669 404 q 647 181 669 244 q 585 74 625 118 q 488 7 545 31 q 361 -16 431 -16 q 236 7 293 -16 q 139 73 180 30 q 77 179 99 116 q 54 324 54 243 q 76 467 54 404 q 138 574 98 530 q 235 640 178 617 q 361 663 292 663 m 361 120 q 419 133 393 120 q 464 172 446 146 q 493 235 483 197 q 504 324 504 273 q 493 413 504 375 q 464 476 483 451 q 419 515 446 502 q 361 528 393 528 q 303 515 330 528 q 258 476 277 502 q 229 413 239 451 q 218 324 218 375 q 229 235 218 273 q 258 172 239 197 q 303 133 277 146 q 361 120 330 120 m 451 741 l 311 741 l 165 926 l 357 926 l 451 741 z "},"ó":{"ha":723,"x_min":54,"x_max":669,"o":"m 361 663 q 489 640 432 663 q 585 574 545 617 q 647 467 625 530 q 669 324 669 404 q 647 181 669 244 q 585 74 625 118 q 488 7 545 31 q 361 -16 431 -16 q 236 7 293 -16 q 139 73 180 30 q 77 179 99 116 q 54 324 54 243 q 76 467 54 404 q 138 574 98 530 q 235 640 178 617 q 361 663 292 663 m 361 120 q 419 133 393 120 q 464 172 446 146 q 493 235 483 197 q 504 324 504 273 q 493 413 504 375 q 464 476 483 451 q 419 515 446 502 q 361 528 393 528 q 303 515 330 528 q 258 476 277 502 q 229 413 239 451 q 218 324 218 375 q 229 235 218 273 q 258 172 239 197 q 303 133 277 146 q 361 120 330 120 m 350 926 l 543 926 l 396 741 l 256 741 l 350 926 z "},"ô":{"ha":723,"x_min":54,"x_max":669,"o":"m 361 663 q 489 640 432 663 q 585 574 545 617 q 647 467 625 530 q 669 324 669 404 q 647 181 669 244 q 585 74 625 118 q 488 7 545 31 q 361 -16 431 -16 q 236 7 293 -16 q 139 73 180 30 q 77 179 99 116 q 54 324 54 243 q 76 467 54 404 q 138 574 98 530 q 235 640 178 617 q 361 663 292 663 m 361 120 q 419 133 393 120 q 464 172 446 146 q 493 235 483 197 q 504 324 504 273 q 493 413 504 375 q 464 476 483 451 q 419 515 446 502 q 361 528 393 528 q 303 515 330 528 q 258 476 277 502 q 229 413 239 451 q 218 324 218 375 q 229 235 218 273 q 258 172 239 197 q 303 133 277 146 q 361 120 330 120 m 585 741 l 420 741 l 359 827 l 297 741 l 133 741 l 292 937 l 426 937 l 585 741 z "},"õ":{"ha":723,"x_min":54,"x_max":669,"o":"m 361 663 q 489 640 432 663 q 585 574 545 617 q 647 467 625 530 q 669 324 669 404 q 647 181 669 244 q 585 74 625 118 q 488 7 545 31 q 361 -16 431 -16 q 236 7 293 -16 q 139 73 180 30 q 77 179 99 116 q 54 324 54 243 q 76 467 54 404 q 138 574 98 530 q 235 640 178 617 q 361 663 292 663 m 361 120 q 419 133 393 120 q 464 172 446 146 q 493 235 483 197 q 504 324 504 273 q 493 413 504 375 q 464 476 483 451 q 419 515 446 502 q 361 528 393 528 q 303 515 330 528 q 258 476 277 502 q 229 413 239 451 q 218 324 218 375 q 229 235 218 273 q 258 172 239 197 q 303 133 277 146 q 361 120 330 120 m 593 921 q 583 858 593 888 q 553 804 572 827 q 508 768 534 781 q 450 754 481 754 q 413 760 436 754 q 368 773 391 766 q 328 786 345 780 q 298 791 311 791 q 280 790 288 791 q 264 785 272 789 q 251 773 256 781 q 244 752 245 765 l 116 752 q 127 815 116 785 q 157 868 138 845 q 202 906 176 892 q 260 920 229 920 q 295 914 273 920 q 340 901 317 908 q 380 887 363 893 q 412 881 398 881 q 430 882 422 881 q 445 888 437 884 q 459 900 453 892 q 466 921 465 907 l 593 921 z "},"ö":{"ha":723,"x_min":54,"x_max":669,"o":"m 361 663 q 489 640 432 663 q 585 574 545 617 q 647 467 625 530 q 669 324 669 404 q 647 181 669 244 q 585 74 625 118 q 488 7 545 31 q 361 -16 431 -16 q 236 7 293 -16 q 139 73 180 30 q 77 179 99 116 q 54 324 54 243 q 76 467 54 404 q 138 574 98 530 q 235 640 178 617 q 361 663 292 663 m 361 120 q 419 133 393 120 q 464 172 446 146 q 493 235 483 197 q 504 324 504 273 q 493 413 504 375 q 464 476 483 451 q 419 515 446 502 q 361 528 393 528 q 303 515 330 528 q 258 476 277 502 q 229 413 239 451 q 218 324 218 375 q 229 235 218 273 q 258 172 239 197 q 303 133 277 146 q 361 120 330 120 m 564 754 l 406 754 l 406 922 l 564 922 l 564 754 m 304 754 l 144 754 l 144 922 l 304 922 l 304 754 z "},"÷":{"ha":730,"x_min":65,"x_max":665,"o":"m 449 556 l 280 556 l 280 724 l 449 724 l 449 556 m 665 366 l 65 366 l 65 498 l 665 498 l 665 366 m 449 140 l 280 140 l 280 308 l 449 308 l 449 140 z "},"ø":{"ha":723,"x_min":49,"x_max":669,"o":"m 361 663 q 445 654 406 663 q 517 627 484 644 l 574 701 l 663 635 l 602 555 q 651 454 634 512 q 669 324 669 396 q 647 181 669 244 q 585 74 625 118 q 488 7 545 31 q 361 -16 431 -16 q 194 28 265 -16 l 139 -44 l 49 20 l 114 104 q 70 201 85 146 q 54 324 54 256 q 76 467 54 404 q 138 574 98 530 q 235 640 178 617 q 361 663 292 663 m 361 120 q 419 133 393 120 q 464 172 446 146 q 493 235 483 197 q 504 324 504 273 q 501 372 504 350 q 493 414 498 395 l 284 144 q 361 120 317 120 m 218 324 q 225 249 218 281 l 427 510 q 361 528 397 528 q 303 515 330 528 q 258 476 277 502 q 229 413 239 451 q 218 324 218 375 z "},"ù":{"ha":724,"x_min":92,"x_max":633,"o":"m 473 38 q 321 -16 405 -16 q 92 231 92 -16 l 92 648 l 254 648 l 254 237 q 273 151 254 176 q 337 125 293 125 q 473 203 410 125 l 473 648 l 633 648 l 633 0 l 473 0 l 473 38 m 451 741 l 311 741 l 165 926 l 357 926 l 451 741 z "},"ú":{"ha":724,"x_min":92,"x_max":633,"o":"m 473 38 q 321 -16 405 -16 q 92 231 92 -16 l 92 648 l 254 648 l 254 237 q 273 151 254 176 q 337 125 293 125 q 473 203 410 125 l 473 648 l 633 648 l 633 0 l 473 0 l 473 38 m 377 926 l 570 926 l 423 741 l 283 741 l 377 926 z "},"û":{"ha":724,"x_min":92,"x_max":633,"o":"m 473 38 q 321 -16 405 -16 q 92 231 92 -16 l 92 648 l 254 648 l 254 237 q 273 151 254 176 q 337 125 293 125 q 473 203 410 125 l 473 648 l 633 648 l 633 0 l 473 0 l 473 38 m 581 741 l 417 741 l 355 827 l 294 741 l 130 741 l 288 937 l 422 937 l 581 741 z "},"ü":{"ha":724,"x_min":92,"x_max":633,"o":"m 473 38 q 321 -16 405 -16 q 92 231 92 -16 l 92 648 l 254 648 l 254 237 q 273 151 254 176 q 337 125 293 125 q 473 203 410 125 l 473 648 l 633 648 l 633 0 l 473 0 l 473 38 m 571 754 l 413 754 l 413 922 l 571 922 l 571 754 m 311 754 l 151 754 l 151 922 l 311 922 l 311 754 z "},"ý":{"ha":657,"x_min":14,"x_max":637,"o":"m 399 17 q 355 -91 377 -40 q 306 -180 333 -142 q 242 -241 278 -218 q 157 -263 207 -263 q 111 -260 134 -263 q 60 -248 87 -256 l 60 -96 q 110 -111 92 -109 q 139 -113 128 -113 q 168 -103 153 -113 q 197 -74 183 -92 q 225 -30 212 -55 q 249 25 238 -5 l 14 648 l 186 648 l 325 240 l 463 648 l 637 648 l 399 17 m 330 926 l 522 926 l 376 741 l 236 741 l 330 926 z "},"þ":{"ha":722,"x_min":92,"x_max":667,"o":"m 251 615 q 395 663 315 663 q 511 639 460 663 q 596 571 562 615 q 649 466 631 528 q 667 329 667 404 q 646 187 667 251 q 587 78 625 123 q 498 9 549 33 q 388 -16 448 -16 q 314 -8 347 -16 q 251 18 281 0 l 251 -250 l 92 -250 l 92 895 l 251 895 l 251 615 m 251 176 q 382 120 311 120 q 470 173 437 120 q 503 329 503 226 q 472 478 503 428 q 386 528 441 528 q 251 442 316 528 l 251 176 z "},"ÿ":{"ha":657,"x_min":14,"x_max":637,"o":"m 399 17 q 355 -91 377 -40 q 306 -180 333 -142 q 242 -241 278 -218 q 157 -263 207 -263 q 111 -260 134 -263 q 60 -248 87 -256 l 60 -96 q 110 -111 92 -109 q 139 -113 128 -113 q 168 -103 153 -113 q 197 -74 183 -92 q 225 -30 212 -55 q 249 25 238 -5 l 14 648 l 186 648 l 325 240 l 463 648 l 637 648 l 399 17 m 536 754 l 378 754 l 378 922 l 536 922 l 536 754 m 276 754 l 117 754 l 117 922 l 276 922 l 276 754 z "},"।":{"ha":579,"x_min":235,"x_max":431,"o":"m 431 -73 l 235 -73 l 235 942 l 431 942 l 431 -73 z "},"॥":{"ha":850,"x_min":235,"x_max":728,"o":"m 431 -73 l 235 -73 l 235 942 l 431 942 l 431 -73 m 728 -73 l 532 -73 l 532 942 l 728 942 l 728 -73 z "},"॑":{"ha":0,"x_min":-302,"x_max":-163,"o":"m -163 1004 l -302 1004 l -302 1470 l -163 1470 l -163 1004 z "},"॒":{"ha":0,"x_min":-644,"x_max":7,"o":"m 7 -425 l -644 -425 l -644 -263 l 7 -263 l 7 -425 z "},"₨":{"ha":1522,"x_min":109,"x_max":1468,"o":"m 613 243 q 589 290 604 269 q 553 327 573 311 q 508 351 532 342 q 455 360 483 360 l 276 360 l 276 0 l 109 0 l 109 895 l 510 895 q 578 893 546 895 q 641 886 611 892 q 698 867 671 880 q 750 834 725 855 q 816 743 794 797 q 838 633 838 690 q 799 493 838 551 q 690 403 759 434 q 742 348 719 381 q 783 265 765 314 l 879 0 l 699 0 l 613 243 m 276 514 l 498 514 q 575 520 543 514 q 627 541 607 526 q 657 577 648 555 q 667 633 667 600 q 630 721 667 693 q 515 749 593 749 l 276 749 l 276 514 m 1287 466 q 1189 528 1271 528 q 1150 524 1168 528 q 1119 514 1133 521 q 1099 497 1106 507 q 1091 474 1091 487 q 1095 457 1091 464 q 1113 443 1099 450 q 1156 428 1128 436 q 1234 408 1185 420 q 1337 378 1293 394 q 1410 340 1381 363 q 1453 283 1439 317 q 1468 201 1468 250 q 1449 115 1468 155 q 1395 47 1430 76 q 1311 1 1360 18 q 1201 -16 1262 -16 q 918 204 946 -16 l 1080 204 q 1200 120 1093 120 q 1280 140 1253 120 q 1308 190 1308 161 q 1302 213 1308 203 q 1279 230 1296 222 q 1232 245 1262 237 q 1155 266 1202 254 q 1055 295 1097 280 q 985 331 1013 309 q 945 384 958 352 q 932 465 932 416 q 949 543 932 507 q 1000 606 967 579 q 1078 648 1032 633 q 1181 663 1124 663 q 1447 466 1429 663 l 1287 466 z "},"௦":{"ha":921,"x_min":81,"x_max":840,"o":"m 840 451 q 815 251 840 338 q 742 104 790 163 q 623 15 694 45 q 460 -16 552 -16 q 297 15 368 -16 q 179 104 227 45 q 106 251 131 163 q 81 451 81 338 q 106 644 81 559 q 179 789 131 730 q 297 879 227 848 q 460 910 368 910 q 623 879 552 910 q 742 789 694 848 q 815 644 790 730 q 840 451 840 559 m 636 451 q 594 677 636 603 q 460 751 551 751 q 327 677 369 751 q 285 451 285 603 q 295 313 285 371 q 326 217 304 254 q 380 161 347 179 q 460 143 414 143 q 594 217 552 143 q 636 451 636 291 z "},"ஶ":{"ha":1653,"x_min":109,"x_max":1545,"o":"m 304 895 l 304 236 q 309 188 304 206 q 322 160 313 170 q 343 146 331 150 q 372 143 356 143 q 444 164 415 143 q 489 216 472 184 q 514 283 507 247 q 521 351 521 320 l 521 895 l 1545 895 l 1545 349 q 1538 266 1545 309 q 1516 183 1531 224 q 1474 106 1500 142 q 1409 43 1448 71 q 1318 0 1371 16 q 1196 -16 1265 -16 q 1098 -6 1139 -16 q 1028 19 1057 3 q 981 59 999 36 q 953 110 963 82 q 940 170 943 138 q 937 236 937 202 l 937 741 l 717 741 l 717 349 q 710 266 717 309 q 688 183 703 224 q 646 106 672 142 q 581 43 620 71 q 490 0 543 16 q 368 -16 437 -16 q 270 -6 311 -16 q 200 19 229 3 q 153 59 171 36 q 125 110 135 82 q 112 170 115 138 q 109 236 109 202 l 109 895 l 304 895 m 1349 741 l 1133 741 l 1133 236 q 1137 188 1133 206 q 1150 160 1141 170 q 1172 146 1159 150 q 1200 143 1184 143 q 1272 164 1243 143 q 1317 216 1300 184 q 1342 283 1335 247 q 1349 351 1349 320 l 1349 741 z "},"₹":{"ha":696,"x_min":32,"x_max":664,"o":"m 605 761 l 473 761 q 479 749 475 757 q 487 731 483 741 q 495 711 491 722 q 501 692 499 701 l 664 692 l 605 558 l 503 558 q 472 476 495 514 q 417 411 450 439 q 343 365 384 382 q 258 344 302 348 l 569 0 l 352 0 l 61 333 l 61 461 l 157 461 q 207 466 178 461 q 262 482 235 471 q 310 512 290 493 q 336 558 331 530 l 32 558 l 91 692 l 326 692 q 302 725 315 712 q 273 746 290 739 q 234 758 256 754 q 184 761 212 761 l 32 761 l 91 895 l 664 895 l 605 761 z "}}}
